<ttFont>
    <TTGlyph name=".notdef" xMin="60" yMin="-253" xMax="1075" yMax="1021">
      <contour>
        <pt x="85" y="996" on="1"/>
        <pt x="85" y="-228" on="1"/>
        <pt x="1050" y="-228" on="1"/>
        <pt x="1050" y="996" on="1"/>
      </contour>
      <contour>
        <pt x="60" y="1021" on="1"/>
        <pt x="1075" y="1021" on="1"/>
        <pt x="1075" y="-253" on="1"/>
        <pt x="60" y="-253" on="1"/>
      </contour>
      <contour>
        <pt x="317" y="597" on="1"/>
        <pt x="317" y="632" on="0"/>
        <pt x="338" y="691" on="0"/>
        <pt x="379" y="734" on="0"/>
        <pt x="436" y="759" on="0"/>
        <pt x="472" y="759" on="1"/>
        <pt x="512" y="759" on="0"/>
        <pt x="549" y="749" on="1"/>
        <pt x="583" y="741" on="0"/>
        <pt x="654" y="735" on="0"/>
        <pt x="690" y="735" on="1"/>
        <pt x="733" y="735" on="0"/>
        <pt x="775" y="738" on="1"/>
        <pt x="724" y="617" on="1"/>
        <pt x="717" y="619" on="0"/>
        <pt x="703" y="619" on="0"/>
        <pt x="695" y="619" on="1"/>
        <pt x="623" y="619" on="0"/>
        <pt x="494" y="579" on="0"/>
        <pt x="397" y="499" on="0"/>
        <pt x="340" y="382" on="0"/>
        <pt x="340" y="304" on="1"/>
        <pt x="340" y="249" on="0"/>
        <pt x="373" y="172" on="0"/>
        <pt x="430" y="122" on="0"/>
        <pt x="505" y="95" on="0"/>
        <pt x="589" y="82" on="0"/>
        <pt x="677" y="80" on="0"/>
        <pt x="718" y="80" on="1"/>
        <pt x="860" y="80" on="1"/>
        <pt x="860" y="62" on="1"/>
        <pt x="684" y="-23" on="1"/>
        <pt x="676" y="-25" on="0"/>
        <pt x="659" y="-25" on="0"/>
        <pt x="652" y="-25" on="1"/>
        <pt x="610" y="-25" on="0"/>
        <pt x="504" y="-14" on="0"/>
        <pt x="405" y="18" on="0"/>
        <pt x="328" y="77" on="0"/>
        <pt x="314" y="124" on="1"/>
        <pt x="294" y="193" on="0"/>
        <pt x="294" y="262" on="1"/>
        <pt x="294" y="355" on="0"/>
        <pt x="362" y="526" on="0"/>
        <pt x="425" y="593" on="1"/>
        <pt x="428" y="596" on="0"/>
        <pt x="441" y="609" on="0"/>
        <pt x="455" y="622" on="0"/>
        <pt x="468" y="634" on="0"/>
        <pt x="472" y="636" on="1"/>
        <pt x="445" y="657" on="0"/>
        <pt x="411" y="657" on="1"/>
        <pt x="381" y="657" on="0"/>
        <pt x="334" y="620" on="0"/>
      </contour>
    </TTGlyph>
    <TTGlyph name="A" xMin="12" yMin="0" xMax="1098" yMax="1044">
      <contour>
        <pt x="694" y="0" on="1"/>
        <pt x="694" y="29" on="1"/>
        <pt x="711" y="29" on="0"/>
        <pt x="747" y="34" on="0"/>
        <pt x="777" y="48" on="0"/>
        <pt x="797" y="73" on="0"/>
        <pt x="797" y="94" on="1"/>
        <pt x="797" y="114" on="0"/>
        <pt x="773" y="186" on="0"/>
        <pt x="743" y="262" on="0"/>
        <pt x="713" y="328" on="0"/>
        <pt x="707" y="342" on="1"/>
        <pt x="311" y="342" on="1"/>
        <pt x="307" y="334" on="0"/>
        <pt x="290" y="297" on="0"/>
        <pt x="268" y="250" on="0"/>
        <pt x="246" y="198" on="0"/>
        <pt x="227" y="148" on="0"/>
        <pt x="215" y="106" on="0"/>
        <pt x="215" y="94" on="1"/>
        <pt x="215" y="74" on="0"/>
        <pt x="241" y="49" on="0"/>
        <pt x="279" y="35" on="0"/>
        <pt x="319" y="30" on="0"/>
        <pt x="334" y="29" on="1"/>
        <pt x="334" y="0" on="1"/>
        <pt x="12" y="0" on="1"/>
        <pt x="12" y="29" on="1"/>
        <pt x="48" y="30" on="0"/>
        <pt x="100" y="62" on="0"/>
        <pt x="139" y="112" on="0"/>
        <pt x="167" y="173" on="0"/>
        <pt x="180" y="203" on="1"/>
        <pt x="541" y="1044" on="1"/>
        <pt x="567" y="1044" on="1"/>
        <pt x="922" y="197" on="1"/>
        <pt x="937" y="162" on="0"/>
        <pt x="964" y="103" on="0"/>
        <pt x="1002" y="58" on="0"/>
        <pt x="1056" y="31" on="0"/>
        <pt x="1098" y="29" on="1"/>
        <pt x="1098" y="0" on="1"/>
      </contour>
      <contour>
        <pt x="512" y="813" on="1"/>
        <pt x="334" y="397" on="1"/>
        <pt x="686" y="397" on="1"/>
      </contour>
    </TTGlyph>
    <TTGlyph name="AE" xMin="-18" yMin="0" xMax="1330" yMax="1022">
      <contour>
        <pt x="1249" y="0" on="1"/>
        <pt x="482" y="0" on="1"/>
        <pt x="482" y="28" on="1"/>
        <pt x="519" y="28" on="1"/>
        <pt x="581" y="28" on="0"/>
        <pt x="612" y="65" on="1"/>
        <pt x="630" y="89" on="0"/>
        <pt x="630" y="181" on="1"/>
        <pt x="630" y="395" on="1"/>
        <pt x="332" y="395" on="1"/>
        <pt x="238" y="220" on="1"/>
        <pt x="217" y="181" on="0"/>
        <pt x="190" y="125" on="0"/>
        <pt x="181" y="86" on="0"/>
        <pt x="192" y="60" on="0"/>
        <pt x="207" y="51" on="1"/>
        <pt x="230" y="35" on="0"/>
        <pt x="303" y="28" on="1"/>
        <pt x="303" y="0" on="1"/>
        <pt x="-18" y="0" on="1"/>
        <pt x="-18" y="28" on="1"/>
        <pt x="15" y="28" on="0"/>
        <pt x="38" y="41" on="1"/>
        <pt x="49" y="48" on="0"/>
        <pt x="74" y="71" on="0"/>
        <pt x="103" y="110" on="0"/>
        <pt x="138" y="167" on="0"/>
        <pt x="160" y="207" on="1"/>
        <pt x="472" y="787" on="1"/>
        <pt x="501" y="841" on="0"/>
        <pt x="530" y="915" on="0"/>
        <pt x="530" y="933" on="1"/>
        <pt x="530" y="946" on="0"/>
        <pt x="519" y="967" on="0"/>
        <pt x="490" y="982" on="0"/>
        <pt x="440" y="993" on="0"/>
        <pt x="400" y="995" on="1"/>
        <pt x="400" y="1022" on="1"/>
        <pt x="1238" y="1022" on="1"/>
        <pt x="1249" y="799" on="1"/>
        <pt x="1224" y="799" on="1"/>
        <pt x="1213" y="852" on="0"/>
        <pt x="1191" y="917" on="0"/>
        <pt x="1151" y="954" on="0"/>
        <pt x="1082" y="967" on="0"/>
        <pt x="1025" y="967" on="1"/>
        <pt x="774" y="967" on="1"/>
        <pt x="774" y="563" on="1"/>
        <pt x="968" y="563" on="1"/>
        <pt x="1012" y="563" on="0"/>
        <pt x="1072" y="578" on="0"/>
        <pt x="1110" y="613" on="0"/>
        <pt x="1129" y="669" on="0"/>
        <pt x="1132" y="710" on="1"/>
        <pt x="1158" y="710" on="1"/>
        <pt x="1158" y="357" on="1"/>
        <pt x="1132" y="357" on="1"/>
        <pt x="1126" y="402" on="0"/>
        <pt x="1110" y="460" on="0"/>
        <pt x="1076" y="493" on="0"/>
        <pt x="1017" y="506" on="0"/>
        <pt x="968" y="506" on="1"/>
        <pt x="774" y="506" on="1"/>
        <pt x="774" y="168" on="1"/>
        <pt x="774" y="138" on="0"/>
        <pt x="775" y="94" on="0"/>
        <pt x="780" y="86" on="1"/>
        <pt x="783" y="81" on="0"/>
        <pt x="793" y="70" on="0"/>
        <pt x="811" y="61" on="0"/>
        <pt x="840" y="55" on="0"/>
        <pt x="862" y="55" on="1"/>
        <pt x="998" y="55" on="1"/>
        <pt x="1062" y="55" on="0"/>
        <pt x="1154" y="78" on="0"/>
        <pt x="1223" y="128" on="0"/>
        <pt x="1277" y="204" on="0"/>
        <pt x="1303" y="258" on="1"/>
        <pt x="1330" y="258" on="1"/>
      </contour>
      <contour>
        <pt x="630" y="967" on="1"/>
        <pt x="360" y="452" on="1"/>
        <pt x="630" y="452" on="1"/>
      </contour>
    </TTGlyph>
    <TTGlyph name="Aacute" xMin="12" yMin="0" xMax="1098" yMax="1381">
      <component glyphName="A" x="0" y="0" flags="0x204"/>
      <component glyphName="acute" x="328" y="330" flags="0x4"/>
    </TTGlyph>
    <TTGlyph name="Acircumflex" xMin="12" yMin="0" xMax="1098" yMax="1364">
      <component glyphName="A" x="0" y="0" flags="0x204"/>
      <component glyphName="circumflex" x="313" y="320" flags="0x4"/>
    </TTGlyph>
    <TTGlyph name="Adieresis" xMin="12" yMin="0" xMax="1098" yMax="1321">
      <component glyphName="A" x="0" y="0" flags="0x204"/>
      <component glyphName="dieresis" x="313" y="320" flags="0x4"/>
    </TTGlyph>
    <TTGlyph name="Agrave" xMin="12" yMin="0" xMax="1098" yMax="1381">
      <component glyphName="A" x="0" y="0" flags="0x204"/>
      <component glyphName="grave" x="261" y="330" flags="0x4"/>
    </TTGlyph>
    <TTGlyph name="Aring" xMin="12" yMin="0" xMax="1098" yMax="1404">
      <component glyphName="A" x="0" y="0" flags="0x204"/>
      <component glyphName="ring" x="411" y="330" flags="0x4"/>
    </TTGlyph>
    <TTGlyph name="Atilde" xMin="12" yMin="0" xMax="1098" yMax="1343">
      <component glyphName="A" x="0" y="0" flags="0x204"/>
      <component glyphName="tilde" x="298" y="330" flags="0x4"/>
    </TTGlyph>
    <TTGlyph name="B" xMin="27" yMin="0" xMax="944" yMax="1022">
      <contour>
        <pt x="944" y="279" on="1"/>
        <pt x="944" y="219" on="0"/>
        <pt x="906" y="130" on="0"/>
        <pt x="840" y="68" on="0"/>
        <pt x="753" y="29" on="0"/>
        <pt x="656" y="8" on="0"/>
        <pt x="555" y="0" on="0"/>
        <pt x="508" y="0" on="1"/>
        <pt x="27" y="0" on="1"/>
        <pt x="27" y="29" on="1"/>
        <pt x="75" y="29" on="0"/>
        <pt x="132" y="42" on="0"/>
        <pt x="162" y="75" on="0"/>
        <pt x="172" y="134" on="0"/>
        <pt x="172" y="180" on="1"/>
        <pt x="172" y="842" on="1"/>
        <pt x="172" y="890" on="0"/>
        <pt x="164" y="949" on="0"/>
        <pt x="134" y="983" on="0"/>
        <pt x="76" y="995" on="0"/>
        <pt x="27" y="995" on="1"/>
        <pt x="27" y="1022" on="1"/>
        <pt x="467" y="1022" on="1"/>
        <pt x="514" y="1022" on="0"/>
        <pt x="614" y="1014" on="0"/>
        <pt x="710" y="993" on="0"/>
        <pt x="796" y="955" on="0"/>
        <pt x="861" y="894" on="0"/>
        <pt x="899" y="807" on="0"/>
        <pt x="899" y="748" on="1"/>
        <pt x="899" y="705" on="0"/>
        <pt x="870" y="633" on="0"/>
        <pt x="820" y="576" on="0"/>
        <pt x="752" y="534" on="0"/>
        <pt x="713" y="522" on="1"/>
        <pt x="764" y="513" on="0"/>
        <pt x="848" y="476" on="0"/>
        <pt x="910" y="417" on="0"/>
        <pt x="944" y="334" on="0"/>
      </contour>
      <contour>
        <pt x="739" y="756" on="1"/>
        <pt x="739" y="816" on="0"/>
        <pt x="688" y="898" on="0"/>
        <pt x="607" y="949" on="0"/>
        <pt x="506" y="971" on="0"/>
        <pt x="455" y="971" on="1"/>
        <pt x="420" y="971" on="0"/>
        <pt x="351" y="964" on="0"/>
        <pt x="317" y="956" on="1"/>
        <pt x="317" y="563" on="1"/>
        <pt x="353" y="555" on="0"/>
        <pt x="426" y="553" on="0"/>
        <pt x="461" y="553" on="1"/>
        <pt x="514" y="553" on="0"/>
        <pt x="614" y="570" on="0"/>
        <pt x="692" y="616" on="0"/>
        <pt x="739" y="695" on="0"/>
      </contour>
      <contour>
        <pt x="770" y="268" on="1"/>
        <pt x="770" y="334" on="0"/>
        <pt x="712" y="423" on="0"/>
        <pt x="621" y="477" on="0"/>
        <pt x="507" y="500" on="0"/>
        <pt x="451" y="500" on="1"/>
        <pt x="419" y="500" on="0"/>
        <pt x="353" y="499" on="0"/>
        <pt x="317" y="494" on="1"/>
        <pt x="317" y="74" on="1"/>
        <pt x="361" y="64" on="0"/>
        <pt x="447" y="53" on="0"/>
        <pt x="492" y="53" on="1"/>
        <pt x="543" y="53" on="0"/>
        <pt x="642" y="76" on="0"/>
        <pt x="721" y="127" on="0"/>
        <pt x="770" y="209" on="0"/>
      </contour>
    </TTGlyph>
    <TTGlyph name="C" xMin="55" yMin="-25" xMax="975" yMax="1044">
      <contour>
        <pt x="975" y="240" on="1"/>
        <pt x="906" y="116" on="0"/>
        <pt x="697" y="-25" on="0"/>
        <pt x="553" y="-25" on="1"/>
        <pt x="439" y="-25" on="0"/>
        <pt x="255" y="55" on="0"/>
        <pt x="125" y="195" on="0"/>
        <pt x="55" y="385" on="0"/>
        <pt x="55" y="496" on="1"/>
        <pt x="55" y="610" on="0"/>
        <pt x="130" y="809" on="0"/>
        <pt x="267" y="958" on="0"/>
        <pt x="458" y="1044" on="0"/>
        <pt x="575" y="1044" on="1"/>
        <pt x="614" y="1044" on="0"/>
        <pt x="681" y="1033" on="0"/>
        <pt x="744" y="1015" on="0"/>
        <pt x="806" y="990" on="0"/>
        <pt x="840" y="975" on="1"/>
        <pt x="855" y="975" on="0"/>
        <pt x="877" y="989" on="0"/>
        <pt x="891" y="1009" on="0"/>
        <pt x="900" y="1034" on="0"/>
        <pt x="903" y="1044" on="1"/>
        <pt x="930" y="1044" on="1"/>
        <pt x="952" y="698" on="1"/>
        <pt x="930" y="698" on="1"/>
        <pt x="911" y="762" on="0"/>
        <pt x="852" y="869" on="0"/>
        <pt x="769" y="947" on="0"/>
        <pt x="659" y="991" on="0"/>
        <pt x="588" y="991" on="1"/>
        <pt x="518" y="991" on="0"/>
        <pt x="411" y="950" on="0"/>
        <pt x="330" y="878" on="0"/>
        <pt x="275" y="782" on="0"/>
        <pt x="242" y="671" on="0"/>
        <pt x="227" y="552" on="0"/>
        <pt x="227" y="494" on="1"/>
        <pt x="227" y="403" on="0"/>
        <pt x="271" y="239" on="0"/>
        <pt x="364" y="115" on="0"/>
        <pt x="509" y="43" on="0"/>
        <pt x="610" y="43" on="1"/>
        <pt x="674" y="43" on="0"/>
        <pt x="771" y="73" on="0"/>
        <pt x="850" y="128" on="0"/>
        <pt x="918" y="207" on="0"/>
        <pt x="952" y="256" on="1"/>
      </contour>
    </TTGlyph>
    <TTGlyph name="Ccedilla" xMin="55" yMin="-353" xMax="975" yMax="1044">
      <component glyphName="C" x="0" y="0" flags="0x204"/>
      <component glyphName="cedilla" x="399" y="-21" flags="0x4"/>
    </TTGlyph>
    <TTGlyph name="D" xMin="27" yMin="0" xMax="1055" yMax="1022">
      <contour>
        <pt x="1055" y="516" on="1"/>
        <pt x="1055" y="386" on="0"/>
        <pt x="969" y="193" on="0"/>
        <pt x="816" y="64" on="0"/>
        <pt x="606" y="0" on="0"/>
        <pt x="483" y="0" on="1"/>
        <pt x="27" y="0" on="1"/>
        <pt x="27" y="29" on="1"/>
        <pt x="75" y="29" on="0"/>
        <pt x="132" y="41" on="0"/>
        <pt x="162" y="74" on="0"/>
        <pt x="172" y="133" on="0"/>
        <pt x="172" y="180" on="1"/>
        <pt x="172" y="842" on="1"/>
        <pt x="172" y="890" on="0"/>
        <pt x="164" y="950" on="0"/>
        <pt x="134" y="983" on="0"/>
        <pt x="76" y="995" on="0"/>
        <pt x="27" y="995" on="1"/>
        <pt x="27" y="1022" on="1"/>
        <pt x="442" y="1022" on="1"/>
        <pt x="571" y="1022" on="0"/>
        <pt x="795" y="974" on="0"/>
        <pt x="960" y="857" on="0"/>
        <pt x="1055" y="663" on="0"/>
      </contour>
      <contour>
        <pt x="885" y="510" on="1"/>
        <pt x="885" y="605" on="0"/>
        <pt x="832" y="770" on="0"/>
        <pt x="727" y="894" on="0"/>
        <pt x="574" y="965" on="0"/>
        <pt x="473" y="965" on="1"/>
        <pt x="433" y="965" on="0"/>
        <pt x="356" y="953" on="0"/>
        <pt x="317" y="942" on="1"/>
        <pt x="317" y="74" on="1"/>
        <pt x="353" y="64" on="0"/>
        <pt x="437" y="51" on="0"/>
        <pt x="477" y="51" on="1"/>
        <pt x="577" y="51" on="0"/>
        <pt x="729" y="124" on="0"/>
        <pt x="832" y="249" on="0"/>
        <pt x="885" y="416" on="0"/>
      </contour>
    </TTGlyph>
    <TTGlyph name="E" xMin="33" yMin="0" xMax="909" yMax="1022">
      <contour>
        <pt x="819" y="0" on="1"/>
        <pt x="33" y="0" on="1"/>
        <pt x="33" y="29" on="1"/>
        <pt x="81" y="29" on="0"/>
        <pt x="138" y="41" on="0"/>
        <pt x="168" y="74" on="0"/>
        <pt x="178" y="133" on="0"/>
        <pt x="178" y="180" on="1"/>
        <pt x="178" y="846" on="1"/>
        <pt x="178" y="894" on="0"/>
        <pt x="170" y="952" on="0"/>
        <pt x="140" y="984" on="0"/>
        <pt x="82" y="995" on="0"/>
        <pt x="33" y="995" on="1"/>
        <pt x="33" y="1022" on="1"/>
        <pt x="819" y="1022" on="1"/>
        <pt x="831" y="799" on="1"/>
        <pt x="803" y="799" on="1"/>
        <pt x="790" y="848" on="0"/>
        <pt x="767" y="913" on="0"/>
        <pt x="728" y="951" on="0"/>
        <pt x="661" y="967" on="0"/>
        <pt x="604" y="967" on="1"/>
        <pt x="322" y="967" on="1"/>
        <pt x="322" y="563" on="1"/>
        <pt x="547" y="563" on="1"/>
        <pt x="594" y="563" on="0"/>
        <pt x="651" y="576" on="0"/>
        <pt x="686" y="609" on="0"/>
        <pt x="703" y="666" on="0"/>
        <pt x="709" y="711" on="1"/>
        <pt x="737" y="711" on="1"/>
        <pt x="737" y="354" on="1"/>
        <pt x="709" y="354" on="1"/>
        <pt x="703" y="399" on="0"/>
        <pt x="686" y="457" on="0"/>
        <pt x="652" y="492" on="0"/>
        <pt x="595" y="506" on="0"/>
        <pt x="547" y="506" on="1"/>
        <pt x="322" y="506" on="1"/>
        <pt x="322" y="170" on="1"/>
        <pt x="322" y="142" on="0"/>
        <pt x="325" y="99" on="0"/>
        <pt x="341" y="70" on="0"/>
        <pt x="376" y="55" on="0"/>
        <pt x="408" y="55" on="1"/>
        <pt x="580" y="55" on="1"/>
        <pt x="647" y="55" on="0"/>
        <pt x="733" y="77" on="0"/>
        <pt x="796" y="125" on="0"/>
        <pt x="846" y="202" on="0"/>
        <pt x="877" y="256" on="1"/>
        <pt x="909" y="256" on="1"/>
      </contour>
    </TTGlyph>
    <TTGlyph name="Eacute" xMin="33" yMin="0" xMax="909" yMax="1381">
      <component glyphName="E" x="0" y="0" flags="0x204"/>
      <component glyphName="acute" x="244" y="330" flags="0x4"/>
    </TTGlyph>
    <TTGlyph name="Ecircumflex" xMin="33" yMin="0" xMax="909" yMax="1364">
      <component glyphName="E" x="0" y="0" flags="0x204"/>
      <component glyphName="circumflex" x="229" y="320" flags="0x4"/>
    </TTGlyph>
    <TTGlyph name="Edieresis" xMin="33" yMin="0" xMax="909" yMax="1321">
      <component glyphName="E" x="0" y="0" flags="0x204"/>
      <component glyphName="dieresis" x="229" y="320" flags="0x4"/>
    </TTGlyph>
    <TTGlyph name="Egrave" xMin="33" yMin="0" xMax="909" yMax="1381">
      <component glyphName="E" x="0" y="0" flags="0x204"/>
      <component glyphName="grave" x="177" y="330" flags="0x4"/>
    </TTGlyph>
    <TTGlyph name="Eth" xMin="27" yMin="0" xMax="1055" yMax="1022">
      <contour>
        <pt x="1055" y="519" on="1"/>
        <pt x="1055" y="411" on="0"/>
        <pt x="991" y="222" on="0"/>
        <pt x="853" y="81" on="0"/>
        <pt x="637" y="0" on="0"/>
        <pt x="485" y="0" on="1"/>
        <pt x="27" y="0" on="1"/>
        <pt x="27" y="28" on="1"/>
        <pt x="65" y="28" on="1"/>
        <pt x="132" y="28" on="0"/>
        <pt x="157" y="70" on="1"/>
        <pt x="173" y="93" on="0"/>
        <pt x="173" y="181" on="1"/>
        <pt x="173" y="511" on="1"/>
        <pt x="27" y="511" on="1"/>
        <pt x="27" y="597" on="1"/>
        <pt x="173" y="597" on="1"/>
        <pt x="173" y="842" on="1"/>
        <pt x="173" y="935" on="0"/>
        <pt x="153" y="963" on="1"/>
        <pt x="121" y="995" on="0"/>
        <pt x="65" y="995" on="1"/>
        <pt x="27" y="995" on="1"/>
        <pt x="27" y="1022" on="1"/>
        <pt x="442" y="1022" on="1"/>
        <pt x="681" y="1022" on="0"/>
        <pt x="795" y="968" on="1"/>
        <pt x="852" y="941" on="0"/>
        <pt x="948" y="855" on="0"/>
        <pt x="1017" y="740" on="0"/>
        <pt x="1055" y="599" on="0"/>
      </contour>
      <contour>
        <pt x="886" y="511" on="1"/>
        <pt x="886" y="617" on="0"/>
        <pt x="825" y="786" on="0"/>
        <pt x="716" y="904" on="0"/>
        <pt x="564" y="967" on="0"/>
        <pt x="472" y="967" on="1"/>
        <pt x="439" y="967" on="0"/>
        <pt x="363" y="957" on="0"/>
        <pt x="318" y="945" on="1"/>
        <pt x="318" y="597" on="1"/>
        <pt x="617" y="597" on="1"/>
        <pt x="617" y="511" on="1"/>
        <pt x="318" y="511" on="1"/>
        <pt x="318" y="75" on="1"/>
        <pt x="366" y="65" on="0"/>
        <pt x="446" y="54" on="0"/>
        <pt x="478" y="54" on="1"/>
        <pt x="566" y="53" on="0"/>
        <pt x="715" y="116" on="0"/>
        <pt x="824" y="235" on="0"/>
        <pt x="886" y="405" on="0"/>
      </contour>
    </TTGlyph>
    <TTGlyph name="Euro" xMin="0" yMin="-25" xMax="895" yMax="1044">
      <contour>
        <pt x="895" y="199" on="1"/>
        <pt x="864" y="144" on="0"/>
        <pt x="800" y="60" on="0"/>
        <pt x="722" y="3" on="0"/>
        <pt x="621" y="-25" on="0"/>
        <pt x="553" y="-25" on="1"/>
        <pt x="469" y="-25" on="0"/>
        <pt x="323" y="35" on="0"/>
        <pt x="209" y="142" on="0"/>
        <pt x="131" y="291" on="0"/>
        <pt x="115" y="379" on="1"/>
        <pt x="2" y="379" on="1"/>
        <pt x="33" y="453" on="1"/>
        <pt x="106" y="453" on="1"/>
        <pt x="104" y="464" on="0"/>
        <pt x="104" y="485" on="0"/>
        <pt x="104" y="496" on="1"/>
        <pt x="104" y="510" on="0"/>
        <pt x="106" y="537" on="0"/>
        <pt x="106" y="551" on="1"/>
        <pt x="0" y="551" on="1"/>
        <pt x="31" y="625" on="1"/>
        <pt x="117" y="625" on="1"/>
        <pt x="134" y="715" on="0"/>
        <pt x="213" y="869" on="0"/>
        <pt x="332" y="981" on="0"/>
        <pt x="485" y="1044" on="0"/>
        <pt x="575" y="1044" on="1"/>
        <pt x="638" y="1044" on="0"/>
        <pt x="728" y="1003" on="0"/>
        <pt x="760" y="975" on="1"/>
        <pt x="775" y="974" on="0"/>
        <pt x="798" y="988" on="0"/>
        <pt x="814" y="1009" on="0"/>
        <pt x="825" y="1034" on="0"/>
        <pt x="827" y="1044" on="1"/>
        <pt x="854" y="1044" on="1"/>
        <pt x="872" y="748" on="1"/>
        <pt x="850" y="748" on="1"/>
        <pt x="835" y="797" on="0"/>
        <pt x="784" y="885" on="0"/>
        <pt x="717" y="952" on="0"/>
        <pt x="635" y="991" on="0"/>
        <pt x="588" y="991" on="1"/>
        <pt x="510" y="991" on="0"/>
        <pt x="401" y="931" on="0"/>
        <pt x="330" y="829" on="0"/>
        <pt x="293" y="697" on="0"/>
        <pt x="285" y="625" on="1"/>
        <pt x="766" y="625" on="1"/>
        <pt x="735" y="551" on="1"/>
        <pt x="279" y="551" on="1"/>
        <pt x="279" y="535" on="0"/>
        <pt x="276" y="508" on="0"/>
        <pt x="276" y="494" on="1"/>
        <pt x="276" y="484" on="0"/>
        <pt x="277" y="464" on="0"/>
        <pt x="279" y="453" on="1"/>
        <pt x="709" y="453" on="1"/>
        <pt x="678" y="379" on="1"/>
        <pt x="285" y="379" on="1"/>
        <pt x="295" y="307" on="0"/>
        <pt x="342" y="184" on="0"/>
        <pt x="421" y="94" on="0"/>
        <pt x="534" y="43" on="0"/>
        <pt x="610" y="43" on="1"/>
        <pt x="696" y="43" on="0"/>
        <pt x="819" y="137" on="0"/>
        <pt x="872" y="215" on="1"/>
      </contour>
    </TTGlyph>
    <TTGlyph name="F" xMin="25" yMin="0" xMax="797" yMax="1022">
      <contour>
        <pt x="770" y="799" on="1"/>
        <pt x="755" y="849" on="0"/>
        <pt x="719" y="914" on="0"/>
        <pt x="667" y="952" on="0"/>
        <pt x="594" y="967" on="0"/>
        <pt x="543" y="967" on="1"/>
        <pt x="315" y="967" on="1"/>
        <pt x="315" y="565" on="1"/>
        <pt x="502" y="565" on="1"/>
        <pt x="540" y="565" on="0"/>
        <pt x="587" y="583" on="0"/>
        <pt x="616" y="619" on="0"/>
        <pt x="631" y="671" on="0"/>
        <pt x="635" y="705" on="1"/>
        <pt x="664" y="705" on="1"/>
        <pt x="664" y="358" on="1"/>
        <pt x="635" y="358" on="1"/>
        <pt x="635" y="394" on="0"/>
        <pt x="622" y="448" on="0"/>
        <pt x="591" y="484" on="0"/>
        <pt x="540" y="502" on="0"/>
        <pt x="502" y="502" on="1"/>
        <pt x="315" y="502" on="1"/>
        <pt x="315" y="180" on="1"/>
        <pt x="315" y="133" on="0"/>
        <pt x="324" y="74" on="0"/>
        <pt x="355" y="41" on="0"/>
        <pt x="414" y="29" on="0"/>
        <pt x="463" y="29" on="1"/>
        <pt x="463" y="0" on="1"/>
        <pt x="25" y="0" on="1"/>
        <pt x="25" y="29" on="1"/>
        <pt x="74" y="29" on="0"/>
        <pt x="132" y="42" on="0"/>
        <pt x="162" y="75" on="0"/>
        <pt x="170" y="134" on="0"/>
        <pt x="170" y="180" on="1"/>
        <pt x="170" y="842" on="1"/>
        <pt x="170" y="888" on="0"/>
        <pt x="161" y="947" on="0"/>
        <pt x="131" y="982" on="0"/>
        <pt x="73" y="995" on="0"/>
        <pt x="25" y="995" on="1"/>
        <pt x="25" y="1022" on="1"/>
        <pt x="786" y="1022" on="1"/>
        <pt x="797" y="799" on="1"/>
      </contour>
    </TTGlyph>
    <TTGlyph name="G" xMin="53" yMin="-25" xMax="1094" yMax="1044">
      <contour>
        <pt x="1094" y="530" on="1"/>
        <pt x="1052" y="530" on="0"/>
        <pt x="1006" y="510" on="0"/>
        <pt x="984" y="472" on="0"/>
        <pt x="979" y="416" on="0"/>
        <pt x="979" y="381" on="1"/>
        <pt x="979" y="68" on="1"/>
        <pt x="897" y="20" on="0"/>
        <pt x="714" y="-25" on="0"/>
        <pt x="618" y="-25" on="1"/>
        <pt x="501" y="-25" on="0"/>
        <pt x="295" y="45" on="0"/>
        <pt x="142" y="179" on="0"/>
        <pt x="53" y="372" on="0"/>
        <pt x="53" y="496" on="1"/>
        <pt x="53" y="610" on="0"/>
        <pt x="136" y="810" on="0"/>
        <pt x="282" y="959" on="0"/>
        <pt x="481" y="1044" on="0"/>
        <pt x="596" y="1044" on="1"/>
        <pt x="646" y="1044" on="0"/>
        <pt x="743" y="1029" on="0"/>
        <pt x="791" y="1012" on="1"/>
        <pt x="793" y="1012" on="0"/>
        <pt x="821" y="1002" on="0"/>
        <pt x="854" y="991" on="0"/>
        <pt x="882" y="981" on="0"/>
        <pt x="883" y="981" on="1"/>
        <pt x="894" y="981" on="0"/>
        <pt x="908" y="996" on="0"/>
        <pt x="917" y="1016" on="0"/>
        <pt x="921" y="1037" on="0"/>
        <pt x="922" y="1044" on="1"/>
        <pt x="948" y="1044" on="1"/>
        <pt x="975" y="723" on="1"/>
        <pt x="948" y="723" on="1"/>
        <pt x="928" y="785" on="0"/>
        <pt x="868" y="884" on="0"/>
        <pt x="786" y="955" on="0"/>
        <pt x="678" y="993" on="0"/>
        <pt x="610" y="993" on="1"/>
        <pt x="510" y="993" on="0"/>
        <pt x="366" y="915" on="0"/>
        <pt x="272" y="785" on="0"/>
        <pt x="227" y="617" on="0"/>
        <pt x="227" y="528" on="1"/>
        <pt x="227" y="439" on="0"/>
        <pt x="274" y="261" on="0"/>
        <pt x="371" y="118" on="0"/>
        <pt x="519" y="29" on="0"/>
        <pt x="621" y="29" on="1"/>
        <pt x="676" y="29" on="0"/>
        <pt x="783" y="56" on="0"/>
        <pt x="831" y="84" on="1"/>
        <pt x="831" y="381" on="1"/>
        <pt x="831" y="423" on="0"/>
        <pt x="823" y="479" on="0"/>
        <pt x="795" y="513" on="0"/>
        <pt x="743" y="529" on="0"/>
        <pt x="698" y="530" on="1"/>
        <pt x="698" y="557" on="1"/>
        <pt x="1094" y="557" on="1"/>
      </contour>
    </TTGlyph>
    <TTGlyph name="H" xMin="27" yMin="0" xMax="1083" yMax="1022">
      <contour>
        <pt x="645" y="0" on="1"/>
        <pt x="645" y="29" on="1"/>
        <pt x="693" y="29" on="0"/>
        <pt x="752" y="42" on="0"/>
        <pt x="783" y="75" on="0"/>
        <pt x="793" y="134" on="0"/>
        <pt x="793" y="180" on="1"/>
        <pt x="793" y="494" on="1"/>
        <pt x="315" y="494" on="1"/>
        <pt x="315" y="180" on="1"/>
        <pt x="315" y="133" on="0"/>
        <pt x="325" y="74" on="0"/>
        <pt x="357" y="41" on="0"/>
        <pt x="416" y="29" on="0"/>
        <pt x="465" y="29" on="1"/>
        <pt x="465" y="0" on="1"/>
        <pt x="27" y="0" on="1"/>
        <pt x="27" y="29" on="1"/>
        <pt x="76" y="29" on="0"/>
        <pt x="134" y="41" on="0"/>
        <pt x="164" y="74" on="0"/>
        <pt x="172" y="133" on="0"/>
        <pt x="172" y="180" on="1"/>
        <pt x="172" y="842" on="1"/>
        <pt x="172" y="889" on="0"/>
        <pt x="163" y="948" on="0"/>
        <pt x="133" y="982" on="0"/>
        <pt x="75" y="995" on="0"/>
        <pt x="27" y="995" on="1"/>
        <pt x="27" y="1022" on="1"/>
        <pt x="465" y="1022" on="1"/>
        <pt x="465" y="995" on="1"/>
        <pt x="417" y="995" on="0"/>
        <pt x="359" y="982" on="0"/>
        <pt x="326" y="948" on="0"/>
        <pt x="315" y="889" on="0"/>
        <pt x="315" y="842" on="1"/>
        <pt x="315" y="549" on="1"/>
        <pt x="793" y="549" on="1"/>
        <pt x="793" y="842" on="1"/>
        <pt x="793" y="889" on="0"/>
        <pt x="783" y="948" on="0"/>
        <pt x="752" y="982" on="0"/>
        <pt x="693" y="995" on="0"/>
        <pt x="645" y="995" on="1"/>
        <pt x="645" y="1022" on="1"/>
        <pt x="1083" y="1022" on="1"/>
        <pt x="1083" y="995" on="1"/>
        <pt x="1038" y="995" on="0"/>
        <pt x="981" y="984" on="0"/>
        <pt x="950" y="953" on="0"/>
        <pt x="938" y="898" on="0"/>
        <pt x="938" y="854" on="1"/>
        <pt x="938" y="170" on="1"/>
        <pt x="938" y="124" on="0"/>
        <pt x="950" y="68" on="0"/>
        <pt x="981" y="38" on="0"/>
        <pt x="1038" y="29" on="0"/>
        <pt x="1083" y="29" on="1"/>
        <pt x="1083" y="0" on="1"/>
      </contour>
    </TTGlyph>
    <TTGlyph name="I" xMin="39" yMin="0" xMax="477" yMax="1022">
      <contour>
        <pt x="39" y="0" on="1"/>
        <pt x="39" y="29" on="1"/>
        <pt x="88" y="29" on="0"/>
        <pt x="146" y="42" on="0"/>
        <pt x="176" y="75" on="0"/>
        <pt x="184" y="134" on="0"/>
        <pt x="184" y="180" on="1"/>
        <pt x="184" y="842" on="1"/>
        <pt x="184" y="889" on="0"/>
        <pt x="176" y="948" on="0"/>
        <pt x="146" y="982" on="0"/>
        <pt x="88" y="995" on="0"/>
        <pt x="39" y="995" on="1"/>
        <pt x="39" y="1022" on="1"/>
        <pt x="477" y="1022" on="1"/>
        <pt x="477" y="995" on="1"/>
        <pt x="429" y="995" on="0"/>
        <pt x="371" y="982" on="0"/>
        <pt x="340" y="948" on="0"/>
        <pt x="330" y="889" on="0"/>
        <pt x="330" y="842" on="1"/>
        <pt x="330" y="180" on="1"/>
        <pt x="330" y="134" on="0"/>
        <pt x="339" y="75" on="0"/>
        <pt x="369" y="42" on="0"/>
        <pt x="427" y="29" on="0"/>
        <pt x="477" y="29" on="1"/>
        <pt x="477" y="0" on="1"/>
      </contour>
    </TTGlyph>
    <TTGlyph name="Iacute" xMin="39" yMin="0" xMax="477" yMax="1381">
      <component glyphName="I" x="0" y="0" flags="0x204"/>
      <component glyphName="acute" x="31" y="330" flags="0x4"/>
    </TTGlyph>
    <TTGlyph name="Icircumflex" xMin="16" yMin="0" xMax="499" yMax="1364">
      <component glyphName="I" x="0" y="0" flags="0x204"/>
      <component glyphName="circumflex" x="16" y="320" flags="0x4"/>
    </TTGlyph>
    <TTGlyph name="Idieresis" xMin="16" yMin="0" xMax="477" yMax="1321">
      <component glyphName="I" x="0" y="0" flags="0x204"/>
      <component glyphName="dieresis" x="16" y="320" flags="0x4"/>
    </TTGlyph>
    <TTGlyph name="Igrave" xMin="39" yMin="0" xMax="477" yMax="1381">
      <component glyphName="I" x="0" y="0" flags="0x204"/>
      <component glyphName="grave" x="-35" y="330" flags="0x4"/>
    </TTGlyph>
    <TTGlyph name="J" xMin="33" yMin="-25" xMax="592" yMax="1022">
      <contour>
        <pt x="592" y="995" on="1"/>
        <pt x="543" y="995" on="0"/>
        <pt x="485" y="982" on="0"/>
        <pt x="455" y="948" on="0"/>
        <pt x="446" y="889" on="0"/>
        <pt x="446" y="842" on="1"/>
        <pt x="446" y="342" on="1"/>
        <pt x="446" y="278" on="0"/>
        <pt x="422" y="148" on="0"/>
        <pt x="362" y="42" on="0"/>
        <pt x="261" y="-25" on="0"/>
        <pt x="184" y="-25" on="1"/>
        <pt x="158" y="-25" on="0"/>
        <pt x="104" y="-12" on="0"/>
        <pt x="61" y="17" on="0"/>
        <pt x="33" y="61" on="0"/>
        <pt x="33" y="92" on="1"/>
        <pt x="33" y="170" on="0"/>
        <pt x="109" y="170" on="1"/>
        <pt x="130" y="170" on="0"/>
        <pt x="159" y="149" on="0"/>
        <pt x="181" y="119" on="0"/>
        <pt x="197" y="82" on="0"/>
        <pt x="214" y="52" on="0"/>
        <pt x="233" y="31" on="0"/>
        <pt x="246" y="31" on="1"/>
        <pt x="266" y="31" on="0"/>
        <pt x="288" y="56" on="0"/>
        <pt x="299" y="91" on="0"/>
        <pt x="301" y="129" on="0"/>
        <pt x="301" y="143" on="1"/>
        <pt x="301" y="842" on="1"/>
        <pt x="301" y="888" on="0"/>
        <pt x="292" y="947" on="0"/>
        <pt x="262" y="982" on="0"/>
        <pt x="204" y="995" on="0"/>
        <pt x="154" y="995" on="1"/>
        <pt x="154" y="1022" on="1"/>
        <pt x="592" y="1022" on="1"/>
      </contour>
    </TTGlyph>
    <TTGlyph name="K" xMin="27" yMin="0" xMax="1128" yMax="1022">
      <contour>
        <pt x="641" y="0" on="1"/>
        <pt x="641" y="29" on="1"/>
        <pt x="654" y="29" on="0"/>
        <pt x="684" y="33" on="0"/>
        <pt x="709" y="44" on="0"/>
        <pt x="725" y="64" on="0"/>
        <pt x="725" y="80" on="1"/>
        <pt x="725" y="88" on="0"/>
        <pt x="712" y="111" on="0"/>
        <pt x="693" y="134" on="0"/>
        <pt x="674" y="154" on="0"/>
        <pt x="668" y="160" on="1"/>
        <pt x="360" y="467" on="1"/>
        <pt x="315" y="422" on="1"/>
        <pt x="315" y="180" on="1"/>
        <pt x="315" y="133" on="0"/>
        <pt x="324" y="74" on="0"/>
        <pt x="355" y="41" on="0"/>
        <pt x="413" y="29" on="0"/>
        <pt x="461" y="29" on="1"/>
        <pt x="461" y="0" on="1"/>
        <pt x="27" y="0" on="1"/>
        <pt x="27" y="29" on="1"/>
        <pt x="76" y="29" on="0"/>
        <pt x="133" y="41" on="0"/>
        <pt x="162" y="74" on="0"/>
        <pt x="170" y="133" on="0"/>
        <pt x="170" y="180" on="1"/>
        <pt x="170" y="842" on="1"/>
        <pt x="170" y="888" on="0"/>
        <pt x="162" y="947" on="0"/>
        <pt x="133" y="982" on="0"/>
        <pt x="76" y="995" on="0"/>
        <pt x="27" y="995" on="1"/>
        <pt x="27" y="1022" on="1"/>
        <pt x="461" y="1022" on="1"/>
        <pt x="461" y="995" on="1"/>
        <pt x="414" y="995" on="0"/>
        <pt x="357" y="982" on="0"/>
        <pt x="325" y="948" on="0"/>
        <pt x="315" y="889" on="0"/>
        <pt x="315" y="842" on="1"/>
        <pt x="315" y="520" on="1"/>
        <pt x="334" y="536" on="0"/>
        <pt x="407" y="601" on="0"/>
        <pt x="495" y="683" on="0"/>
        <pt x="587" y="774" on="0"/>
        <pt x="663" y="860" on="0"/>
        <pt x="711" y="931" on="0"/>
        <pt x="711" y="952" on="1"/>
        <pt x="711" y="968" on="0"/>
        <pt x="700" y="986" on="0"/>
        <pt x="677" y="994" on="0"/>
        <pt x="642" y="995" on="0"/>
        <pt x="618" y="995" on="1"/>
        <pt x="618" y="1022" on="1"/>
        <pt x="995" y="1022" on="1"/>
        <pt x="995" y="995" on="1"/>
        <pt x="940" y="995" on="0"/>
        <pt x="832" y="933" on="0"/>
        <pt x="733" y="847" on="0"/>
        <pt x="649" y="754" on="0"/>
        <pt x="618" y="723" on="1"/>
        <pt x="461" y="567" on="1"/>
        <pt x="840" y="193" on="1"/>
        <pt x="874" y="159" on="0"/>
        <pt x="937" y="103" on="0"/>
        <pt x="1004" y="61" on="0"/>
        <pt x="1080" y="34" on="0"/>
        <pt x="1128" y="29" on="1"/>
        <pt x="1128" y="0" on="1"/>
      </contour>
    </TTGlyph>
    <TTGlyph name="L" xMin="29" yMin="0" xMax="911" yMax="1022">
      <contour>
        <pt x="823" y="0" on="1"/>
        <pt x="29" y="0" on="1"/>
        <pt x="29" y="29" on="1"/>
        <pt x="65" y="29" on="0"/>
        <pt x="121" y="38" on="0"/>
        <pt x="158" y="65" on="0"/>
        <pt x="178" y="115" on="0"/>
        <pt x="178" y="156" on="1"/>
        <pt x="178" y="866" on="1"/>
        <pt x="178" y="906" on="0"/>
        <pt x="158" y="956" on="0"/>
        <pt x="121" y="983" on="0"/>
        <pt x="65" y="993" on="0"/>
        <pt x="29" y="993" on="1"/>
        <pt x="29" y="1022" on="1"/>
        <pt x="473" y="1022" on="1"/>
        <pt x="473" y="993" on="1"/>
        <pt x="436" y="993" on="0"/>
        <pt x="380" y="983" on="0"/>
        <pt x="342" y="956" on="0"/>
        <pt x="322" y="906" on="0"/>
        <pt x="322" y="866" on="1"/>
        <pt x="322" y="193" on="1"/>
        <pt x="322" y="155" on="0"/>
        <pt x="334" y="106" on="0"/>
        <pt x="363" y="77" on="0"/>
        <pt x="413" y="66" on="0"/>
        <pt x="451" y="66" on="1"/>
        <pt x="553" y="66" on="1"/>
        <pt x="627" y="66" on="0"/>
        <pt x="727" y="83" on="0"/>
        <pt x="800" y="130" on="0"/>
        <pt x="856" y="215" on="0"/>
        <pt x="885" y="283" on="1"/>
        <pt x="911" y="279" on="1"/>
      </contour>
    </TTGlyph>
    <TTGlyph name="M" xMin="27" yMin="0" xMax="1341" yMax="1022">
      <contour>
        <pt x="905" y="0" on="1"/>
        <pt x="905" y="29" on="1"/>
        <pt x="953" y="29" on="0"/>
        <pt x="1010" y="41" on="0"/>
        <pt x="1041" y="74" on="0"/>
        <pt x="1051" y="132" on="0"/>
        <pt x="1051" y="178" on="1"/>
        <pt x="1051" y="860" on="1"/>
        <pt x="655" y="0" on="1"/>
        <pt x="631" y="0" on="1"/>
        <pt x="236" y="860" on="1"/>
        <pt x="236" y="178" on="1"/>
        <pt x="236" y="131" on="0"/>
        <pt x="246" y="73" on="0"/>
        <pt x="276" y="40" on="0"/>
        <pt x="333" y="29" on="0"/>
        <pt x="381" y="29" on="1"/>
        <pt x="381" y="0" on="1"/>
        <pt x="27" y="0" on="1"/>
        <pt x="27" y="29" on="1"/>
        <pt x="75" y="29" on="0"/>
        <pt x="131" y="41" on="0"/>
        <pt x="161" y="74" on="0"/>
        <pt x="170" y="132" on="0"/>
        <pt x="170" y="178" on="1"/>
        <pt x="170" y="846" on="1"/>
        <pt x="170" y="887" on="0"/>
        <pt x="157" y="944" on="0"/>
        <pt x="125" y="979" on="0"/>
        <pt x="70" y="995" on="0"/>
        <pt x="27" y="995" on="1"/>
        <pt x="27" y="1022" on="1"/>
        <pt x="315" y="1022" on="1"/>
        <pt x="686" y="223" on="1"/>
        <pt x="1051" y="1022" on="1"/>
        <pt x="1341" y="1022" on="1"/>
        <pt x="1341" y="995" on="1"/>
        <pt x="1293" y="995" on="0"/>
        <pt x="1235" y="983" on="0"/>
        <pt x="1205" y="950" on="0"/>
        <pt x="1196" y="892" on="0"/>
        <pt x="1196" y="846" on="1"/>
        <pt x="1196" y="178" on="1"/>
        <pt x="1196" y="131" on="0"/>
        <pt x="1206" y="73" on="0"/>
        <pt x="1236" y="40" on="0"/>
        <pt x="1293" y="29" on="0"/>
        <pt x="1341" y="29" on="1"/>
        <pt x="1341" y="0" on="1"/>
      </contour>
    </TTGlyph>
    <TTGlyph name="N" xMin="8" yMin="-16" xMax="1094" yMax="1022">
      <contour>
        <pt x="1094" y="995" on="1"/>
        <pt x="1046" y="995" on="0"/>
        <pt x="988" y="983" on="0"/>
        <pt x="957" y="950" on="0"/>
        <pt x="948" y="892" on="0"/>
        <pt x="948" y="846" on="1"/>
        <pt x="948" y="-16" on="1"/>
        <pt x="922" y="-16" on="1"/>
        <pt x="246" y="807" on="1"/>
        <pt x="246" y="178" on="1"/>
        <pt x="246" y="130" on="0"/>
        <pt x="255" y="72" on="0"/>
        <pt x="285" y="40" on="0"/>
        <pt x="343" y="29" on="0"/>
        <pt x="391" y="29" on="1"/>
        <pt x="391" y="0" on="1"/>
        <pt x="35" y="0" on="1"/>
        <pt x="35" y="29" on="1"/>
        <pt x="83" y="29" on="0"/>
        <pt x="140" y="41" on="0"/>
        <pt x="170" y="74" on="0"/>
        <pt x="180" y="132" on="0"/>
        <pt x="180" y="178" on="1"/>
        <pt x="180" y="889" on="1"/>
        <pt x="161" y="915" on="0"/>
        <pt x="128" y="954" on="0"/>
        <pt x="91" y="981" on="0"/>
        <pt x="43" y="995" on="0"/>
        <pt x="8" y="995" on="1"/>
        <pt x="8" y="1022" on="1"/>
        <pt x="258" y="1022" on="1"/>
        <pt x="883" y="256" on="1"/>
        <pt x="883" y="846" on="1"/>
        <pt x="883" y="892" on="0"/>
        <pt x="873" y="950" on="0"/>
        <pt x="842" y="983" on="0"/>
        <pt x="785" y="995" on="0"/>
        <pt x="737" y="995" on="1"/>
        <pt x="737" y="1022" on="1"/>
        <pt x="1094" y="1022" on="1"/>
      </contour>
    </TTGlyph>
    <TTGlyph name="Ntilde" xMin="8" yMin="-16" xMax="1094" yMax="1343">
      <component glyphName="N" x="0" y="0" flags="0x204"/>
      <component glyphName="tilde" x="294" y="330" flags="0x4"/>
    </TTGlyph>
    <TTGlyph name="O" xMin="53" yMin="-25" xMax="1055" yMax="1044">
      <contour>
        <pt x="1055" y="516" on="1"/>
        <pt x="1055" y="407" on="0"/>
        <pt x="983" y="211" on="0"/>
        <pt x="852" y="62" on="0"/>
        <pt x="667" y="-25" on="0"/>
        <pt x="553" y="-25" on="1"/>
        <pt x="439" y="-25" on="0"/>
        <pt x="254" y="61" on="0"/>
        <pt x="123" y="208" on="0"/>
        <pt x="53" y="404" on="0"/>
        <pt x="53" y="514" on="1"/>
        <pt x="53" y="625" on="0"/>
        <pt x="128" y="818" on="0"/>
        <pt x="264" y="961" on="0"/>
        <pt x="452" y="1044" on="0"/>
        <pt x="565" y="1044" on="1"/>
        <pt x="676" y="1044" on="0"/>
        <pt x="856" y="959" on="0"/>
        <pt x="985" y="814" on="0"/>
        <pt x="1055" y="622" on="0"/>
      </contour>
      <contour>
        <pt x="883" y="506" on="1"/>
        <pt x="883" y="562" on="0"/>
        <pt x="872" y="678" on="0"/>
        <pt x="844" y="786" on="0"/>
        <pt x="796" y="880" on="0"/>
        <pt x="722" y="950" on="0"/>
        <pt x="619" y="991" on="0"/>
        <pt x="549" y="991" on="1"/>
        <pt x="485" y="991" on="0"/>
        <pt x="388" y="950" on="0"/>
        <pt x="316" y="880" on="0"/>
        <pt x="268" y="786" on="0"/>
        <pt x="239" y="681" on="0"/>
        <pt x="227" y="570" on="0"/>
        <pt x="227" y="518" on="1"/>
        <pt x="227" y="467" on="0"/>
        <pt x="239" y="355" on="0"/>
        <pt x="269" y="247" on="0"/>
        <pt x="317" y="149" on="0"/>
        <pt x="389" y="75" on="0"/>
        <pt x="487" y="31" on="0"/>
        <pt x="551" y="31" on="1"/>
        <pt x="618" y="31" on="0"/>
        <pt x="719" y="71" on="0"/>
        <pt x="793" y="140" on="0"/>
        <pt x="842" y="233" on="0"/>
        <pt x="871" y="338" on="0"/>
        <pt x="883" y="451" on="0"/>
      </contour>
    </TTGlyph>
    <TTGlyph name="OE" xMin="57" yMin="-12" xMax="1329" yMax="1032">
      <contour>
        <pt x="1247" y="0" on="1"/>
        <pt x="754" y="0" on="1"/>
        <pt x="695" y="0" on="0"/>
        <pt x="577" y="-12" on="0"/>
        <pt x="518" y="-12" on="1"/>
        <pt x="409" y="-12" on="0"/>
        <pt x="238" y="75" on="0"/>
        <pt x="119" y="219" on="0"/>
        <pt x="57" y="408" on="0"/>
        <pt x="57" y="510" on="1"/>
        <pt x="57" y="618" on="0"/>
        <pt x="121" y="809" on="0"/>
        <pt x="243" y="950" on="0"/>
        <pt x="421" y="1032" on="0"/>
        <pt x="535" y="1032" on="1"/>
        <pt x="537" y="1032" on="1"/>
        <pt x="545" y="1032" on="1"/>
        <pt x="573" y="1030" on="1"/>
        <pt x="682" y="1026" on="1"/>
        <pt x="821" y="1020" on="0"/>
        <pt x="1099" y="1022" on="0"/>
        <pt x="1239" y="1022" on="1"/>
        <pt x="1247" y="799" on="1"/>
        <pt x="1223" y="799" on="1"/>
        <pt x="1212" y="853" on="0"/>
        <pt x="1191" y="919" on="0"/>
        <pt x="1152" y="955" on="0"/>
        <pt x="1084" y="967" on="0"/>
        <pt x="1026" y="967" on="1"/>
        <pt x="834" y="967" on="1"/>
        <pt x="834" y="565" on="1"/>
        <pt x="969" y="565" on="1"/>
        <pt x="1049" y="565" on="0"/>
        <pt x="1128" y="628" on="0"/>
        <pt x="1128" y="711" on="1"/>
        <pt x="1159" y="711" on="1"/>
        <pt x="1159" y="354" on="1"/>
        <pt x="1128" y="354" on="1"/>
        <pt x="1125" y="399" on="0"/>
        <pt x="1109" y="457" on="0"/>
        <pt x="1073" y="492" on="0"/>
        <pt x="1014" y="506" on="0"/>
        <pt x="969" y="506" on="1"/>
        <pt x="834" y="506" on="1"/>
        <pt x="834" y="170" on="1"/>
        <pt x="834" y="119" on="0"/>
        <pt x="852" y="70" on="0"/>
        <pt x="892" y="54" on="0"/>
        <pt x="955" y="57" on="0"/>
        <pt x="1001" y="57" on="1"/>
        <pt x="1063" y="57" on="0"/>
        <pt x="1152" y="76" on="0"/>
        <pt x="1221" y="123" on="0"/>
        <pt x="1274" y="199" on="0"/>
        <pt x="1298" y="256" on="1"/>
        <pt x="1329" y="256" on="1"/>
      </contour>
      <contour>
        <pt x="688" y="786" on="1"/>
        <pt x="688" y="830" on="0"/>
        <pt x="680" y="902" on="0"/>
        <pt x="650" y="954" on="0"/>
        <pt x="590" y="983" on="0"/>
        <pt x="537" y="983" on="1"/>
        <pt x="474" y="983" on="0"/>
        <pt x="379" y="940" on="0"/>
        <pt x="311" y="866" on="0"/>
        <pt x="266" y="769" on="0"/>
        <pt x="240" y="663" on="0"/>
        <pt x="229" y="554" on="0"/>
        <pt x="229" y="504" on="1"/>
        <pt x="229" y="455" on="0"/>
        <pt x="241" y="349" on="0"/>
        <pt x="268" y="246" on="0"/>
        <pt x="314" y="153" on="0"/>
        <pt x="382" y="83" on="0"/>
        <pt x="475" y="41" on="0"/>
        <pt x="535" y="41" on="1"/>
        <pt x="592" y="41" on="0"/>
        <pt x="655" y="74" on="0"/>
        <pt x="683" y="131" on="0"/>
        <pt x="688" y="210" on="0"/>
        <pt x="688" y="256" on="1"/>
      </contour>
    </TTGlyph>
    <TTGlyph name="Oacute" xMin="53" yMin="-25" xMax="1055" yMax="1381">
      <component glyphName="O" x="0" y="0" flags="0x204"/>
      <component glyphName="acute" x="327" y="330" flags="0x4"/>
    </TTGlyph>
    <TTGlyph name="Ocircumflex" xMin="53" yMin="-25" xMax="1055" yMax="1364">
      <component glyphName="O" x="0" y="0" flags="0x204"/>
      <component glyphName="circumflex" x="312" y="320" flags="0x4"/>
    </TTGlyph>
    <TTGlyph name="Odieresis" xMin="53" yMin="-25" xMax="1055" yMax="1321">
      <component glyphName="O" x="0" y="0" flags="0x204"/>
      <component glyphName="dieresis" x="312" y="320" flags="0x4"/>
    </TTGlyph>
    <TTGlyph name="Ograve" xMin="53" yMin="-25" xMax="1055" yMax="1381">
      <component glyphName="O" x="0" y="0" flags="0x204"/>
      <component glyphName="grave" x="260" y="330" flags="0x4"/>
    </TTGlyph>
    <TTGlyph name="Oslash" xMin="55" yMin="-36" xMax="1056" yMax="1055">
      <contour>
        <pt x="1056" y="519" on="1"/>
        <pt x="1056" y="401" on="0"/>
        <pt x="975" y="202" on="0"/>
        <pt x="838" y="57" on="0"/>
        <pt x="659" y="-24" on="0"/>
        <pt x="561" y="-24" on="1"/>
        <pt x="524" y="-24" on="0"/>
        <pt x="442" y="-11" on="0"/>
        <pt x="361" y="16" on="0"/>
        <pt x="283" y="57" on="0"/>
        <pt x="248" y="85" on="1"/>
        <pt x="152" y="-36" on="1"/>
        <pt x="107" y="0" on="1"/>
        <pt x="207" y="123" on="1"/>
        <pt x="55" y="278" on="0"/>
        <pt x="55" y="523" on="1"/>
        <pt x="55" y="633" on="0"/>
        <pt x="133" y="824" on="0"/>
        <pt x="269" y="965" on="0"/>
        <pt x="453" y="1046" on="0"/>
        <pt x="559" y="1046" on="1"/>
        <pt x="730" y="1046" on="0"/>
        <pt x="865" y="933" on="1"/>
        <pt x="964" y="1055" on="1"/>
        <pt x="1009" y="1022" on="1"/>
        <pt x="906" y="897" on="1"/>
        <pt x="947" y="854" on="0"/>
        <pt x="1004" y="769" on="0"/>
        <pt x="1040" y="677" on="0"/>
        <pt x="1056" y="577" on="0"/>
      </contour>
      <contour>
        <pt x="802" y="856" on="1"/>
        <pt x="715" y="992" on="0"/>
        <pt x="554" y="992" on="1"/>
        <pt x="460" y="992" on="0"/>
        <pt x="334" y="907" on="0"/>
        <pt x="258" y="772" on="0"/>
        <pt x="227" y="607" on="0"/>
        <pt x="227" y="526" on="1"/>
        <pt x="227" y="352" on="0"/>
        <pt x="282" y="218" on="1"/>
      </contour>
      <contour>
        <pt x="883" y="495" on="1"/>
        <pt x="883" y="534" on="0"/>
        <pt x="880" y="603" on="0"/>
        <pt x="869" y="675" on="0"/>
        <pt x="848" y="754" on="0"/>
        <pt x="829" y="802" on="1"/>
        <pt x="313" y="163" on="1"/>
        <pt x="365" y="89" on="0"/>
        <pt x="481" y="31" on="0"/>
        <pt x="550" y="31" on="1"/>
        <pt x="620" y="31" on="0"/>
        <pt x="741" y="82" on="0"/>
        <pt x="831" y="193" on="0"/>
        <pt x="883" y="369" on="0"/>
      </contour>
    </TTGlyph>
    <TTGlyph name="Otilde" xMin="53" yMin="-25" xMax="1055" yMax="1343">
      <component glyphName="O" x="0" y="0" flags="0x204"/>
      <component glyphName="tilde" x="297" y="330" flags="0x4"/>
    </TTGlyph>
    <TTGlyph name="P" xMin="27" yMin="0" xMax="805" yMax="1022">
      <contour>
        <pt x="805" y="739" on="1"/>
        <pt x="805" y="656" on="0"/>
        <pt x="748" y="547" on="0"/>
        <pt x="650" y="483" on="0"/>
        <pt x="519" y="457" on="0"/>
        <pt x="446" y="457" on="1"/>
        <pt x="414" y="457" on="0"/>
        <pt x="351" y="459" on="0"/>
        <pt x="315" y="465" on="1"/>
        <pt x="315" y="180" on="1"/>
        <pt x="315" y="133" on="0"/>
        <pt x="326" y="74" on="0"/>
        <pt x="357" y="41" on="0"/>
        <pt x="415" y="29" on="0"/>
        <pt x="463" y="29" on="1"/>
        <pt x="463" y="0" on="1"/>
        <pt x="27" y="0" on="1"/>
        <pt x="27" y="29" on="1"/>
        <pt x="75" y="29" on="0"/>
        <pt x="132" y="41" on="0"/>
        <pt x="162" y="74" on="0"/>
        <pt x="170" y="133" on="0"/>
        <pt x="170" y="180" on="1"/>
        <pt x="170" y="842" on="1"/>
        <pt x="170" y="890" on="0"/>
        <pt x="162" y="949" on="0"/>
        <pt x="133" y="983" on="0"/>
        <pt x="76" y="995" on="0"/>
        <pt x="27" y="995" on="1"/>
        <pt x="27" y="1022" on="1"/>
        <pt x="399" y="1022" on="1"/>
        <pt x="468" y="1022" on="0"/>
        <pt x="613" y="998" on="0"/>
        <pt x="730" y="935" on="0"/>
        <pt x="805" y="825" on="0"/>
      </contour>
      <contour>
        <pt x="633" y="725" on="1"/>
        <pt x="633" y="774" on="0"/>
        <pt x="604" y="861" on="0"/>
        <pt x="549" y="925" on="0"/>
        <pt x="468" y="963" on="0"/>
        <pt x="416" y="963" on="1"/>
        <pt x="391" y="963" on="0"/>
        <pt x="340" y="953" on="0"/>
        <pt x="315" y="948" on="1"/>
        <pt x="315" y="516" on="1"/>
        <pt x="346" y="511" on="0"/>
        <pt x="408" y="506" on="0"/>
        <pt x="440" y="506" on="1"/>
        <pt x="485" y="506" on="0"/>
        <pt x="556" y="543" on="0"/>
        <pt x="606" y="604" on="0"/>
        <pt x="633" y="683" on="0"/>
      </contour>
    </TTGlyph>
    <TTGlyph name="Q" xMin="53" yMin="-303" xMax="1055" yMax="1044">
      <contour>
        <pt x="1055" y="510" on="1"/>
        <pt x="1055" y="419" on="0"/>
        <pt x="1003" y="254" on="0"/>
        <pt x="906" y="118" on="0"/>
        <pt x="767" y="17" on="0"/>
        <pt x="680" y="-10" on="1"/>
        <pt x="711" y="-63" on="0"/>
        <pt x="787" y="-156" on="0"/>
        <pt x="878" y="-228" on="0"/>
        <pt x="987" y="-273" on="0"/>
        <pt x="1051" y="-279" on="1"/>
        <pt x="1051" y="-303" on="1"/>
        <pt x="969" y="-299" on="0"/>
        <pt x="792" y="-252" on="0"/>
        <pt x="624" y="-175" on="0"/>
        <pt x="475" y="-71" on="0"/>
        <pt x="420" y="-10" on="1"/>
        <pt x="234" y="55" on="0"/>
        <pt x="53" y="316" on="0"/>
        <pt x="53" y="512" on="1"/>
        <pt x="53" y="623" on="0"/>
        <pt x="127" y="817" on="0"/>
        <pt x="262" y="961" on="0"/>
        <pt x="449" y="1044" on="0"/>
        <pt x="563" y="1044" on="1"/>
        <pt x="675" y="1044" on="0"/>
        <pt x="857" y="958" on="0"/>
        <pt x="985" y="811" on="0"/>
        <pt x="1055" y="618" on="0"/>
      </contour>
      <contour>
        <pt x="883" y="492" on="1"/>
        <pt x="883" y="546" on="0"/>
        <pt x="871" y="661" on="0"/>
        <pt x="842" y="772" on="0"/>
        <pt x="793" y="871" on="0"/>
        <pt x="720" y="945" on="0"/>
        <pt x="620" y="989" on="0"/>
        <pt x="553" y="989" on="1"/>
        <pt x="488" y="989" on="0"/>
        <pt x="388" y="948" on="0"/>
        <pt x="316" y="877" on="0"/>
        <pt x="268" y="783" on="0"/>
        <pt x="239" y="677" on="0"/>
        <pt x="227" y="565" on="0"/>
        <pt x="227" y="512" on="1"/>
        <pt x="227" y="460" on="0"/>
        <pt x="239" y="348" on="0"/>
        <pt x="269" y="241" on="0"/>
        <pt x="318" y="145" on="0"/>
        <pt x="390" y="72" on="0"/>
        <pt x="489" y="29" on="0"/>
        <pt x="553" y="29" on="1"/>
        <pt x="651" y="29" on="0"/>
        <pt x="778" y="113" on="0"/>
        <pt x="853" y="246" on="0"/>
        <pt x="883" y="411" on="0"/>
      </contour>
    </TTGlyph>
    <TTGlyph name="R" xMin="27" yMin="0" xMax="1044" yMax="1022">
      <contour>
        <pt x="770" y="0" on="1"/>
        <pt x="424" y="477" on="1"/>
        <pt x="407" y="475" on="0"/>
        <pt x="370" y="475" on="0"/>
        <pt x="351" y="475" on="1"/>
        <pt x="342" y="475" on="0"/>
        <pt x="324" y="476" on="0"/>
        <pt x="315" y="477" on="1"/>
        <pt x="315" y="180" on="1"/>
        <pt x="315" y="133" on="0"/>
        <pt x="326" y="74" on="0"/>
        <pt x="358" y="41" on="0"/>
        <pt x="417" y="29" on="0"/>
        <pt x="465" y="29" on="1"/>
        <pt x="465" y="0" on="1"/>
        <pt x="27" y="0" on="1"/>
        <pt x="27" y="29" on="1"/>
        <pt x="76" y="29" on="0"/>
        <pt x="134" y="41" on="0"/>
        <pt x="164" y="74" on="0"/>
        <pt x="172" y="133" on="0"/>
        <pt x="172" y="180" on="1"/>
        <pt x="172" y="842" on="1"/>
        <pt x="172" y="890" on="0"/>
        <pt x="164" y="949" on="0"/>
        <pt x="134" y="983" on="0"/>
        <pt x="76" y="995" on="0"/>
        <pt x="27" y="995" on="1"/>
        <pt x="27" y="1022" on="1"/>
        <pt x="412" y="1022" on="1"/>
        <pt x="457" y="1022" on="0"/>
        <pt x="552" y="1016" on="0"/>
        <pt x="643" y="996" on="0"/>
        <pt x="725" y="961" on="0"/>
        <pt x="787" y="902" on="0"/>
        <pt x="823" y="818" on="0"/>
        <pt x="823" y="760" on="1"/>
        <pt x="823" y="702" on="0"/>
        <pt x="785" y="613" on="0"/>
        <pt x="718" y="550" on="0"/>
        <pt x="626" y="509" on="0"/>
        <pt x="573" y="498" on="1"/>
        <pt x="782" y="203" on="1"/>
        <pt x="810" y="164" on="0"/>
        <pt x="862" y="104" on="0"/>
        <pt x="922" y="60" on="0"/>
        <pt x="995" y="34" on="0"/>
        <pt x="1044" y="29" on="1"/>
        <pt x="1044" y="0" on="1"/>
      </contour>
      <contour>
        <pt x="655" y="748" on="1"/>
        <pt x="655" y="797" on="0"/>
        <pt x="623" y="877" on="0"/>
        <pt x="564" y="934" on="0"/>
        <pt x="483" y="965" on="0"/>
        <pt x="434" y="965" on="1"/>
        <pt x="405" y="965" on="0"/>
        <pt x="346" y="957" on="0"/>
        <pt x="315" y="952" on="1"/>
        <pt x="315" y="526" on="1"/>
        <pt x="358" y="526" on="1"/>
        <pt x="413" y="526" on="0"/>
        <pt x="519" y="548" on="0"/>
        <pt x="603" y="599" on="0"/>
        <pt x="655" y="684" on="0"/>
      </contour>
    </TTGlyph>
    <TTGlyph name="S" xMin="98" yMin="-25" xMax="776" yMax="1044">
      <contour>
        <pt x="776" y="262" on="1"/>
        <pt x="776" y="195" on="0"/>
        <pt x="722" y="89" on="0"/>
        <pt x="633" y="15" on="0"/>
        <pt x="517" y="-25" on="0"/>
        <pt x="455" y="-25" on="1"/>
        <pt x="414" y="-25" on="0"/>
        <pt x="332" y="-6" on="0"/>
        <pt x="259" y="16" on="0"/>
        <pt x="199" y="35" on="0"/>
        <pt x="180" y="35" on="1"/>
        <pt x="168" y="35" on="0"/>
        <pt x="151" y="24" on="0"/>
        <pt x="140" y="6" on="0"/>
        <pt x="135" y="-15" on="0"/>
        <pt x="133" y="-25" on="1"/>
        <pt x="106" y="-25" on="1"/>
        <pt x="106" y="328" on="1"/>
        <pt x="133" y="328" on="1"/>
        <pt x="141" y="263" on="0"/>
        <pt x="187" y="155" on="0"/>
        <pt x="263" y="78" on="0"/>
        <pt x="370" y="35" on="0"/>
        <pt x="438" y="35" on="1"/>
        <pt x="475" y="35" on="0"/>
        <pt x="548" y="56" on="0"/>
        <pt x="605" y="98" on="0"/>
        <pt x="641" y="161" on="0"/>
        <pt x="641" y="203" on="1"/>
        <pt x="641" y="247" on="0"/>
        <pt x="594" y="318" on="0"/>
        <pt x="518" y="379" on="0"/>
        <pt x="420" y="434" on="0"/>
        <pt x="319" y="490" on="0"/>
        <pt x="221" y="552" on="0"/>
        <pt x="145" y="627" on="0"/>
        <pt x="98" y="718" on="0"/>
        <pt x="98" y="776" on="1"/>
        <pt x="98" y="839" on="0"/>
        <pt x="147" y="939" on="0"/>
        <pt x="229" y="1008" on="0"/>
        <pt x="336" y="1044" on="0"/>
        <pt x="395" y="1044" on="1"/>
        <pt x="430" y="1044" on="0"/>
        <pt x="499" y="1026" on="0"/>
        <pt x="562" y="1005" on="0"/>
        <pt x="614" y="987" on="0"/>
        <pt x="631" y="987" on="1"/>
        <pt x="643" y="987" on="0"/>
        <pt x="659" y="999" on="0"/>
        <pt x="671" y="1016" on="0"/>
        <pt x="678" y="1036" on="0"/>
        <pt x="680" y="1044" on="1"/>
        <pt x="709" y="1044" on="1"/>
        <pt x="709" y="692" on="1"/>
        <pt x="680" y="692" on="1"/>
        <pt x="675" y="752" on="0"/>
        <pt x="633" y="859" on="0"/>
        <pt x="562" y="938" on="0"/>
        <pt x="462" y="985" on="0"/>
        <pt x="397" y="985" on="1"/>
        <pt x="363" y="985" on="0"/>
        <pt x="299" y="963" on="0"/>
        <pt x="248" y="922" on="0"/>
        <pt x="217" y="865" on="0"/>
        <pt x="217" y="829" on="1"/>
        <pt x="217" y="787" on="0"/>
        <pt x="265" y="719" on="0"/>
        <pt x="344" y="661" on="0"/>
        <pt x="444" y="608" on="0"/>
        <pt x="549" y="553" on="0"/>
        <pt x="649" y="491" on="0"/>
        <pt x="728" y="415" on="0"/>
        <pt x="776" y="322" on="0"/>
      </contour>
    </TTGlyph>
    <TTGlyph name="Scaron" xMin="98" yMin="-25" xMax="776" yMax="1375">
      <component glyphName="S" x="0" y="0" flags="0x204"/>
      <component glyphName="caron" x="195" y="330" flags="0x4"/>
    </TTGlyph>
    <TTGlyph name="T" xMin="37" yMin="0" xMax="905" yMax="1022">
      <contour>
        <pt x="872" y="782" on="1"/>
        <pt x="863" y="869" on="0"/>
        <pt x="775" y="958" on="0"/>
        <pt x="684" y="958" on="1"/>
        <pt x="541" y="958" on="1"/>
        <pt x="541" y="178" on="1"/>
        <pt x="541" y="131" on="0"/>
        <pt x="549" y="73" on="0"/>
        <pt x="579" y="40" on="0"/>
        <pt x="636" y="29" on="0"/>
        <pt x="684" y="29" on="1"/>
        <pt x="684" y="0" on="1"/>
        <pt x="252" y="0" on="1"/>
        <pt x="252" y="29" on="1"/>
        <pt x="300" y="29" on="0"/>
        <pt x="356" y="41" on="0"/>
        <pt x="386" y="74" on="0"/>
        <pt x="395" y="132" on="0"/>
        <pt x="395" y="178" on="1"/>
        <pt x="395" y="958" on="1"/>
        <pt x="272" y="958" on="1"/>
        <pt x="224" y="958" on="0"/>
        <pt x="152" y="941" on="0"/>
        <pt x="103" y="901" on="0"/>
        <pt x="76" y="833" on="0"/>
        <pt x="72" y="782" on="1"/>
        <pt x="37" y="782" on="1"/>
        <pt x="47" y="1022" on="1"/>
        <pt x="895" y="1022" on="1"/>
        <pt x="905" y="782" on="1"/>
      </contour>
    </TTGlyph>
    <TTGlyph name="Thorn" xMin="28" yMin="0" xMax="801" yMax="1022">
      <contour>
        <pt x="801" y="513" on="1"/>
        <pt x="801" y="456" on="0"/>
        <pt x="756" y="358" on="0"/>
        <pt x="719" y="321" on="1"/>
        <pt x="699" y="301" on="0"/>
        <pt x="653" y="268" on="0"/>
        <pt x="577" y="244" on="0"/>
        <pt x="460" y="230" on="0"/>
        <pt x="370" y="230" on="1"/>
        <pt x="316" y="230" on="1"/>
        <pt x="316" y="184" on="1"/>
        <pt x="316" y="89" on="0"/>
        <pt x="343" y="57" on="1"/>
        <pt x="369" y="28" on="0"/>
        <pt x="432" y="28" on="1"/>
        <pt x="464" y="28" on="1"/>
        <pt x="464" y="0" on="1"/>
        <pt x="28" y="0" on="1"/>
        <pt x="28" y="28" on="1"/>
        <pt x="55" y="28" on="1"/>
        <pt x="127" y="28" on="0"/>
        <pt x="156" y="70" on="1"/>
        <pt x="171" y="90" on="0"/>
        <pt x="171" y="181" on="1"/>
        <pt x="171" y="836" on="1"/>
        <pt x="171" y="924" on="0"/>
        <pt x="162" y="940" on="1"/>
        <pt x="155" y="963" on="0"/>
        <pt x="99" y="995" on="0"/>
        <pt x="57" y="995" on="1"/>
        <pt x="28" y="995" on="1"/>
        <pt x="28" y="1022" on="1"/>
        <pt x="464" y="1022" on="1"/>
        <pt x="464" y="995" on="1"/>
        <pt x="432" y="995" on="1"/>
        <pt x="420" y="995" on="0"/>
        <pt x="389" y="989" on="0"/>
        <pt x="359" y="976" on="0"/>
        <pt x="335" y="955" on="0"/>
        <pt x="330" y="940" on="1"/>
        <pt x="326" y="928" on="0"/>
        <pt x="320" y="907" on="0"/>
        <pt x="317" y="886" on="0"/>
        <pt x="316" y="859" on="0"/>
        <pt x="316" y="841" on="1"/>
        <pt x="316" y="791" on="1"/>
        <pt x="373" y="791" on="1"/>
        <pt x="441" y="791" on="0"/>
        <pt x="535" y="785" on="0"/>
        <pt x="604" y="771" on="0"/>
        <pt x="654" y="749" on="0"/>
        <pt x="678" y="733" on="1"/>
        <pt x="730" y="697" on="0"/>
        <pt x="801" y="588" on="0"/>
      </contour>
      <contour>
        <pt x="625" y="511" on="1"/>
        <pt x="625" y="566" on="0"/>
        <pt x="582" y="659" on="0"/>
        <pt x="540" y="689" on="1"/>
        <pt x="525" y="700" on="0"/>
        <pt x="502" y="716" on="0"/>
        <pt x="464" y="727" on="0"/>
        <pt x="403" y="733" on="0"/>
        <pt x="352" y="733" on="1"/>
        <pt x="316" y="733" on="1"/>
        <pt x="316" y="282" on="1"/>
        <pt x="350" y="282" on="1"/>
        <pt x="425" y="282" on="0"/>
        <pt x="530" y="317" on="0"/>
        <pt x="596" y="379" on="0"/>
        <pt x="625" y="463" on="0"/>
      </contour>
    </TTGlyph>
    <TTGlyph name="U" xMin="23" yMin="-25" xMax="1100" yMax="1022">
      <contour>
        <pt x="1100" y="995" on="1"/>
        <pt x="1054" y="995" on="0"/>
        <pt x="996" y="979" on="0"/>
        <pt x="964" y="941" on="0"/>
        <pt x="952" y="880" on="0"/>
        <pt x="952" y="836" on="1"/>
        <pt x="952" y="420" on="1"/>
        <pt x="952" y="315" on="0"/>
        <pt x="913" y="150" on="0"/>
        <pt x="822" y="36" on="0"/>
        <pt x="670" y="-25" on="0"/>
        <pt x="557" y="-25" on="1"/>
        <pt x="432" y="-25" on="0"/>
        <pt x="275" y="37" on="0"/>
        <pt x="187" y="156" on="0"/>
        <pt x="156" y="329" on="0"/>
        <pt x="156" y="440" on="1"/>
        <pt x="156" y="842" on="1"/>
        <pt x="156" y="884" on="0"/>
        <pt x="148" y="942" on="0"/>
        <pt x="121" y="979" on="0"/>
        <pt x="68" y="995" on="0"/>
        <pt x="23" y="995" on="1"/>
        <pt x="23" y="1022" on="1"/>
        <pt x="434" y="1022" on="1"/>
        <pt x="434" y="995" on="1"/>
        <pt x="390" y="995" on="0"/>
        <pt x="338" y="979" on="0"/>
        <pt x="310" y="942" on="0"/>
        <pt x="301" y="884" on="0"/>
        <pt x="301" y="842" on="1"/>
        <pt x="301" y="395" on="1"/>
        <pt x="301" y="324" on="0"/>
        <pt x="320" y="195" on="0"/>
        <pt x="377" y="98" on="0"/>
        <pt x="482" y="41" on="0"/>
        <pt x="567" y="41" on="1"/>
        <pt x="636" y="41" on="0"/>
        <pt x="762" y="85" on="0"/>
        <pt x="813" y="133" on="1"/>
        <pt x="838" y="156" on="0"/>
        <pt x="866" y="231" on="0"/>
        <pt x="880" y="314" on="0"/>
        <pt x="883" y="397" on="0"/>
        <pt x="883" y="428" on="1"/>
        <pt x="883" y="842" on="1"/>
        <pt x="883" y="890" on="0"/>
        <pt x="874" y="949" on="0"/>
        <pt x="843" y="983" on="0"/>
        <pt x="785" y="995" on="0"/>
        <pt x="737" y="995" on="1"/>
        <pt x="737" y="1022" on="1"/>
        <pt x="1100" y="1022" on="1"/>
      </contour>
    </TTGlyph>
    <TTGlyph name="Uacute" xMin="23" yMin="-25" xMax="1100" yMax="1381">
      <component glyphName="U" x="0" y="0" flags="0x204"/>
      <component glyphName="acute" x="334" y="330" flags="0x4"/>
    </TTGlyph>
    <TTGlyph name="Ucircumflex" xMin="23" yMin="-25" xMax="1100" yMax="1364">
      <component glyphName="U" x="0" y="0" flags="0x204"/>
      <component glyphName="circumflex" x="319" y="320" flags="0x4"/>
    </TTGlyph>
    <TTGlyph name="Udieresis" xMin="23" yMin="-25" xMax="1100" yMax="1321">
      <component glyphName="U" x="0" y="0" flags="0x204"/>
      <component glyphName="dieresis" x="319" y="320" flags="0x4"/>
    </TTGlyph>
    <TTGlyph name="Ugrave" xMin="23" yMin="-25" xMax="1100" yMax="1381">
      <component glyphName="U" x="0" y="0" flags="0x204"/>
      <component glyphName="grave" x="267" y="330" flags="0x4"/>
    </TTGlyph>
    <TTGlyph name="V" xMin="14" yMin="-25" xMax="1096" yMax="1022">
      <contour>
        <pt x="1096" y="995" on="1"/>
        <pt x="1064" y="990" on="0"/>
        <pt x="1016" y="964" on="0"/>
        <pt x="980" y="926" on="0"/>
        <pt x="954" y="877" on="0"/>
        <pt x="942" y="848" on="1"/>
        <pt x="586" y="-25" on="1"/>
        <pt x="559" y="-25" on="1"/>
        <pt x="176" y="858" on="1"/>
        <pt x="162" y="890" on="0"/>
        <pt x="136" y="938" on="0"/>
        <pt x="101" y="972" on="0"/>
        <pt x="51" y="991" on="0"/>
        <pt x="14" y="995" on="1"/>
        <pt x="14" y="1022" on="1"/>
        <pt x="430" y="1022" on="1"/>
        <pt x="430" y="995" on="1"/>
        <pt x="414" y="994" on="0"/>
        <pt x="375" y="988" on="0"/>
        <pt x="340" y="973" on="0"/>
        <pt x="317" y="946" on="0"/>
        <pt x="317" y="924" on="1"/>
        <pt x="317" y="896" on="0"/>
        <pt x="337" y="842" on="0"/>
        <pt x="352" y="807" on="1"/>
        <pt x="612" y="209" on="1"/>
        <pt x="854" y="803" on="1"/>
        <pt x="859" y="814" on="0"/>
        <pt x="871" y="844" on="0"/>
        <pt x="881" y="877" on="0"/>
        <pt x="889" y="908" on="0"/>
        <pt x="889" y="920" on="1"/>
        <pt x="889" y="940" on="0"/>
        <pt x="866" y="966" on="0"/>
        <pt x="833" y="983" on="0"/>
        <pt x="795" y="992" on="0"/>
        <pt x="780" y="995" on="1"/>
        <pt x="780" y="1022" on="1"/>
        <pt x="1096" y="1022" on="1"/>
      </contour>
    </TTGlyph>
    <TTGlyph name="W" xMin="20" yMin="-25" xMax="1444" yMax="1022">
      <contour>
        <pt x="1444" y="995" on="1"/>
        <pt x="1404" y="995" on="0"/>
        <pt x="1352" y="958" on="0"/>
        <pt x="1318" y="901" on="0"/>
        <pt x="1295" y="833" on="0"/>
        <pt x="1284" y="803" on="1"/>
        <pt x="1001" y="-25" on="1"/>
        <pt x="969" y="-25" on="1"/>
        <pt x="737" y="629" on="1"/>
        <pt x="506" y="-25" on="1"/>
        <pt x="477" y="-25" on="1"/>
        <pt x="176" y="825" on="1"/>
        <pt x="164" y="858" on="0"/>
        <pt x="143" y="919" on="0"/>
        <pt x="112" y="967" on="0"/>
        <pt x="62" y="995" on="0"/>
        <pt x="20" y="995" on="1"/>
        <pt x="20" y="1022" on="1"/>
        <pt x="397" y="1022" on="1"/>
        <pt x="397" y="995" on="1"/>
        <pt x="382" y="995" on="0"/>
        <pt x="347" y="991" on="0"/>
        <pt x="318" y="979" on="0"/>
        <pt x="299" y="955" on="0"/>
        <pt x="299" y="934" on="1"/>
        <pt x="299" y="922" on="0"/>
        <pt x="307" y="890" on="0"/>
        <pt x="317" y="856" on="0"/>
        <pt x="328" y="824" on="0"/>
        <pt x="332" y="813" on="1"/>
        <pt x="532" y="238" on="1"/>
        <pt x="702" y="727" on="1"/>
        <pt x="691" y="764" on="0"/>
        <pt x="663" y="857" on="0"/>
        <pt x="619" y="939" on="0"/>
        <pt x="554" y="995" on="0"/>
        <pt x="506" y="995" on="1"/>
        <pt x="506" y="1022" on="1"/>
        <pt x="905" y="1022" on="1"/>
        <pt x="905" y="995" on="1"/>
        <pt x="886" y="995" on="0"/>
        <pt x="847" y="993" on="0"/>
        <pt x="816" y="980" on="0"/>
        <pt x="797" y="953" on="0"/>
        <pt x="797" y="928" on="1"/>
        <pt x="797" y="897" on="0"/>
        <pt x="818" y="822" on="0"/>
        <pt x="829" y="795" on="1"/>
        <pt x="1026" y="238" on="1"/>
        <pt x="1221" y="803" on="1"/>
        <pt x="1225" y="815" on="0"/>
        <pt x="1235" y="847" on="0"/>
        <pt x="1244" y="881" on="0"/>
        <pt x="1251" y="914" on="0"/>
        <pt x="1251" y="926" on="1"/>
        <pt x="1251" y="948" on="0"/>
        <pt x="1230" y="975" on="0"/>
        <pt x="1197" y="990" on="0"/>
        <pt x="1159" y="995" on="0"/>
        <pt x="1141" y="995" on="1"/>
        <pt x="1141" y="1022" on="1"/>
        <pt x="1444" y="1022" on="1"/>
      </contour>
    </TTGlyph>
    <TTGlyph name="X" xMin="10" yMin="0" xMax="1096" yMax="1022">
      <contour>
        <pt x="657" y="0" on="1"/>
        <pt x="657" y="29" on="1"/>
        <pt x="671" y="29" on="0"/>
        <pt x="707" y="32" on="0"/>
        <pt x="738" y="44" on="0"/>
        <pt x="760" y="67" on="0"/>
        <pt x="760" y="86" on="1"/>
        <pt x="760" y="98" on="0"/>
        <pt x="728" y="159" on="0"/>
        <pt x="680" y="238" on="0"/>
        <pt x="623" y="324" on="0"/>
        <pt x="574" y="398" on="0"/>
        <pt x="539" y="448" on="0"/>
        <pt x="537" y="451" on="1"/>
        <pt x="322" y="176" on="1"/>
        <pt x="316" y="168" on="0"/>
        <pt x="300" y="146" on="0"/>
        <pt x="286" y="122" on="0"/>
        <pt x="276" y="97" on="0"/>
        <pt x="276" y="86" on="1"/>
        <pt x="276" y="68" on="0"/>
        <pt x="296" y="45" on="0"/>
        <pt x="326" y="33" on="0"/>
        <pt x="360" y="29" on="0"/>
        <pt x="375" y="29" on="1"/>
        <pt x="375" y="0" on="1"/>
        <pt x="10" y="0" on="1"/>
        <pt x="10" y="29" on="1"/>
        <pt x="49" y="31" on="0"/>
        <pt x="121" y="62" on="0"/>
        <pt x="185" y="110" on="0"/>
        <pt x="240" y="169" on="0"/>
        <pt x="262" y="197" on="1"/>
        <pt x="506" y="504" on="1"/>
        <pt x="303" y="799" on="1"/>
        <pt x="276" y="838" on="0"/>
        <pt x="223" y="907" on="0"/>
        <pt x="160" y="959" on="0"/>
        <pt x="84" y="992" on="0"/>
        <pt x="33" y="995" on="1"/>
        <pt x="33" y="1022" on="1"/>
        <pt x="506" y="1022" on="1"/>
        <pt x="506" y="995" on="1"/>
        <pt x="492" y="994" on="0"/>
        <pt x="455" y="989" on="0"/>
        <pt x="422" y="977" on="0"/>
        <pt x="399" y="954" on="0"/>
        <pt x="399" y="936" on="1"/>
        <pt x="399" y="922" on="0"/>
        <pt x="425" y="869" on="0"/>
        <pt x="464" y="804" on="0"/>
        <pt x="511" y="734" on="0"/>
        <pt x="554" y="673" on="0"/>
        <pt x="587" y="629" on="0"/>
        <pt x="592" y="621" on="1"/>
        <pt x="596" y="627" on="0"/>
        <pt x="634" y="670" on="0"/>
        <pt x="685" y="732" on="0"/>
        <pt x="742" y="804" on="0"/>
        <pt x="790" y="871" on="0"/>
        <pt x="821" y="926" on="0"/>
        <pt x="821" y="940" on="1"/>
        <pt x="821" y="958" on="0"/>
        <pt x="796" y="980" on="0"/>
        <pt x="760" y="991" on="0"/>
        <pt x="723" y="994" on="0"/>
        <pt x="711" y="995" on="1"/>
        <pt x="711" y="1022" on="1"/>
        <pt x="1073" y="1022" on="1"/>
        <pt x="1073" y="995" on="1"/>
        <pt x="1028" y="992" on="0"/>
        <pt x="961" y="963" on="0"/>
        <pt x="907" y="917" on="0"/>
        <pt x="860" y="858" on="0"/>
        <pt x="834" y="825" on="1"/>
        <pt x="629" y="567" on="1"/>
        <pt x="850" y="240" on="1"/>
        <pt x="873" y="205" on="0"/>
        <pt x="921" y="133" on="0"/>
        <pt x="979" y="73" on="0"/>
        <pt x="1050" y="32" on="0"/>
        <pt x="1096" y="29" on="1"/>
        <pt x="1096" y="0" on="1"/>
      </contour>
    </TTGlyph>
    <TTGlyph name="Y" xMin="14" yMin="0" xMax="1094" yMax="1022">
      <contour>
        <pt x="1094" y="995" on="1"/>
        <pt x="1049" y="995" on="0"/>
        <pt x="985" y="965" on="0"/>
        <pt x="934" y="917" on="0"/>
        <pt x="893" y="854" on="0"/>
        <pt x="872" y="821" on="1"/>
        <pt x="625" y="434" on="1"/>
        <pt x="625" y="178" on="1"/>
        <pt x="625" y="131" on="0"/>
        <pt x="635" y="73" on="0"/>
        <pt x="665" y="40" on="0"/>
        <pt x="722" y="29" on="0"/>
        <pt x="770" y="29" on="1"/>
        <pt x="770" y="0" on="1"/>
        <pt x="336" y="0" on="1"/>
        <pt x="336" y="29" on="1"/>
        <pt x="384" y="29" on="0"/>
        <pt x="440" y="41" on="0"/>
        <pt x="469" y="74" on="0"/>
        <pt x="477" y="132" on="0"/>
        <pt x="477" y="178" on="1"/>
        <pt x="477" y="420" on="1"/>
        <pt x="199" y="848" on="1"/>
        <pt x="183" y="873" on="0"/>
        <pt x="146" y="925" on="0"/>
        <pt x="102" y="968" on="0"/>
        <pt x="48" y="995" on="0"/>
        <pt x="14" y="995" on="1"/>
        <pt x="14" y="1022" on="1"/>
        <pt x="451" y="1022" on="1"/>
        <pt x="451" y="995" on="1"/>
        <pt x="435" y="995" on="0"/>
        <pt x="394" y="991" on="0"/>
        <pt x="358" y="978" on="0"/>
        <pt x="334" y="951" on="0"/>
        <pt x="334" y="928" on="1"/>
        <pt x="334" y="914" on="0"/>
        <pt x="371" y="840" on="0"/>
        <pt x="428" y="747" on="0"/>
        <pt x="494" y="646" on="0"/>
        <pt x="551" y="561" on="0"/>
        <pt x="591" y="503" on="0"/>
        <pt x="592" y="500" on="1"/>
        <pt x="795" y="815" on="1"/>
        <pt x="801" y="825" on="0"/>
        <pt x="817" y="852" on="0"/>
        <pt x="830" y="881" on="0"/>
        <pt x="840" y="910" on="0"/>
        <pt x="840" y="922" on="1"/>
        <pt x="840" y="943" on="0"/>
        <pt x="820" y="971" on="0"/>
        <pt x="790" y="988" on="0"/>
        <pt x="754" y="995" on="0"/>
        <pt x="737" y="995" on="1"/>
        <pt x="737" y="1022" on="1"/>
        <pt x="1094" y="1022" on="1"/>
      </contour>
    </TTGlyph>
    <TTGlyph name="Yacute" xMin="14" yMin="0" xMax="1094" yMax="1381">
      <component glyphName="Y" x="0" y="0" flags="0x204"/>
      <component glyphName="acute" x="327" y="330" flags="0x4"/>
    </TTGlyph>
    <TTGlyph name="Ydieresis" xMin="14" yMin="0" xMax="1094" yMax="1321">
      <component glyphName="Y" x="0" y="0" flags="0x204"/>
      <component glyphName="dieresis" x="312" y="320" flags="0x4"/>
    </TTGlyph>
    <TTGlyph name="Z" xMin="20" yMin="0" xMax="899" yMax="1022">
      <contour>
        <pt x="852" y="0" on="1"/>
        <pt x="20" y="0" on="1"/>
        <pt x="20" y="29" on="1"/>
        <pt x="674" y="963" on="1"/>
        <pt x="348" y="963" on="1"/>
        <pt x="291" y="963" on="0"/>
        <pt x="218" y="942" on="0"/>
        <pt x="173" y="896" on="0"/>
        <pt x="148" y="820" on="0"/>
        <pt x="139" y="766" on="1"/>
        <pt x="111" y="766" on="1"/>
        <pt x="133" y="1022" on="1"/>
        <pt x="889" y="1022" on="1"/>
        <pt x="217" y="61" on="1"/>
        <pt x="635" y="61" on="1"/>
        <pt x="694" y="61" on="0"/>
        <pt x="772" y="90" on="0"/>
        <pt x="825" y="145" on="0"/>
        <pt x="861" y="224" on="0"/>
        <pt x="877" y="274" on="1"/>
        <pt x="899" y="270" on="1"/>
      </contour>
    </TTGlyph>
    <TTGlyph name="Zcaron" xMin="20" yMin="0" xMax="899" yMax="1375">
      <component glyphName="Z" x="0" y="0" flags="0x204"/>
      <component glyphName="caron" x="269" y="330" flags="0x4"/>
    </TTGlyph>
    <TTGlyph name="_bar" xMin="-186" yMin="-20" xMax="190" yMax="88">
      <contour>
        <pt x="190" y="48" on="1"/>
        <pt x="153" y="-20" on="1"/>
        <pt x="-186" y="20" on="1"/>
        <pt x="-157" y="88" on="1"/>
      </contour>
    </TTGlyph>
    <TTGlyph name="_damma" xMin="-239" yMin="-180" xMax="95" yMax="241">
      <contour>
        <pt x="58" y="-68" on="1"/>
        <pt x="-3" y="-31" on="1"/>
        <pt x="-12" y="-41" on="0"/>
        <pt x="-29" y="-58" on="0"/>
        <pt x="-48" y="-75" on="0"/>
        <pt x="-70" y="-94" on="0"/>
        <pt x="-85" y="-105" on="1"/>
        <pt x="-102" y="-118" on="0"/>
        <pt x="-145" y="-144" on="0"/>
        <pt x="-165" y="-155" on="1"/>
        <pt x="-188" y="-168" on="0"/>
        <pt x="-212" y="-180" on="1"/>
        <pt x="-239" y="-133" on="1"/>
        <pt x="-219" y="-122" on="0"/>
        <pt x="-200" y="-111" on="1"/>
        <pt x="-183" y="-101" on="0"/>
        <pt x="-149" y="-80" on="0"/>
        <pt x="-137" y="-72" on="1"/>
        <pt x="-124" y="-63" on="0"/>
        <pt x="-94" y="-37" on="0"/>
        <pt x="-80" y="-25" on="1"/>
        <pt x="-64" y="-11" on="0"/>
        <pt x="-49" y="4" on="1"/>
        <pt x="-66" y="18" on="0"/>
        <pt x="-80" y="32" on="1"/>
        <pt x="-92" y="44" on="0"/>
        <pt x="-114" y="70" on="0"/>
        <pt x="-116" y="80" on="1"/>
        <pt x="-119" y="95" on="0"/>
        <pt x="-119" y="108" on="1"/>
        <pt x="-119" y="144" on="0"/>
        <pt x="-87" y="195" on="0"/>
        <pt x="-44" y="226" on="0"/>
        <pt x="2" y="241" on="0"/>
        <pt x="16" y="241" on="1"/>
        <pt x="51" y="241" on="0"/>
        <pt x="95" y="201" on="0"/>
        <pt x="95" y="168" on="1"/>
        <pt x="95" y="142" on="0"/>
        <pt x="80" y="94" on="0"/>
        <pt x="61" y="55" on="0"/>
        <pt x="40" y="27" on="0"/>
        <pt x="34" y="21" on="1"/>
        <pt x="93" y="-17" on="1"/>
      </contour>
      <contour>
        <pt x="-57" y="114" on="1"/>
        <pt x="-57" y="95" on="0"/>
        <pt x="-26" y="62" on="0"/>
        <pt x="-12" y="53" on="1"/>
        <pt x="7" y="69" on="0"/>
        <pt x="29" y="115" on="0"/>
        <pt x="29" y="141" on="1"/>
        <pt x="29" y="161" on="0"/>
        <pt x="9" y="182" on="0"/>
        <pt x="-5" y="182" on="1"/>
        <pt x="-11" y="182" on="0"/>
        <pt x="-28" y="174" on="0"/>
        <pt x="-45" y="158" on="0"/>
        <pt x="-57" y="132" on="0"/>
      </contour>
    </TTGlyph>
    <TTGlyph name="_dot1" xMin="-104" yMin="-104" xMax="104" yMax="104">
      <contour>
        <pt x="0" y="-104" on="1"/>
        <pt x="-104" y="0" on="1"/>
        <pt x="0" y="104" on="1"/>
        <pt x="104" y="0" on="1"/>
      </contour>
    </TTGlyph>
    <TTGlyph name="_dot1_hat" xMin="-244" yMin="-104" xMax="272" yMax="360">
      <contour>
        <pt x="0" y="-104" on="1"/>
        <pt x="-104" y="0" on="1"/>
        <pt x="0" y="104" on="1"/>
        <pt x="104" y="0" on="1"/>
      </contour>
      <contour>
        <pt x="-244" y="32" on="1"/>
        <pt x="-236" y="49" on="0"/>
        <pt x="-203" y="112" on="0"/>
        <pt x="-160" y="185" on="0"/>
        <pt x="-110" y="260" on="0"/>
        <pt x="-58" y="321" on="0"/>
        <pt x="-8" y="360" on="0"/>
        <pt x="14" y="360" on="1"/>
        <pt x="42" y="360" on="0"/>
        <pt x="95" y="329" on="0"/>
        <pt x="146" y="280" on="0"/>
        <pt x="192" y="218" on="0"/>
        <pt x="231" y="154" on="0"/>
        <pt x="262" y="95" on="0"/>
        <pt x="272" y="73" on="1"/>
        <pt x="198" y="20" on="1"/>
        <pt x="185" y="44" on="0"/>
        <pt x="142" y="117" on="0"/>
        <pt x="88" y="187" on="0"/>
        <pt x="26" y="237" on="0"/>
        <pt x="-6" y="237" on="1"/>
        <pt x="-35" y="237" on="0"/>
        <pt x="-100" y="186" on="0"/>
        <pt x="-159" y="117" on="0"/>
        <pt x="-208" y="45" on="0"/>
        <pt x="-221" y="24" on="1"/>
      </contour>
    </TTGlyph>
    <TTGlyph name="_dot1_smallV" xMin="-159" yMin="-104" xMax="160" yMax="405">
      <contour>
        <pt x="104" y="0" on="1"/>
        <pt x="0" y="104" on="1"/>
        <pt x="-104" y="0" on="1"/>
        <pt x="0" y="-104" on="1"/>
      </contour>
      <contour>
        <pt x="-138" y="405" on="1"/>
        <pt x="-119" y="399" on="0"/>
        <pt x="-65" y="358" on="0"/>
        <pt x="-45" y="330" on="1"/>
        <pt x="-28" y="307" on="0"/>
        <pt x="-1" y="261" on="0"/>
        <pt x="6" y="235" on="1"/>
        <pt x="14" y="253" on="0"/>
        <pt x="26" y="281" on="0"/>
        <pt x="40" y="305" on="0"/>
        <pt x="58" y="328" on="0"/>
        <pt x="71" y="342" on="1"/>
        <pt x="82" y="354" on="0"/>
        <pt x="108" y="377" on="0"/>
        <pt x="133" y="395" on="0"/>
        <pt x="154" y="405" on="0"/>
        <pt x="160" y="405" on="1"/>
        <pt x="160" y="398" on="0"/>
        <pt x="159" y="391" on="1"/>
        <pt x="158" y="385" on="0"/>
        <pt x="156" y="372" on="0"/>
        <pt x="152" y="367" on="1"/>
        <pt x="132" y="359" on="0"/>
        <pt x="86" y="314" on="0"/>
        <pt x="70" y="288" on="1"/>
        <pt x="64" y="278" on="0"/>
        <pt x="48" y="248" on="0"/>
        <pt x="32" y="214" on="0"/>
        <pt x="18" y="178" on="0"/>
        <pt x="14" y="163" on="1"/>
        <pt x="11" y="152" on="0"/>
        <pt x="-7" y="154" on="0"/>
        <pt x="-10" y="162" on="1"/>
        <pt x="-26" y="200" on="0"/>
        <pt x="-61" y="261" on="0"/>
        <pt x="-78" y="285" on="1"/>
        <pt x="-98" y="314" on="0"/>
        <pt x="-140" y="341" on="0"/>
        <pt x="-159" y="348" on="1"/>
        <pt x="-155" y="365" on="0"/>
        <pt x="-151" y="377" on="1"/>
        <pt x="-148" y="388" on="0"/>
        <pt x="-141" y="405" on="0"/>
      </contour>
    </TTGlyph>
    <TTGlyph name="_dot1_tah" xMin="-205" yMin="-104" xMax="207" yMax="565">
      <contour>
        <pt x="0" y="-104" on="1"/>
        <pt x="-104" y="0" on="1"/>
        <pt x="0" y="104" on="1"/>
        <pt x="104" y="0" on="1"/>
      </contour>
      <contour>
        <pt x="-82" y="162" on="1"/>
        <pt x="-122" y="162" on="0"/>
        <pt x="-185" y="201" on="0"/>
        <pt x="-205" y="236" on="1"/>
        <pt x="-88" y="225" on="1"/>
        <pt x="-37" y="272" on="1"/>
        <pt x="-37" y="463" on="1"/>
        <pt x="-46" y="471" on="0"/>
        <pt x="-55" y="485" on="0"/>
        <pt x="-55" y="496" on="1"/>
        <pt x="-55" y="501" on="0"/>
        <pt x="-44" y="523" on="0"/>
        <pt x="-30" y="547" on="0"/>
        <pt x="-16" y="565" on="0"/>
        <pt x="-13" y="565" on="1"/>
        <pt x="-11" y="565" on="0"/>
        <pt x="-11" y="561" on="1"/>
        <pt x="-11" y="556" on="0"/>
        <pt x="-14" y="543" on="0"/>
        <pt x="-14" y="541" on="1"/>
        <pt x="-14" y="525" on="0"/>
        <pt x="5" y="502" on="0"/>
        <pt x="20" y="500" on="1"/>
        <pt x="0" y="441" on="1"/>
        <pt x="-10" y="441" on="1"/>
        <pt x="-10" y="291" on="1"/>
        <pt x="0" y="299" on="0"/>
        <pt x="38" y="326" on="0"/>
        <pt x="80" y="352" on="0"/>
        <pt x="119" y="371" on="0"/>
        <pt x="131" y="371" on="1"/>
        <pt x="142" y="371" on="0"/>
        <pt x="168" y="363" on="0"/>
        <pt x="191" y="348" on="0"/>
        <pt x="207" y="327" on="0"/>
        <pt x="207" y="313" on="1"/>
        <pt x="207" y="271" on="0"/>
        <pt x="147" y="213" on="0"/>
        <pt x="58" y="177" on="0"/>
        <pt x="-42" y="162" on="0"/>
      </contour>
      <contour>
        <pt x="94" y="307" on="1"/>
        <pt x="84" y="307" on="0"/>
        <pt x="41" y="291" on="0"/>
        <pt x="-3" y="267" on="0"/>
        <pt x="-37" y="240" on="0"/>
        <pt x="-37" y="229" on="1"/>
        <pt x="-37" y="226" on="0"/>
        <pt x="-22" y="225" on="0"/>
        <pt x="-20" y="225" on="1"/>
        <pt x="-11" y="225" on="0"/>
        <pt x="46" y="231" on="0"/>
        <pt x="108" y="243" on="0"/>
        <pt x="156" y="261" on="0"/>
        <pt x="156" y="272" on="1"/>
        <pt x="156" y="283" on="0"/>
        <pt x="143" y="297" on="0"/>
        <pt x="123" y="304" on="0"/>
        <pt x="102" y="307" on="0"/>
      </contour>
    </TTGlyph>
    <TTGlyph name="_dot2h" xMin="-212" yMin="-104" xMax="212" yMax="104">
      <contour>
        <pt x="105" y="-104" on="1"/>
        <pt x="1" y="0" on="1"/>
        <pt x="105" y="104" on="1"/>
        <pt x="212" y="0" on="1"/>
      </contour>
      <contour>
        <pt x="-105" y="-104" on="1"/>
        <pt x="-212" y="0" on="1"/>
        <pt x="-105" y="104" on="1"/>
        <pt x="-1" y="0" on="1"/>
      </contour>
    </TTGlyph>
    <TTGlyph name="_dot2h_tah" xMin="-212" yMin="-104" xMax="212" yMax="565">
      <contour>
        <pt x="-105" y="-104" on="1"/>
        <pt x="-212" y="0" on="1"/>
        <pt x="-105" y="104" on="1"/>
        <pt x="-1" y="0" on="1"/>
      </contour>
      <contour>
        <pt x="105" y="-104" on="1"/>
        <pt x="1" y="0" on="1"/>
        <pt x="105" y="104" on="1"/>
        <pt x="212" y="0" on="1"/>
      </contour>
      <contour>
        <pt x="-82" y="162" on="1"/>
        <pt x="-122" y="162" on="0"/>
        <pt x="-185" y="201" on="0"/>
        <pt x="-205" y="236" on="1"/>
        <pt x="-88" y="225" on="1"/>
        <pt x="-37" y="272" on="1"/>
        <pt x="-37" y="463" on="1"/>
        <pt x="-46" y="471" on="0"/>
        <pt x="-55" y="485" on="0"/>
        <pt x="-55" y="496" on="1"/>
        <pt x="-55" y="501" on="0"/>
        <pt x="-44" y="523" on="0"/>
        <pt x="-30" y="547" on="0"/>
        <pt x="-16" y="565" on="0"/>
        <pt x="-13" y="565" on="1"/>
        <pt x="-11" y="565" on="0"/>
        <pt x="-11" y="561" on="1"/>
        <pt x="-11" y="556" on="0"/>
        <pt x="-14" y="543" on="0"/>
        <pt x="-14" y="541" on="1"/>
        <pt x="-14" y="525" on="0"/>
        <pt x="5" y="502" on="0"/>
        <pt x="20" y="500" on="1"/>
        <pt x="0" y="441" on="1"/>
        <pt x="-10" y="441" on="1"/>
        <pt x="-10" y="291" on="1"/>
        <pt x="0" y="299" on="0"/>
        <pt x="38" y="326" on="0"/>
        <pt x="80" y="352" on="0"/>
        <pt x="119" y="371" on="0"/>
        <pt x="131" y="371" on="1"/>
        <pt x="142" y="371" on="0"/>
        <pt x="168" y="363" on="0"/>
        <pt x="191" y="348" on="0"/>
        <pt x="207" y="327" on="0"/>
        <pt x="207" y="313" on="1"/>
        <pt x="207" y="271" on="0"/>
        <pt x="147" y="213" on="0"/>
        <pt x="58" y="177" on="0"/>
        <pt x="-42" y="162" on="0"/>
      </contour>
      <contour>
        <pt x="94" y="307" on="1"/>
        <pt x="84" y="307" on="0"/>
        <pt x="41" y="291" on="0"/>
        <pt x="-3" y="267" on="0"/>
        <pt x="-37" y="240" on="0"/>
        <pt x="-37" y="229" on="1"/>
        <pt x="-37" y="226" on="0"/>
        <pt x="-22" y="225" on="0"/>
        <pt x="-20" y="225" on="1"/>
        <pt x="-11" y="225" on="0"/>
        <pt x="46" y="231" on="0"/>
        <pt x="108" y="243" on="0"/>
        <pt x="156" y="261" on="0"/>
        <pt x="156" y="272" on="1"/>
        <pt x="156" y="283" on="0"/>
        <pt x="143" y="297" on="0"/>
        <pt x="123" y="304" on="0"/>
        <pt x="102" y="307" on="0"/>
      </contour>
    </TTGlyph>
    <TTGlyph name="_dot2v" xMin="-104" yMin="-212" xMax="104" yMax="212">
      <contour>
        <pt x="0" y="-212" on="1"/>
        <pt x="-104" y="-105" on="1"/>
        <pt x="0" y="-1" on="1"/>
        <pt x="104" y="-105" on="1"/>
      </contour>
      <contour>
        <pt x="0" y="1" on="1"/>
        <pt x="-104" y="105" on="1"/>
        <pt x="0" y="212" on="1"/>
        <pt x="104" y="105" on="1"/>
      </contour>
    </TTGlyph>
    <TTGlyph name="_dot3d" xMin="-212" yMin="-211" xMax="212" yMax="211">
      <contour>
        <pt x="105" y="0" on="1"/>
        <pt x="1" y="104" on="1"/>
        <pt x="105" y="211" on="1"/>
        <pt x="212" y="104" on="1"/>
      </contour>
      <contour>
        <pt x="-105" y="0" on="1"/>
        <pt x="-212" y="104" on="1"/>
        <pt x="-105" y="211" on="1"/>
        <pt x="-1" y="104" on="1"/>
      </contour>
      <contour>
        <pt x="0" y="-211" on="1"/>
        <pt x="-104" y="-104" on="1"/>
        <pt x="0" y="0" on="1"/>
        <pt x="104" y="-104" on="1"/>
      </contour>
    </TTGlyph>
    <TTGlyph name="_dot3h" xMin="-316" yMin="-104" xMax="319" yMax="104">
      <contour>
        <pt x="-209" y="-104" on="1"/>
        <pt x="-316" y="0" on="1"/>
        <pt x="-209" y="104" on="1"/>
        <pt x="-105" y="0" on="1"/>
      </contour>
      <contour>
        <pt x="0" y="-104" on="1"/>
        <pt x="-104" y="0" on="1"/>
        <pt x="0" y="104" on="1"/>
        <pt x="107" y="0" on="1"/>
      </contour>
      <contour>
        <pt x="212" y="-104" on="1"/>
        <pt x="108" y="0" on="1"/>
        <pt x="212" y="104" on="1"/>
        <pt x="319" y="0" on="1"/>
      </contour>
    </TTGlyph>
    <TTGlyph name="_dot3u" xMin="-212" yMin="-211" xMax="212" yMax="211">
      <contour>
        <pt x="105" y="-211" on="1"/>
        <pt x="1" y="-104" on="1"/>
        <pt x="105" y="0" on="1"/>
        <pt x="212" y="-104" on="1"/>
      </contour>
      <contour>
        <pt x="-105" y="-211" on="1"/>
        <pt x="-212" y="-104" on="1"/>
        <pt x="-105" y="0" on="1"/>
        <pt x="-1" y="-104" on="1"/>
      </contour>
      <contour>
        <pt x="0" y="0" on="1"/>
        <pt x="-104" y="104" on="1"/>
        <pt x="0" y="211" on="1"/>
        <pt x="104" y="104" on="1"/>
      </contour>
    </TTGlyph>
    <TTGlyph name="_dot3u_tah" xMin="-212" yMin="-211" xMax="212" yMax="685">
      <contour>
        <pt x="0" y="0" on="1"/>
        <pt x="-104" y="104" on="1"/>
        <pt x="0" y="211" on="1"/>
        <pt x="104" y="104" on="1"/>
      </contour>
      <contour>
        <pt x="-105" y="-211" on="1"/>
        <pt x="-212" y="-104" on="1"/>
        <pt x="-105" y="0" on="1"/>
        <pt x="-1" y="-104" on="1"/>
      </contour>
      <contour>
        <pt x="105" y="-211" on="1"/>
        <pt x="1" y="-104" on="1"/>
        <pt x="105" y="0" on="1"/>
        <pt x="212" y="-104" on="1"/>
      </contour>
      <contour>
        <pt x="-82" y="282" on="1"/>
        <pt x="-122" y="282" on="0"/>
        <pt x="-185" y="321" on="0"/>
        <pt x="-205" y="356" on="1"/>
        <pt x="-88" y="345" on="1"/>
        <pt x="-37" y="392" on="1"/>
        <pt x="-37" y="583" on="1"/>
        <pt x="-46" y="591" on="0"/>
        <pt x="-55" y="605" on="0"/>
        <pt x="-55" y="616" on="1"/>
        <pt x="-55" y="621" on="0"/>
        <pt x="-44" y="643" on="0"/>
        <pt x="-30" y="667" on="0"/>
        <pt x="-16" y="685" on="0"/>
        <pt x="-13" y="685" on="1"/>
        <pt x="-11" y="685" on="0"/>
        <pt x="-11" y="681" on="1"/>
        <pt x="-11" y="676" on="0"/>
        <pt x="-14" y="663" on="0"/>
        <pt x="-14" y="661" on="1"/>
        <pt x="-14" y="645" on="0"/>
        <pt x="5" y="622" on="0"/>
        <pt x="20" y="620" on="1"/>
        <pt x="0" y="561" on="1"/>
        <pt x="-10" y="561" on="1"/>
        <pt x="-10" y="411" on="1"/>
        <pt x="0" y="419" on="0"/>
        <pt x="38" y="446" on="0"/>
        <pt x="80" y="472" on="0"/>
        <pt x="119" y="491" on="0"/>
        <pt x="131" y="491" on="1"/>
        <pt x="142" y="491" on="0"/>
        <pt x="168" y="483" on="0"/>
        <pt x="191" y="468" on="0"/>
        <pt x="207" y="447" on="0"/>
        <pt x="207" y="433" on="1"/>
        <pt x="207" y="391" on="0"/>
        <pt x="147" y="333" on="0"/>
        <pt x="58" y="297" on="0"/>
        <pt x="-42" y="282" on="0"/>
      </contour>
      <contour>
        <pt x="94" y="427" on="1"/>
        <pt x="84" y="427" on="0"/>
        <pt x="41" y="411" on="0"/>
        <pt x="-3" y="387" on="0"/>
        <pt x="-37" y="360" on="0"/>
        <pt x="-37" y="349" on="1"/>
        <pt x="-37" y="346" on="0"/>
        <pt x="-22" y="345" on="0"/>
        <pt x="-20" y="345" on="1"/>
        <pt x="-11" y="345" on="0"/>
        <pt x="46" y="351" on="0"/>
        <pt x="108" y="363" on="0"/>
        <pt x="156" y="381" on="0"/>
        <pt x="156" y="392" on="1"/>
        <pt x="156" y="403" on="0"/>
        <pt x="143" y="417" on="0"/>
        <pt x="123" y="424" on="0"/>
        <pt x="102" y="427" on="0"/>
      </contour>
    </TTGlyph>
    <TTGlyph name="_dot4" xMin="-212" yMin="-212" xMax="212" yMax="212">
      <contour>
        <pt x="105" y="-212" on="1"/>
        <pt x="1" y="-105" on="1"/>
        <pt x="105" y="-1" on="1"/>
        <pt x="212" y="-105" on="1"/>
      </contour>
      <contour>
        <pt x="-105" y="-212" on="1"/>
        <pt x="-212" y="-105" on="1"/>
        <pt x="-105" y="-1" on="1"/>
        <pt x="-1" y="-105" on="1"/>
      </contour>
      <contour>
        <pt x="105" y="1" on="1"/>
        <pt x="1" y="105" on="1"/>
        <pt x="105" y="212" on="1"/>
        <pt x="212" y="105" on="1"/>
      </contour>
      <contour>
        <pt x="-105" y="1" on="1"/>
        <pt x="-212" y="105" on="1"/>
        <pt x="-105" y="212" on="1"/>
        <pt x="-1" y="105" on="1"/>
      </contour>
    </TTGlyph>
    <TTGlyph name="_gafBar" xMin="0" yMin="0" xMax="625" yMax="383">
      <contour>
        <pt x="31" y="86" on="1"/>
        <pt x="625" y="383" on="1"/>
        <pt x="596" y="297" on="1"/>
        <pt x="0" y="0" on="1"/>
      </contour>
    </TTGlyph>
    <TTGlyph name="_gafBar_dot2h" xMin="-166" yMin="0" xMax="625" yMax="420">
      <contour>
        <pt x="31" y="86" on="1"/>
        <pt x="625" y="383" on="1"/>
        <pt x="596" y="297" on="1"/>
        <pt x="0" y="0" on="1"/>
      </contour>
      <contour>
        <pt x="-59" y="212" on="1"/>
        <pt x="-166" y="316" on="1"/>
        <pt x="-59" y="420" on="1"/>
        <pt x="45" y="316" on="1"/>
      </contour>
      <contour>
        <pt x="151" y="212" on="1"/>
        <pt x="47" y="316" on="1"/>
        <pt x="151" y="420" on="1"/>
        <pt x="258" y="316" on="1"/>
      </contour>
    </TTGlyph>
    <TTGlyph name="_gafBar_dot3u" xMin="-160" yMin="0" xMax="625" yMax="628">
      <contour>
        <pt x="31" y="86" on="1"/>
        <pt x="625" y="383" on="1"/>
        <pt x="596" y="297" on="1"/>
        <pt x="0" y="0" on="1"/>
      </contour>
      <contour>
        <pt x="52" y="417" on="1"/>
        <pt x="-52" y="521" on="1"/>
        <pt x="52" y="628" on="1"/>
        <pt x="156" y="521" on="1"/>
      </contour>
      <contour>
        <pt x="-53" y="206" on="1"/>
        <pt x="-160" y="313" on="1"/>
        <pt x="-53" y="417" on="1"/>
        <pt x="51" y="313" on="1"/>
      </contour>
      <contour>
        <pt x="157" y="206" on="1"/>
        <pt x="53" y="313" on="1"/>
        <pt x="157" y="417" on="1"/>
        <pt x="264" y="313" on="1"/>
      </contour>
    </TTGlyph>
    <TTGlyph name="_hamza" xMin="-207" yMin="-190" xMax="164" yMax="203">
      <contour>
        <pt x="45" y="92" on="1"/>
        <pt x="30" y="92" on="0"/>
        <pt x="2" y="109" on="0"/>
        <pt x="-16" y="109" on="1"/>
        <pt x="-26" y="109" on="0"/>
        <pt x="-53" y="97" on="0"/>
        <pt x="-77" y="79" on="0"/>
        <pt x="-94" y="56" on="0"/>
        <pt x="-94" y="45" on="1"/>
        <pt x="-94" y="33" on="0"/>
        <pt x="-72" y="15" on="0"/>
        <pt x="-41" y="5" on="0"/>
        <pt x="-9" y="0" on="0"/>
        <pt x="0" y="0" on="1"/>
        <pt x="164" y="0" on="1"/>
        <pt x="115" y="-82" on="1"/>
        <pt x="78" y="-82" on="1"/>
        <pt x="43" y="-81" on="0"/>
        <pt x="-30" y="-96" on="0"/>
        <pt x="-99" y="-125" on="0"/>
        <pt x="-162" y="-166" on="0"/>
        <pt x="-188" y="-190" on="1"/>
        <pt x="-207" y="-164" on="1"/>
        <pt x="-203" y="-157" on="0"/>
        <pt x="-180" y="-131" on="0"/>
        <pt x="-156" y="-103" on="0"/>
        <pt x="-137" y="-78" on="0"/>
        <pt x="-137" y="-72" on="1"/>
        <pt x="-137" y="-63" on="0"/>
        <pt x="-151" y="-40" on="0"/>
        <pt x="-168" y="-14" on="0"/>
        <pt x="-182" y="14" on="0"/>
        <pt x="-182" y="29" on="1"/>
        <pt x="-182" y="40" on="0"/>
        <pt x="-157" y="74" on="0"/>
        <pt x="-119" y="113" on="0"/>
        <pt x="-71" y="152" on="0"/>
        <pt x="-26" y="183" on="0"/>
        <pt x="13" y="203" on="0"/>
        <pt x="23" y="203" on="1"/>
        <pt x="34" y="203" on="0"/>
        <pt x="57" y="192" on="0"/>
        <pt x="77" y="175" on="0"/>
        <pt x="90" y="154" on="0"/>
        <pt x="90" y="143" on="1"/>
        <pt x="90" y="135" on="0"/>
        <pt x="82" y="117" on="0"/>
        <pt x="70" y="102" on="0"/>
        <pt x="54" y="92" on="0"/>
      </contour>
    </TTGlyph>
    <TTGlyph name="_hamzaDamma" xMin="-374" yMin="-173" xMax="341" yMax="248">
      <contour>
        <pt x="222" y="113" on="1"/>
        <pt x="207" y="113" on="0"/>
        <pt x="179" y="130" on="0"/>
        <pt x="161" y="130" on="1"/>
        <pt x="151" y="130" on="0"/>
        <pt x="124" y="118" on="0"/>
        <pt x="100" y="100" on="0"/>
        <pt x="83" y="77" on="0"/>
        <pt x="83" y="66" on="1"/>
        <pt x="83" y="54" on="0"/>
        <pt x="105" y="36" on="0"/>
        <pt x="136" y="26" on="0"/>
        <pt x="168" y="21" on="0"/>
        <pt x="177" y="21" on="1"/>
        <pt x="341" y="21" on="1"/>
        <pt x="292" y="-61" on="1"/>
        <pt x="255" y="-61" on="1"/>
        <pt x="244" y="-61" on="1"/>
        <pt x="210" y="-61" on="0"/>
        <pt x="140" y="-78" on="0"/>
        <pt x="74" y="-107" on="0"/>
        <pt x="14" y="-147" on="0"/>
        <pt x="-11" y="-169" on="1"/>
        <pt x="-30" y="-143" on="1"/>
        <pt x="-26" y="-136" on="0"/>
        <pt x="-3" y="-110" on="0"/>
        <pt x="22" y="-82" on="0"/>
        <pt x="40" y="-57" on="0"/>
        <pt x="40" y="-51" on="1"/>
        <pt x="40" y="-42" on="0"/>
        <pt x="26" y="-19" on="0"/>
        <pt x="9" y="7" on="0"/>
        <pt x="-5" y="35" on="0"/>
        <pt x="-5" y="50" on="1"/>
        <pt x="-5" y="61" on="0"/>
        <pt x="20" y="95" on="0"/>
        <pt x="58" y="134" on="0"/>
        <pt x="106" y="173" on="0"/>
        <pt x="151" y="204" on="0"/>
        <pt x="190" y="224" on="0"/>
        <pt x="200" y="224" on="1"/>
        <pt x="211" y="224" on="0"/>
        <pt x="234" y="213" on="0"/>
        <pt x="254" y="196" on="0"/>
        <pt x="267" y="175" on="0"/>
        <pt x="267" y="164" on="1"/>
        <pt x="267" y="156" on="0"/>
        <pt x="259" y="138" on="0"/>
        <pt x="247" y="123" on="0"/>
        <pt x="231" y="113" on="0"/>
      </contour>
      <contour>
        <pt x="-77" y="-61" on="1"/>
        <pt x="-138" y="-24" on="1"/>
        <pt x="-147" y="-34" on="0"/>
        <pt x="-164" y="-51" on="0"/>
        <pt x="-183" y="-68" on="0"/>
        <pt x="-205" y="-87" on="0"/>
        <pt x="-220" y="-98" on="1"/>
        <pt x="-237" y="-111" on="0"/>
        <pt x="-280" y="-137" on="0"/>
        <pt x="-300" y="-148" on="1"/>
        <pt x="-323" y="-161" on="0"/>
        <pt x="-347" y="-173" on="1"/>
        <pt x="-374" y="-126" on="1"/>
        <pt x="-354" y="-115" on="0"/>
        <pt x="-335" y="-104" on="1"/>
        <pt x="-318" y="-94" on="0"/>
        <pt x="-284" y="-73" on="0"/>
        <pt x="-272" y="-65" on="1"/>
        <pt x="-259" y="-56" on="0"/>
        <pt x="-229" y="-30" on="0"/>
        <pt x="-215" y="-18" on="1"/>
        <pt x="-199" y="-4" on="0"/>
        <pt x="-184" y="11" on="1"/>
        <pt x="-201" y="25" on="0"/>
        <pt x="-215" y="39" on="1"/>
        <pt x="-227" y="51" on="0"/>
        <pt x="-249" y="77" on="0"/>
        <pt x="-251" y="87" on="1"/>
        <pt x="-254" y="102" on="0"/>
        <pt x="-254" y="115" on="1"/>
        <pt x="-254" y="151" on="0"/>
        <pt x="-222" y="202" on="0"/>
        <pt x="-179" y="233" on="0"/>
        <pt x="-133" y="248" on="0"/>
        <pt x="-119" y="248" on="1"/>
        <pt x="-84" y="248" on="0"/>
        <pt x="-40" y="208" on="0"/>
        <pt x="-40" y="175" on="1"/>
        <pt x="-40" y="149" on="0"/>
        <pt x="-55" y="101" on="0"/>
        <pt x="-74" y="62" on="0"/>
        <pt x="-95" y="34" on="0"/>
        <pt x="-101" y="28" on="1"/>
        <pt x="-42" y="-10" on="1"/>
      </contour>
      <contour>
        <pt x="-192" y="121" on="1"/>
        <pt x="-192" y="102" on="0"/>
        <pt x="-161" y="69" on="0"/>
        <pt x="-147" y="60" on="1"/>
        <pt x="-128" y="76" on="0"/>
        <pt x="-106" y="122" on="0"/>
        <pt x="-106" y="148" on="1"/>
        <pt x="-106" y="168" on="0"/>
        <pt x="-126" y="189" on="0"/>
        <pt x="-140" y="189" on="1"/>
        <pt x="-146" y="189" on="0"/>
        <pt x="-163" y="181" on="0"/>
        <pt x="-180" y="165" on="0"/>
        <pt x="-192" y="139" on="0"/>
      </contour>
    </TTGlyph>
    <TTGlyph name="_hat" xMin="-252" yMin="-12" xMax="264" yMax="328">
      <contour>
        <pt x="-252" y="0" on="1"/>
        <pt x="-244" y="17" on="0"/>
        <pt x="-211" y="80" on="0"/>
        <pt x="-168" y="153" on="0"/>
        <pt x="-118" y="228" on="0"/>
        <pt x="-66" y="289" on="0"/>
        <pt x="-16" y="328" on="0"/>
        <pt x="6" y="328" on="1"/>
        <pt x="33" y="328" on="0"/>
        <pt x="87" y="297" on="0"/>
        <pt x="138" y="248" on="0"/>
        <pt x="184" y="186" on="0"/>
        <pt x="224" y="122" on="0"/>
        <pt x="254" y="63" on="0"/>
        <pt x="264" y="41" on="1"/>
        <pt x="190" y="-12" on="1"/>
        <pt x="177" y="12" on="0"/>
        <pt x="135" y="85" on="0"/>
        <pt x="81" y="155" on="0"/>
        <pt x="18" y="205" on="0"/>
        <pt x="-14" y="205" on="1"/>
        <pt x="-43" y="205" on="0"/>
        <pt x="-108" y="154" on="0"/>
        <pt x="-168" y="85" on="0"/>
        <pt x="-216" y="13" on="0"/>
        <pt x="-229" y="-8" on="1"/>
      </contour>
    </TTGlyph>
    <TTGlyph name="_highHamza" xMin="-19" yMin="-73" xMax="352" yMax="320">
      <contour>
        <pt x="233" y="209" on="1"/>
        <pt x="218" y="209" on="0"/>
        <pt x="190" y="226" on="0"/>
        <pt x="172" y="226" on="1"/>
        <pt x="162" y="226" on="0"/>
        <pt x="135" y="214" on="0"/>
        <pt x="111" y="196" on="0"/>
        <pt x="94" y="173" on="0"/>
        <pt x="94" y="162" on="1"/>
        <pt x="94" y="150" on="0"/>
        <pt x="116" y="132" on="0"/>
        <pt x="147" y="122" on="0"/>
        <pt x="179" y="117" on="0"/>
        <pt x="188" y="117" on="1"/>
        <pt x="352" y="117" on="1"/>
        <pt x="303" y="35" on="1"/>
        <pt x="266" y="35" on="1"/>
        <pt x="231" y="36" on="0"/>
        <pt x="158" y="21" on="0"/>
        <pt x="89" y="-8" on="0"/>
        <pt x="26" y="-49" on="0"/>
        <pt x="0" y="-73" on="1"/>
        <pt x="-19" y="-47" on="1"/>
        <pt x="-15" y="-40" on="0"/>
        <pt x="8" y="-14" on="0"/>
        <pt x="32" y="14" on="0"/>
        <pt x="51" y="39" on="0"/>
        <pt x="51" y="45" on="1"/>
        <pt x="51" y="54" on="0"/>
        <pt x="37" y="77" on="0"/>
        <pt x="20" y="103" on="0"/>
        <pt x="6" y="131" on="0"/>
        <pt x="6" y="146" on="1"/>
        <pt x="6" y="157" on="0"/>
        <pt x="31" y="191" on="0"/>
        <pt x="69" y="230" on="0"/>
        <pt x="117" y="269" on="0"/>
        <pt x="162" y="300" on="0"/>
        <pt x="201" y="320" on="0"/>
        <pt x="211" y="320" on="1"/>
        <pt x="222" y="320" on="0"/>
        <pt x="245" y="309" on="0"/>
        <pt x="265" y="292" on="0"/>
        <pt x="278" y="271" on="0"/>
        <pt x="278" y="260" on="1"/>
        <pt x="278" y="252" on="0"/>
        <pt x="270" y="234" on="0"/>
        <pt x="258" y="219" on="0"/>
        <pt x="242" y="209" on="0"/>
      </contour>
    </TTGlyph>
    <TTGlyph name="_hook" xMin="-82" yMin="-209" xMax="84" yMax="225">
      <contour>
        <pt x="78" y="-141" on="1"/>
        <pt x="78" y="-156" on="0"/>
        <pt x="65" y="-181" on="0"/>
        <pt x="44" y="-199" on="0"/>
        <pt x="17" y="-209" on="0"/>
        <pt x="4" y="-209" on="1"/>
        <pt x="-22" y="-209" on="0"/>
        <pt x="-56" y="-181" on="0"/>
        <pt x="-75" y="-140" on="0"/>
        <pt x="-82" y="-92" on="0"/>
        <pt x="-82" y="-72" on="1"/>
        <pt x="-82" y="-59" on="0"/>
        <pt x="-80" y="-33" on="0"/>
        <pt x="-78" y="-20" on="1"/>
        <pt x="-75" y="7" on="0"/>
        <pt x="-44" y="82" on="0"/>
        <pt x="2" y="154" on="0"/>
        <pt x="57" y="213" on="0"/>
        <pt x="84" y="225" on="1"/>
        <pt x="72" y="182" on="1"/>
        <pt x="57" y="169" on="0"/>
        <pt x="26" y="130" on="0"/>
        <pt x="-1" y="85" on="0"/>
        <pt x="-18" y="38" on="0"/>
        <pt x="-18" y="18" on="1"/>
        <pt x="-18" y="4" on="0"/>
        <pt x="-12" y="-21" on="0"/>
        <pt x="-10" y="-35" on="1"/>
        <pt x="12" y="-44" on="0"/>
        <pt x="45" y="-59" on="0"/>
        <pt x="67" y="-81" on="0"/>
        <pt x="78" y="-114" on="0"/>
      </contour>
    </TTGlyph>
    <TTGlyph name="_invSmallV" xMin="-196" yMin="-83" xMax="205" yMax="136">
      <contour>
        <pt x="-196" y="-75" on="1"/>
        <pt x="-196" y="-70" on="0"/>
        <pt x="-165" y="-23" on="0"/>
        <pt x="-121" y="37" on="0"/>
        <pt x="-71" y="98" on="0"/>
        <pt x="-53" y="116" on="1"/>
        <pt x="-45" y="125" on="0"/>
        <pt x="-33" y="136" on="0"/>
        <pt x="-26" y="136" on="1"/>
        <pt x="31" y="136" on="1"/>
        <pt x="37" y="136" on="0"/>
        <pt x="50" y="123" on="0"/>
        <pt x="60" y="114" on="1"/>
        <pt x="78" y="95" on="0"/>
        <pt x="127" y="33" on="0"/>
        <pt x="173" y="-27" on="0"/>
        <pt x="205" y="-73" on="0"/>
        <pt x="205" y="-75" on="1"/>
        <pt x="205" y="-80" on="0"/>
        <pt x="197" y="-83" on="1"/>
        <pt x="162" y="-83" on="1"/>
        <pt x="159" y="-83" on="0"/>
        <pt x="135" y="-63" on="0"/>
        <pt x="102" y="-32" on="0"/>
        <pt x="64" y="3" on="0"/>
        <pt x="31" y="34" on="0"/>
        <pt x="6" y="54" on="0"/>
        <pt x="2" y="54" on="1"/>
        <pt x="-1" y="54" on="0"/>
        <pt x="-26" y="34" on="0"/>
        <pt x="-60" y="3" on="0"/>
        <pt x="-97" y="-32" on="0"/>
        <pt x="-131" y="-63" on="0"/>
        <pt x="-156" y="-83" on="0"/>
        <pt x="-159" y="-83" on="1"/>
        <pt x="-190" y="-83" on="1"/>
        <pt x="-196" y="-83" on="0"/>
        <pt x="-196" y="-77" on="0"/>
      </contour>
    </TTGlyph>
    <TTGlyph name="_lines" xMin="-141" yMin="-383" xMax="141" yMax="-63">
      <contour>
        <pt x="-141" y="-383" on="1"/>
        <pt x="-141" y="-119" on="1"/>
        <pt x="-74" y="-63" on="1"/>
        <pt x="-74" y="-328" on="1"/>
      </contour>
      <contour>
        <pt x="74" y="-383" on="1"/>
        <pt x="74" y="-119" on="1"/>
        <pt x="141" y="-63" on="1"/>
        <pt x="141" y="-328" on="1"/>
      </contour>
    </TTGlyph>
    <TTGlyph name="_madda" xMin="-287" yMin="-70" xMax="238" yMax="164">
      <contour>
        <pt x="238" y="158" on="1"/>
        <pt x="238" y="133" on="0"/>
        <pt x="185" y="71" on="0"/>
        <pt x="110" y="17" on="0"/>
        <pt x="29" y="-20" on="0"/>
        <pt x="0" y="-20" on="1"/>
        <pt x="-59" y="-20" on="0"/>
        <pt x="-154" y="3" on="0"/>
        <pt x="-182" y="23" on="1"/>
        <pt x="-185" y="16" on="0"/>
        <pt x="-208" y="-15" on="0"/>
        <pt x="-237" y="-46" on="0"/>
        <pt x="-265" y="-70" on="0"/>
        <pt x="-272" y="-70" on="1"/>
        <pt x="-275" y="-70" on="0"/>
        <pt x="-287" y="-64" on="0"/>
        <pt x="-287" y="-59" on="1"/>
        <pt x="-287" y="-55" on="0"/>
        <pt x="-273" y="-23" on="0"/>
        <pt x="-251" y="22" on="0"/>
        <pt x="-225" y="73" on="0"/>
        <pt x="-201" y="119" on="0"/>
        <pt x="-182" y="154" on="0"/>
        <pt x="-178" y="160" on="1"/>
        <pt x="-140" y="135" on="0"/>
        <pt x="-39" y="94" on="0"/>
        <pt x="10" y="94" on="1"/>
        <pt x="41" y="94" on="0"/>
        <pt x="108" y="116" on="0"/>
        <pt x="170" y="142" on="0"/>
        <pt x="220" y="164" on="0"/>
        <pt x="233" y="164" on="1"/>
        <pt x="235" y="164" on="0"/>
        <pt x="238" y="160" on="0"/>
      </contour>
    </TTGlyph>
    <TTGlyph name="_ring" xMin="-129" yMin="-146" xMax="120" yMax="151">
      <contour>
        <pt x="120" y="0" on="1"/>
        <pt x="120" y="-66" on="0"/>
        <pt x="46" y="-146" on="0"/>
        <pt x="-21" y="-146" on="1"/>
        <pt x="-54" y="-146" on="0"/>
        <pt x="-96" y="-128" on="0"/>
        <pt x="-120" y="-95" on="0"/>
        <pt x="-129" y="-47" on="0"/>
        <pt x="-129" y="-17" on="1"/>
        <pt x="-129" y="10" on="0"/>
        <pt x="-113" y="70" on="0"/>
        <pt x="-82" y="119" on="0"/>
        <pt x="-34" y="151" on="0"/>
        <pt x="-2" y="151" on="1"/>
        <pt x="29" y="151" on="0"/>
        <pt x="75" y="124" on="0"/>
        <pt x="105" y="80" on="0"/>
        <pt x="120" y="26" on="0"/>
      </contour>
      <contour>
        <pt x="-12" y="-52" on="1"/>
        <pt x="22" y="-52" on="0"/>
        <pt x="54" y="-33" on="0"/>
        <pt x="54" y="3" on="1"/>
        <pt x="54" y="32" on="0"/>
        <pt x="20" y="76" on="0"/>
        <pt x="-12" y="76" on="1"/>
        <pt x="-26" y="76" on="0"/>
        <pt x="-49" y="60" on="0"/>
        <pt x="-65" y="36" on="0"/>
        <pt x="-75" y="7" on="0"/>
        <pt x="-75" y="-5" on="1"/>
        <pt x="-75" y="-21" on="0"/>
        <pt x="-65" y="-40" on="0"/>
        <pt x="-48" y="-49" on="0"/>
        <pt x="-25" y="-52" on="0"/>
      </contour>
    </TTGlyph>
    <TTGlyph name="_smallV" xMin="-162" yMin="-101" xMax="157" yMax="152">
      <contour>
        <pt x="-141" y="152" on="1"/>
        <pt x="-122" y="146" on="0"/>
        <pt x="-68" y="105" on="0"/>
        <pt x="-48" y="77" on="1"/>
        <pt x="-31" y="54" on="0"/>
        <pt x="-4" y="8" on="0"/>
        <pt x="3" y="-18" on="1"/>
        <pt x="11" y="0" on="0"/>
        <pt x="23" y="28" on="0"/>
        <pt x="37" y="52" on="0"/>
        <pt x="55" y="75" on="0"/>
        <pt x="68" y="89" on="1"/>
        <pt x="79" y="101" on="0"/>
        <pt x="105" y="124" on="0"/>
        <pt x="130" y="142" on="0"/>
        <pt x="151" y="152" on="0"/>
        <pt x="157" y="152" on="1"/>
        <pt x="157" y="145" on="0"/>
        <pt x="156" y="138" on="1"/>
        <pt x="155" y="132" on="0"/>
        <pt x="153" y="119" on="0"/>
        <pt x="149" y="114" on="1"/>
        <pt x="129" y="106" on="0"/>
        <pt x="83" y="61" on="0"/>
        <pt x="67" y="35" on="1"/>
        <pt x="61" y="25" on="0"/>
        <pt x="45" y="-5" on="0"/>
        <pt x="29" y="-40" on="0"/>
        <pt x="15" y="-75" on="0"/>
        <pt x="11" y="-90" on="1"/>
        <pt x="8" y="-101" on="0"/>
        <pt x="-10" y="-99" on="0"/>
        <pt x="-13" y="-91" on="1"/>
        <pt x="-29" y="-53" on="0"/>
        <pt x="-64" y="8" on="0"/>
        <pt x="-81" y="32" on="1"/>
        <pt x="-101" y="61" on="0"/>
        <pt x="-143" y="88" on="0"/>
        <pt x="-162" y="95" on="1"/>
        <pt x="-158" y="112" on="0"/>
        <pt x="-154" y="124" on="1"/>
        <pt x="-151" y="135" on="0"/>
        <pt x="-144" y="152" on="0"/>
      </contour>
    </TTGlyph>
    <TTGlyph name="_tah" xMin="-205" yMin="-89" xMax="207" yMax="354">
      <contour>
        <pt x="-82" y="-89" on="1"/>
        <pt x="-122" y="-89" on="0"/>
        <pt x="-185" y="-50" on="0"/>
        <pt x="-205" y="-15" on="1"/>
        <pt x="-88" y="-26" on="1"/>
        <pt x="-37" y="21" on="1"/>
        <pt x="-37" y="252" on="1"/>
        <pt x="-46" y="260" on="0"/>
        <pt x="-55" y="274" on="0"/>
        <pt x="-55" y="285" on="1"/>
        <pt x="-55" y="290" on="0"/>
        <pt x="-44" y="312" on="0"/>
        <pt x="-30" y="336" on="0"/>
        <pt x="-16" y="354" on="0"/>
        <pt x="-13" y="354" on="1"/>
        <pt x="-11" y="354" on="0"/>
        <pt x="-11" y="350" on="1"/>
        <pt x="-11" y="345" on="0"/>
        <pt x="-14" y="332" on="0"/>
        <pt x="-14" y="330" on="1"/>
        <pt x="-14" y="314" on="0"/>
        <pt x="5" y="291" on="0"/>
        <pt x="20" y="289" on="1"/>
        <pt x="0" y="230" on="1"/>
        <pt x="-10" y="230" on="1"/>
        <pt x="-10" y="40" on="1"/>
        <pt x="0" y="48" on="0"/>
        <pt x="38" y="75" on="0"/>
        <pt x="80" y="101" on="0"/>
        <pt x="119" y="120" on="0"/>
        <pt x="131" y="120" on="1"/>
        <pt x="142" y="120" on="0"/>
        <pt x="168" y="112" on="0"/>
        <pt x="191" y="97" on="0"/>
        <pt x="207" y="76" on="0"/>
        <pt x="207" y="62" on="1"/>
        <pt x="207" y="20" on="0"/>
        <pt x="147" y="-38" on="0"/>
        <pt x="58" y="-74" on="0"/>
        <pt x="-42" y="-89" on="0"/>
      </contour>
      <contour>
        <pt x="94" y="56" on="1"/>
        <pt x="84" y="56" on="0"/>
        <pt x="41" y="40" on="0"/>
        <pt x="-3" y="16" on="0"/>
        <pt x="-37" y="-11" on="0"/>
        <pt x="-37" y="-22" on="1"/>
        <pt x="-37" y="-25" on="0"/>
        <pt x="-22" y="-26" on="0"/>
        <pt x="-20" y="-26" on="1"/>
        <pt x="-11" y="-26" on="0"/>
        <pt x="46" y="-20" on="0"/>
        <pt x="108" y="-8" on="0"/>
        <pt x="156" y="10" on="0"/>
        <pt x="156" y="21" on="1"/>
        <pt x="156" y="32" on="0"/>
        <pt x="143" y="46" on="0"/>
        <pt x="123" y="53" on="0"/>
        <pt x="102" y="56" on="0"/>
      </contour>
    </TTGlyph>
    <TTGlyph name="_vline" xMin="-36" yMin="-149" xMax="31" yMax="171">
      <contour>
        <pt x="-36" y="-149" on="1"/>
        <pt x="-36" y="115" on="1"/>
        <pt x="31" y="171" on="1"/>
        <pt x="31" y="-94" on="1"/>
      </contour>
    </TTGlyph>
    <TTGlyph name="_wasla" xMin="-253" yMin="-114" xMax="142" yMax="155">
      <contour>
        <pt x="142" y="41" on="1"/>
        <pt x="142" y="29" on="0"/>
        <pt x="122" y="-13" on="0"/>
        <pt x="81" y="-54" on="0"/>
        <pt x="17" y="-85" on="0"/>
        <pt x="-28" y="-85" on="1"/>
        <pt x="-35" y="-85" on="0"/>
        <pt x="-79" y="-83" on="0"/>
        <pt x="-131" y="-82" on="0"/>
        <pt x="-180" y="-80" on="0"/>
        <pt x="-191" y="-80" on="1"/>
        <pt x="-212" y="-80" on="0"/>
        <pt x="-232" y="-91" on="0"/>
        <pt x="-241" y="-103" on="0"/>
        <pt x="-245" y="-114" on="0"/>
        <pt x="-249" y="-114" on="1"/>
        <pt x="-253" y="-114" on="0"/>
        <pt x="-253" y="-103" on="1"/>
        <pt x="-253" y="-93" on="0"/>
        <pt x="-248" y="-68" on="0"/>
        <pt x="-235" y="-44" on="0"/>
        <pt x="-213" y="-23" on="0"/>
        <pt x="-196" y="-17" on="1"/>
        <pt x="-177" y="-11" on="0"/>
        <pt x="-116" y="-9" on="0"/>
        <pt x="-90" y="-9" on="1"/>
        <pt x="-74" y="27" on="0"/>
        <pt x="-43" y="87" on="0"/>
        <pt x="-6" y="130" on="0"/>
        <pt x="39" y="155" on="0"/>
        <pt x="69" y="155" on="1"/>
        <pt x="102" y="155" on="0"/>
        <pt x="142" y="104" on="0"/>
      </contour>
      <contour>
        <pt x="82" y="39" on="1"/>
        <pt x="82" y="56" on="0"/>
        <pt x="58" y="74" on="0"/>
        <pt x="38" y="74" on="1"/>
        <pt x="28" y="74" on="0"/>
        <pt x="3" y="57" on="0"/>
        <pt x="-21" y="32" on="0"/>
        <pt x="-43" y="3" on="0"/>
        <pt x="-50" y="-9" on="1"/>
        <pt x="-31" y="-9" on="0"/>
        <pt x="15" y="-6" on="0"/>
        <pt x="55" y="4" on="0"/>
        <pt x="82" y="23" on="0"/>
      </contour>
    </TTGlyph>
    <TTGlyph name="_wavyHamza" xMin="-386" yMin="-153" xMax="131" yMax="171">
      <contour>
        <pt x="90" y="-64" on="1"/>
        <pt x="60" y="-64" on="1"/>
        <pt x="4" y="-62" on="0"/>
        <pt x="-52" y="-98" on="1"/>
        <pt x="-73" y="-111" on="0"/>
        <pt x="-104" y="-131" on="0"/>
        <pt x="-133" y="-144" on="0"/>
        <pt x="-163" y="-151" on="0"/>
        <pt x="-181" y="-151" on="1"/>
        <pt x="-195" y="-151" on="0"/>
        <pt x="-218" y="-141" on="0"/>
        <pt x="-238" y="-130" on="0"/>
        <pt x="-258" y="-120" on="0"/>
        <pt x="-270" y="-120" on="1"/>
        <pt x="-283" y="-120" on="0"/>
        <pt x="-305" y="-120" on="0"/>
        <pt x="-329" y="-126" on="0"/>
        <pt x="-358" y="-140" on="0"/>
        <pt x="-377" y="-153" on="1"/>
        <pt x="-379" y="-153" on="0"/>
        <pt x="-382" y="-146" on="1"/>
        <pt x="-384" y="-142" on="0"/>
        <pt x="-386" y="-139" on="1"/>
        <pt x="-359" y="-113" on="0"/>
        <pt x="-293" y="-73" on="0"/>
        <pt x="-257" y="-73" on="1"/>
        <pt x="-240" y="-73" on="0"/>
        <pt x="-216" y="-81" on="0"/>
        <pt x="-197" y="-90" on="0"/>
        <pt x="-179" y="-97" on="0"/>
        <pt x="-167" y="-97" on="1"/>
        <pt x="-149" y="-97" on="0"/>
        <pt x="-112" y="-71" on="0"/>
        <pt x="-95" y="-53" on="1"/>
        <pt x="-103" y="-49" on="0"/>
        <pt x="-125" y="-32" on="0"/>
        <pt x="-144" y="-10" on="0"/>
        <pt x="-157" y="16" on="0"/>
        <pt x="-157" y="28" on="1"/>
        <pt x="-157" y="42" on="0"/>
        <pt x="-113" y="90" on="0"/>
        <pt x="-55" y="137" on="0"/>
        <pt x="2" y="171" on="0"/>
        <pt x="15" y="171" on="1"/>
        <pt x="23" y="171" on="0"/>
        <pt x="43" y="163" on="0"/>
        <pt x="59" y="150" on="0"/>
        <pt x="70" y="133" on="0"/>
        <pt x="70" y="124" on="1"/>
        <pt x="70" y="110" on="0"/>
        <pt x="47" y="81" on="0"/>
        <pt x="33" y="81" on="1"/>
        <pt x="21" y="81" on="0"/>
        <pt x="-4" y="96" on="0"/>
        <pt x="-18" y="96" on="1"/>
        <pt x="-27" y="96" on="0"/>
        <pt x="-49" y="86" on="0"/>
        <pt x="-70" y="71" on="0"/>
        <pt x="-84" y="51" on="0"/>
        <pt x="-84" y="42" on="1"/>
        <pt x="-84" y="32" on="0"/>
        <pt x="-65" y="19" on="0"/>
        <pt x="-40" y="10" on="0"/>
        <pt x="-14" y="6" on="0"/>
        <pt x="-6" y="6" on="1"/>
        <pt x="131" y="6" on="1"/>
      </contour>
    </TTGlyph>
    <TTGlyph name="_wavyHamza.b" xMin="-386" yMin="-153" xMax="131" yMax="171">
      <contour>
        <pt x="90" y="-64" on="1"/>
        <pt x="60" y="-64" on="1"/>
        <pt x="4" y="-62" on="0"/>
        <pt x="-52" y="-98" on="1"/>
        <pt x="-73" y="-111" on="0"/>
        <pt x="-104" y="-131" on="0"/>
        <pt x="-133" y="-144" on="0"/>
        <pt x="-163" y="-151" on="0"/>
        <pt x="-181" y="-151" on="1"/>
        <pt x="-195" y="-151" on="0"/>
        <pt x="-218" y="-141" on="0"/>
        <pt x="-238" y="-130" on="0"/>
        <pt x="-258" y="-120" on="0"/>
        <pt x="-270" y="-120" on="1"/>
        <pt x="-283" y="-120" on="0"/>
        <pt x="-305" y="-120" on="0"/>
        <pt x="-329" y="-126" on="0"/>
        <pt x="-358" y="-140" on="0"/>
        <pt x="-377" y="-153" on="1"/>
        <pt x="-379" y="-153" on="0"/>
        <pt x="-382" y="-146" on="1"/>
        <pt x="-384" y="-142" on="0"/>
        <pt x="-386" y="-139" on="1"/>
        <pt x="-359" y="-113" on="0"/>
        <pt x="-293" y="-73" on="0"/>
        <pt x="-257" y="-73" on="1"/>
        <pt x="-240" y="-73" on="0"/>
        <pt x="-216" y="-81" on="0"/>
        <pt x="-197" y="-90" on="0"/>
        <pt x="-179" y="-97" on="0"/>
        <pt x="-167" y="-97" on="1"/>
        <pt x="-149" y="-97" on="0"/>
        <pt x="-112" y="-71" on="0"/>
        <pt x="-95" y="-53" on="1"/>
        <pt x="-103" y="-49" on="0"/>
        <pt x="-125" y="-32" on="0"/>
        <pt x="-144" y="-10" on="0"/>
        <pt x="-157" y="16" on="0"/>
        <pt x="-157" y="28" on="1"/>
        <pt x="-157" y="42" on="0"/>
        <pt x="-113" y="90" on="0"/>
        <pt x="-55" y="137" on="0"/>
        <pt x="2" y="171" on="0"/>
        <pt x="15" y="171" on="1"/>
        <pt x="23" y="171" on="0"/>
        <pt x="43" y="163" on="0"/>
        <pt x="59" y="150" on="0"/>
        <pt x="70" y="133" on="0"/>
        <pt x="70" y="124" on="1"/>
        <pt x="70" y="110" on="0"/>
        <pt x="47" y="81" on="0"/>
        <pt x="33" y="81" on="1"/>
        <pt x="21" y="81" on="0"/>
        <pt x="-4" y="96" on="0"/>
        <pt x="-18" y="96" on="1"/>
        <pt x="-27" y="96" on="0"/>
        <pt x="-49" y="86" on="0"/>
        <pt x="-70" y="71" on="0"/>
        <pt x="-84" y="51" on="0"/>
        <pt x="-84" y="42" on="1"/>
        <pt x="-84" y="32" on="0"/>
        <pt x="-65" y="19" on="0"/>
        <pt x="-40" y="10" on="0"/>
        <pt x="-14" y="6" on="0"/>
        <pt x="-6" y="6" on="1"/>
        <pt x="131" y="6" on="1"/>
      </contour>
    </TTGlyph>
    <TTGlyph name="a" xMin="55" yMin="-14" xMax="684" yMax="711">
      <contour>
        <pt x="684" y="100" on="1"/>
        <pt x="670" y="81" on="0"/>
        <pt x="635" y="40" on="0"/>
        <pt x="594" y="7" on="0"/>
        <pt x="546" y="-14" on="0"/>
        <pt x="520" y="-14" on="1"/>
        <pt x="496" y="-14" on="0"/>
        <pt x="465" y="6" on="0"/>
        <pt x="447" y="39" on="0"/>
        <pt x="440" y="79" on="0"/>
        <pt x="440" y="100" on="1"/>
        <pt x="415" y="80" on="0"/>
        <pt x="365" y="40" on="0"/>
        <pt x="311" y="7" on="0"/>
        <pt x="253" y="-14" on="0"/>
        <pt x="219" y="-14" on="1"/>
        <pt x="180" y="-14" on="0"/>
        <pt x="119" y="13" on="0"/>
        <pt x="77" y="61" on="0"/>
        <pt x="55" y="126" on="0"/>
        <pt x="55" y="164" on="1"/>
        <pt x="55" y="206" on="0"/>
        <pt x="94" y="276" on="0"/>
        <pt x="158" y="334" on="0"/>
        <pt x="240" y="381" on="0"/>
        <pt x="326" y="418" on="0"/>
        <pt x="408" y="446" on="0"/>
        <pt x="440" y="457" on="1"/>
        <pt x="440" y="485" on="1"/>
        <pt x="440" y="520" on="0"/>
        <pt x="431" y="585" on="0"/>
        <pt x="403" y="636" on="0"/>
        <pt x="353" y="666" on="0"/>
        <pt x="311" y="666" on="1"/>
        <pt x="277" y="666" on="0"/>
        <pt x="236" y="647" on="0"/>
        <pt x="215" y="612" on="0"/>
        <pt x="209" y="565" on="0"/>
        <pt x="209" y="537" on="1"/>
        <pt x="209" y="503" on="0"/>
        <pt x="183" y="465" on="0"/>
        <pt x="145" y="465" on="1"/>
        <pt x="110" y="465" on="0"/>
        <pt x="82" y="505" on="0"/>
        <pt x="82" y="537" on="1"/>
        <pt x="82" y="584" on="0"/>
        <pt x="132" y="650" on="0"/>
        <pt x="207" y="692" on="0"/>
        <pt x="295" y="711" on="0"/>
        <pt x="334" y="711" on="1"/>
        <pt x="399" y="711" on="0"/>
        <pt x="488" y="686" on="0"/>
        <pt x="542" y="629" on="0"/>
        <pt x="565" y="540" on="0"/>
        <pt x="565" y="475" on="1"/>
        <pt x="565" y="240" on="1"/>
        <pt x="565" y="211" on="0"/>
        <pt x="564" y="147" on="0"/>
        <pt x="569" y="119" on="1"/>
        <pt x="572" y="105" on="0"/>
        <pt x="585" y="82" on="0"/>
        <pt x="602" y="82" on="1"/>
        <pt x="611" y="82" on="0"/>
        <pt x="634" y="97" on="0"/>
        <pt x="658" y="117" on="0"/>
        <pt x="679" y="138" on="0"/>
        <pt x="684" y="143" on="1"/>
      </contour>
      <contour>
        <pt x="440" y="414" on="1"/>
        <pt x="406" y="400" on="0"/>
        <pt x="316" y="363" on="0"/>
        <pt x="237" y="312" on="0"/>
        <pt x="182" y="244" on="0"/>
        <pt x="182" y="199" on="1"/>
        <pt x="182" y="177" on="0"/>
        <pt x="196" y="132" on="0"/>
        <pt x="224" y="96" on="0"/>
        <pt x="264" y="74" on="0"/>
        <pt x="289" y="74" on="1"/>
        <pt x="309" y="74" on="0"/>
        <pt x="350" y="88" on="0"/>
        <pt x="389" y="111" on="0"/>
        <pt x="425" y="138" on="0"/>
        <pt x="440" y="150" on="1"/>
      </contour>
    </TTGlyph>
    <TTGlyph name="aacute" xMin="55" yMin="-14" xMax="684" yMax="1051">
      <component glyphName="a" x="0" y="0" flags="0x204"/>
      <component glyphName="acute" x="109" y="0" flags="0x4"/>
    </TTGlyph>
    <TTGlyph name="absAutoKashida" xMin="-27" yMin="0" xMax="256" yMax="186">
      <contour>
        <pt x="256" y="186" on="1"/>
        <pt x="256" y="0" on="1"/>
        <pt x="-27" y="0" on="1"/>
        <pt x="-27" y="186" on="1"/>
      </contour>
    </TTGlyph>
    <TTGlyph name="absJeemRetro1" xMin="45" yMin="-676" xMax="938" yMax="574">
      <component glyphName="uni062D" x="0" y="0" flags="0x204"/>
      <component glyphName="_tah" x="504" y="-154" flags="0x4"/>
    </TTGlyph>
    <TTGlyph name="absJeemRetro1Fin" xMin="25" yMin="-711" xMax="971" yMax="512">
      <component glyphName="uni062D.fina" x="0" y="0" flags="0x204"/>
      <component glyphName="_tah" x="434" y="-287" flags="0x4"/>
    </TTGlyph>
    <TTGlyph name="absJeemRetro1Ini" xMin="-87" yMin="-499" xMax="713" yMax="530">
      <component glyphName="uni062D.init" x="0" y="0" flags="0x204"/>
      <component glyphName="_tah" x="354" y="-410" flags="0x4"/>
    </TTGlyph>
    <TTGlyph name="absJeemRetro1Med" xMin="-86" yMin="-487" xMax="1036" yMax="530">
      <component glyphName="uni062D.medi" x="0" y="0" flags="0x204"/>
      <component glyphName="_tah" x="467" y="-398" flags="0x4"/>
    </TTGlyph>
    <TTGlyph name="absJeemRetro2" xMin="45" yMin="-676" xMax="938" yMax="1128">
      <component glyphName="uni062D" x="0" y="0" flags="0x204"/>
      <component glyphName="_tah" x="491" y="774" flags="0x4"/>
      <component glyphName="_dot1" x="494" y="-78" flags="0x4"/>
    </TTGlyph>
    <TTGlyph name="absJeemRetro2Fin" xMin="25" yMin="-711" xMax="971" yMax="1076">
      <component glyphName="uni062D.fina" x="0" y="0" flags="0x204"/>
      <component glyphName="_tah" x="436" y="722" flags="0x4"/>
      <component glyphName="_dot1" x="424" y="-211" flags="0x4"/>
    </TTGlyph>
    <TTGlyph name="absJeemRetro2Ini" xMin="-87" yMin="-283" xMax="713" yMax="1095">
      <component glyphName="uni062D.init" x="0" y="0" flags="0x204"/>
      <component glyphName="_tah" x="305" y="741" flags="0x4"/>
      <component glyphName="_dot1" x="330" y="-179" flags="0x4"/>
    </TTGlyph>
    <TTGlyph name="absJeemRetro2Med" xMin="-86" yMin="-271" xMax="1036" yMax="1088">
      <component glyphName="uni062D.medi" x="0" y="0" flags="0x204"/>
      <component glyphName="_tah" x="411" y="734" flags="0x4"/>
      <component glyphName="_dot1" x="443" y="-167" flags="0x4"/>
    </TTGlyph>
    <TTGlyph name="absJeemRetro3" xMin="45" yMin="-676" xMax="938" yMax="1128">
      <component glyphName="uni062D" x="0" y="0" flags="0x204"/>
      <component glyphName="_tah" x="491" y="774" flags="0x4"/>
    </TTGlyph>
    <TTGlyph name="absJeemRetro3Fin" xMin="25" yMin="-711" xMax="971" yMax="1076">
      <component glyphName="uni062D.fina" x="0" y="0" flags="0x204"/>
      <component glyphName="_tah" x="436" y="722" flags="0x4"/>
    </TTGlyph>
    <TTGlyph name="absJeemRetro3Ini" xMin="-87" yMin="0" xMax="713" yMax="1095">
      <component glyphName="uni062D.init" x="0" y="0" flags="0x204"/>
      <component glyphName="_tah" x="305" y="741" flags="0x4"/>
    </TTGlyph>
    <TTGlyph name="absJeemRetro3Med" xMin="-86" yMin="0" xMax="1036" yMax="1088">
      <component glyphName="uni062D.medi" x="0" y="0" flags="0x204"/>
      <component glyphName="_tah" x="411" y="734" flags="0x4"/>
    </TTGlyph>
    <TTGlyph name="absJehRetro1" xMin="-111" yMin="-344" xMax="588" yMax="1181">
      <component glyphName="uni0631" x="0" y="0" flags="0x204"/>
      <component glyphName="_dot2h_tah" x="376" y="616" flags="0x4"/>
    </TTGlyph>
    <TTGlyph name="absJehRetro1Fin" xMin="-43" yMin="-377" xMax="691" yMax="1032">
      <component glyphName="uni0631.fina" x="0" y="0" flags="0x204"/>
      <component glyphName="_dot2h_tah" x="418" y="467" flags="0x4"/>
    </TTGlyph>
    <TTGlyph name="absJehRetro2" xMin="-111" yMin="-344" xMax="588" yMax="1407">
      <component glyphName="uni0631" x="0" y="0" flags="0x204"/>
      <component glyphName="_dot3u_tah" x="376" y="722" flags="0x4"/>
    </TTGlyph>
    <TTGlyph name="absJehRetro2Fin" xMin="-43" yMin="-377" xMax="691" yMax="1258">
      <component glyphName="uni0631.fina" x="0" y="0" flags="0x204"/>
      <component glyphName="_dot3u_tah" x="418" y="573" flags="0x4"/>
    </TTGlyph>
    <TTGlyph name="absLamRetro" xMin="42" yMin="-18" xMax="738" yMax="1928">
      <component glyphName="uni0644" x="0" y="0" flags="0x204"/>
      <component glyphName="_tah" x="531" y="1574" flags="0x4"/>
    </TTGlyph>
    <TTGlyph name="absLamRetroAlef" xMin="127" yMin="-201" xMax="978" yMax="1679">
      <component glyphName="uni06440627" x="0" y="0" flags="0x204"/>
      <component glyphName="_tah" x="771" y="1325" flags="0x4"/>
    </TTGlyph>
    <TTGlyph name="absLamRetroAlefFin" xMin="106" yMin="-201" xMax="1134" yMax="1662">
      <component glyphName="uni06440627.fina" x="0" y="0" flags="0x204"/>
      <component glyphName="_tah" x="773" y="1308" flags="0x4"/>
    </TTGlyph>
    <TTGlyph name="absLamRetroFin" xMin="25" yMin="-406" xMax="1010" yMax="1662">
      <component glyphName="uni0644.fina" x="0" y="0" flags="0x204"/>
      <component glyphName="_tah" x="586" y="1308" flags="0x4"/>
    </TTGlyph>
    <TTGlyph name="absLamRetroIni" xMin="-86" yMin="0" xMax="382" yMax="1674">
      <component glyphName="uni0644.init" x="0" y="0" flags="0x204"/>
      <component glyphName="_tah" x="175" y="1320" flags="0x4"/>
    </TTGlyph>
    <TTGlyph name="absLamRetroIni.preAlef" xMin="-374" yMin="-201" xMax="402" yMax="1679">
      <component glyphName="uni0644.init.preAlef" x="0" y="0" flags="0x204"/>
      <component glyphName="_tah" x="195" y="1325" flags="0x4"/>
    </TTGlyph>
    <TTGlyph name="absLamRetroMed" xMin="-85" yMin="0" xMax="519" yMax="1680">
      <component glyphName="uni0644.medi" x="0" y="0" flags="0x204"/>
      <component glyphName="_tah" x="168" y="1326" flags="0x4"/>
    </TTGlyph>
    <TTGlyph name="absLamRetroMed.preAlef" xMin="-342" yMin="-201" xMax="584" yMax="1662">
      <component glyphName="uni0644.medi.preAlef" x="0" y="0" flags="0x204"/>
      <component glyphName="_tah" x="223" y="1308" flags="0x4"/>
    </TTGlyph>
    <TTGlyph name="absShaddaAlef" xMin="-20" yMin="1049" xMax="287" yMax="1741">
      <contour>
        <pt x="201" y="1118" on="1"/>
        <pt x="185" y="1118" on="0"/>
        <pt x="168" y="1129" on="0"/>
        <pt x="154" y="1133" on="1"/>
        <pt x="145" y="1121" on="0"/>
        <pt x="123" y="1092" on="0"/>
        <pt x="97" y="1067" on="0"/>
        <pt x="67" y="1049" on="0"/>
        <pt x="49" y="1049" on="1"/>
        <pt x="29" y="1049" on="0"/>
        <pt x="3" y="1088" on="0"/>
        <pt x="-12" y="1142" on="0"/>
        <pt x="-19" y="1197" on="0"/>
        <pt x="-20" y="1212" on="1"/>
        <pt x="10" y="1229" on="1"/>
        <pt x="8" y="1225" on="1"/>
        <pt x="8" y="1213" on="0"/>
        <pt x="15" y="1184" on="0"/>
        <pt x="29" y="1159" on="0"/>
        <pt x="50" y="1141" on="0"/>
        <pt x="63" y="1141" on="1"/>
        <pt x="78" y="1141" on="0"/>
        <pt x="102" y="1176" on="0"/>
        <pt x="116" y="1223" on="0"/>
        <pt x="120" y="1269" on="0"/>
        <pt x="115" y="1280" on="1"/>
        <pt x="150" y="1298" on="1"/>
        <pt x="151" y="1290" on="0"/>
        <pt x="157" y="1258" on="0"/>
        <pt x="169" y="1227" on="0"/>
        <pt x="186" y="1204" on="0"/>
        <pt x="197" y="1204" on="1"/>
        <pt x="212" y="1204" on="0"/>
        <pt x="232" y="1237" on="0"/>
        <pt x="246" y="1281" on="0"/>
        <pt x="252" y="1325" on="0"/>
        <pt x="252" y="1335" on="1"/>
        <pt x="252" y="1338" on="0"/>
        <pt x="250" y="1349" on="0"/>
        <pt x="248" y="1352" on="1"/>
        <pt x="283" y="1370" on="1"/>
        <pt x="285" y="1353" on="0"/>
        <pt x="287" y="1320" on="0"/>
        <pt x="287" y="1303" on="1"/>
        <pt x="287" y="1280" on="0"/>
        <pt x="284" y="1216" on="0"/>
        <pt x="267" y="1158" on="0"/>
        <pt x="233" y="1118" on="0"/>
      </contour>
      <contour>
        <pt x="152" y="1741" on="1"/>
        <pt x="154" y="1649" on="1"/>
        <pt x="154" y="1637" on="0"/>
        <pt x="158" y="1599" on="0"/>
        <pt x="162" y="1554" on="0"/>
        <pt x="163" y="1506" on="0"/>
        <pt x="160" y="1485" on="1"/>
        <pt x="155" y="1443" on="0"/>
        <pt x="134" y="1399" on="0"/>
        <pt x="124" y="1388" on="1"/>
        <pt x="113" y="1376" on="0"/>
        <pt x="100" y="1374" on="1"/>
        <pt x="101" y="1390" on="0"/>
        <pt x="99" y="1412" on="1"/>
        <pt x="97" y="1431" on="0"/>
        <pt x="92" y="1487" on="0"/>
        <pt x="86" y="1522" on="1"/>
        <pt x="82" y="1546" on="0"/>
        <pt x="78" y="1592" on="0"/>
        <pt x="77" y="1611" on="1"/>
        <pt x="76" y="1633" on="0"/>
        <pt x="76" y="1653" on="1"/>
      </contour>
    </TTGlyph>
    <TTGlyph name="absSheenRetro1" xMin="32" yMin="-420" xMax="1319" yMax="1430">
      <component glyphName="uni0633" x="0" y="0" flags="0x204"/>
      <component glyphName="_dot3u_tah" x="957" y="745" flags="0x4"/>
    </TTGlyph>
    <TTGlyph name="absSheenRetro1Fin" xMin="51" yMin="-420" xMax="1545" yMax="1382">
      <component glyphName="uni0633.fina" x="0" y="0" flags="0x204"/>
      <component glyphName="_dot3u_tah" x="1024" y="697" flags="0x4"/>
    </TTGlyph>
    <TTGlyph name="absSheenRetro1Ini" xMin="-86" yMin="-2" xMax="809" yMax="1395">
      <component glyphName="uni0633.init" x="0" y="0" flags="0x204"/>
      <component glyphName="_dot3u_tah" x="486" y="710" flags="0x4"/>
    </TTGlyph>
    <TTGlyph name="absSheenRetro1Med" xMin="-86" yMin="-6" xMax="1113" yMax="1389">
      <component glyphName="uni0633.medi" x="0" y="0" flags="0x204"/>
      <component glyphName="_dot3u_tah" x="598" y="704" flags="0x4"/>
    </TTGlyph>
    <TTGlyph name="absSheenRetro2" xMin="32" yMin="-420" xMax="1319" yMax="1204">
      <component glyphName="uni0633" x="0" y="0" flags="0x204"/>
      <component glyphName="_dot2h_tah" x="957" y="639" flags="0x4"/>
    </TTGlyph>
    <TTGlyph name="absSheenRetro2Fin" xMin="51" yMin="-420" xMax="1545" yMax="1156">
      <component glyphName="uni0633.fina" x="0" y="0" flags="0x204"/>
      <component glyphName="_dot2h_tah" x="1024" y="591" flags="0x4"/>
    </TTGlyph>
    <TTGlyph name="absSheenRetro2Ini" xMin="-86" yMin="-2" xMax="809" yMax="1169">
      <component glyphName="uni0633.init" x="0" y="0" flags="0x204"/>
      <component glyphName="_dot2h_tah" x="486" y="604" flags="0x4"/>
    </TTGlyph>
    <TTGlyph name="absSheenRetro2Med" xMin="-86" yMin="-6" xMax="1113" yMax="1163">
      <component glyphName="uni0633.medi" x="0" y="0" flags="0x204"/>
      <component glyphName="_dot2h_tah" x="598" y="598" flags="0x4"/>
    </TTGlyph>
    <TTGlyph name="absTchehRetro1" xMin="45" yMin="-676" xMax="938" yMax="1128">
      <component glyphName="uni062D" x="0" y="0" flags="0x204"/>
      <component glyphName="_tah" x="491" y="774" flags="0x4"/>
      <component glyphName="_dot3d" x="494" y="-78" flags="0x4"/>
    </TTGlyph>
    <TTGlyph name="absTchehRetro1Fin" xMin="25" yMin="-711" xMax="971" yMax="1076">
      <component glyphName="uni062D.fina" x="0" y="0" flags="0x204"/>
      <component glyphName="_tah" x="436" y="722" flags="0x4"/>
      <component glyphName="_dot3d" x="424" y="-211" flags="0x4"/>
    </TTGlyph>
    <TTGlyph name="absTchehRetro1Ini" xMin="-87" yMin="-496" xMax="713" yMax="1095">
      <component glyphName="uni062D.init" x="0" y="0" flags="0x204"/>
      <component glyphName="_tah" x="305" y="741" flags="0x4"/>
      <component glyphName="_dot3d" x="330" y="-285" flags="0x4"/>
    </TTGlyph>
    <TTGlyph name="absTchehRetro1Med" xMin="-86" yMin="-484" xMax="1036" yMax="1088">
      <component glyphName="uni062D.medi" x="0" y="0" flags="0x204"/>
      <component glyphName="_tah" x="411" y="734" flags="0x4"/>
      <component glyphName="_dot3d" x="443" y="-273" flags="0x4"/>
    </TTGlyph>
    <TTGlyph name="absTchehRetro2" xMin="45" yMin="-676" xMax="938" yMax="574">
      <component glyphName="uni062D" x="0" y="0" flags="0x204"/>
      <component glyphName="_dot2h_tah" x="494" y="-266" flags="0x4"/>
    </TTGlyph>
    <TTGlyph name="absTchehRetro2Fin" xMin="25" yMin="-711" xMax="971" yMax="512">
      <component glyphName="uni062D.fina" x="0" y="0" flags="0x204"/>
      <component glyphName="_dot2h_tah" x="424" y="-399" flags="0x4"/>
    </TTGlyph>
    <TTGlyph name="absTchehRetro2Ini" xMin="-87" yMin="-739" xMax="713" yMax="530">
      <component glyphName="uni062D.init" x="0" y="0" flags="0x204"/>
      <component glyphName="_dot2h_tah" x="330" y="-635" flags="0x4"/>
    </TTGlyph>
    <TTGlyph name="absTchehRetro2Med" xMin="-86" yMin="-727" xMax="1036" yMax="530">
      <component glyphName="uni062D.medi" x="0" y="0" flags="0x204"/>
      <component glyphName="_dot2h_tah" x="443" y="-623" flags="0x4"/>
    </TTGlyph>
    <TTGlyph name="absWawDotBelow" xMin="-107" yMin="-619" xMax="530" yMax="449">
      <component glyphName="uni0648" x="0" y="0" flags="0x204"/>
      <component glyphName="_dot1" x="396" y="-515" flags="0x4"/>
    </TTGlyph>
    <TTGlyph name="absWawDotBelowFin" xMin="-51" yMin="-640" xMax="799" yMax="362">
      <component glyphName="uni0648.fina" x="0" y="0" flags="0x204"/>
      <component glyphName="_dot1" x="450" y="-536" flags="0x4"/>
    </TTGlyph>
    <TTGlyph name="acircumflex" xMin="55" yMin="-14" xMax="684" yMax="1035">
      <component glyphName="a" x="0" y="0" flags="0x204"/>
      <component glyphName="circumflex" x="94" y="-9" flags="0x4"/>
    </TTGlyph>
    <TTGlyph name="acute" xMin="88" yMin="786" xMax="434" yMax="1051">
      <contour>
        <pt x="434" y="1001" on="1"/>
        <pt x="434" y="989" on="0"/>
        <pt x="422" y="967" on="0"/>
        <pt x="403" y="948" on="0"/>
        <pt x="382" y="932" on="0"/>
        <pt x="373" y="926" on="1"/>
        <pt x="150" y="786" on="1"/>
        <pt x="88" y="786" on="1"/>
        <pt x="301" y="1001" on="1"/>
        <pt x="320" y="1020" on="0"/>
        <pt x="367" y="1051" on="0"/>
        <pt x="395" y="1051" on="1"/>
        <pt x="402" y="1051" on="0"/>
        <pt x="416" y="1041" on="0"/>
        <pt x="427" y="1026" on="0"/>
        <pt x="434" y="1008" on="0"/>
      </contour>
    </TTGlyph>
    <TTGlyph name="adieresis" xMin="55" yMin="-14" xMax="684" yMax="992">
      <component glyphName="a" x="0" y="0" flags="0x204"/>
      <component glyphName="dieresis" x="94" y="-9" flags="0x4"/>
    </TTGlyph>
    <TTGlyph name="ae" xMin="55" yMin="-22" xMax="984" yMax="710">
      <contour>
        <pt x="984" y="241" on="1"/>
        <pt x="970" y="190" on="0"/>
        <pt x="925" y="95" on="0"/>
        <pt x="857" y="22" on="0"/>
        <pt x="765" y="-22" on="0"/>
        <pt x="704" y="-22" on="1"/>
        <pt x="678" y="-22" on="0"/>
        <pt x="626" y="-16" on="0"/>
        <pt x="572" y="8" on="0"/>
        <pt x="515" y="56" on="0"/>
        <pt x="482" y="99" on="1"/>
        <pt x="466" y="85" on="0"/>
        <pt x="415" y="44" on="0"/>
        <pt x="349" y="5" on="0"/>
        <pt x="269" y="-22" on="0"/>
        <pt x="224" y="-22" on="1"/>
        <pt x="189" y="-22" on="0"/>
        <pt x="128" y="5" on="0"/>
        <pt x="82" y="52" on="0"/>
        <pt x="55" y="116" on="0"/>
        <pt x="55" y="152" on="1"/>
        <pt x="55" y="204" on="0"/>
        <pt x="95" y="280" on="0"/>
        <pt x="183" y="345" on="0"/>
        <pt x="324" y="410" on="0"/>
        <pt x="425" y="450" on="1"/>
        <pt x="425" y="519" on="1"/>
        <pt x="425" y="602" on="0"/>
        <pt x="365" y="669" on="0"/>
        <pt x="313" y="669" on="1"/>
        <pt x="264" y="669" on="0"/>
        <pt x="208" y="622" on="0"/>
        <pt x="207" y="588" on="1"/>
        <pt x="206" y="549" on="0"/>
        <pt x="198" y="502" on="0"/>
        <pt x="184" y="478" on="0"/>
        <pt x="162" y="470" on="0"/>
        <pt x="147" y="468" on="1"/>
        <pt x="110" y="468" on="0"/>
        <pt x="79" y="511" on="0"/>
        <pt x="79" y="540" on="1"/>
        <pt x="79" y="568" on="0"/>
        <pt x="109" y="628" on="0"/>
        <pt x="171" y="678" on="0"/>
        <pt x="267" y="710" on="0"/>
        <pt x="333" y="710" on="1"/>
        <pt x="427" y="710" on="0"/>
        <pt x="521" y="659" on="0"/>
        <pt x="536" y="619" on="1"/>
        <pt x="573" y="670" on="0"/>
        <pt x="671" y="710" on="0"/>
        <pt x="738" y="710" on="1"/>
        <pt x="850" y="710" on="0"/>
        <pt x="982" y="564" on="0"/>
        <pt x="984" y="428" on="1"/>
        <pt x="553" y="428" on="1"/>
        <pt x="553" y="335" on="0"/>
        <pt x="568" y="217" on="0"/>
        <pt x="591" y="180" on="1"/>
        <pt x="606" y="154" on="0"/>
        <pt x="645" y="120" on="0"/>
        <pt x="687" y="100" on="0"/>
        <pt x="729" y="92" on="0"/>
        <pt x="746" y="92" on="1"/>
        <pt x="757" y="92" on="0"/>
        <pt x="807" y="97" on="0"/>
        <pt x="869" y="128" on="0"/>
        <pt x="935" y="196" on="0"/>
        <pt x="960" y="258" on="1"/>
      </contour>
      <contour>
        <pt x="839" y="477" on="1"/>
        <pt x="838" y="525" on="0"/>
        <pt x="816" y="594" on="0"/>
        <pt x="779" y="638" on="0"/>
        <pt x="729" y="658" on="0"/>
        <pt x="700" y="658" on="1"/>
        <pt x="671" y="658" on="0"/>
        <pt x="618" y="636" on="0"/>
        <pt x="578" y="591" on="0"/>
        <pt x="554" y="523" on="0"/>
        <pt x="553" y="477" on="1"/>
      </contour>
      <contour>
        <pt x="461" y="140" on="1"/>
        <pt x="453" y="155" on="0"/>
        <pt x="440" y="199" on="0"/>
        <pt x="430" y="250" on="0"/>
        <pt x="425" y="307" on="0"/>
        <pt x="425" y="334" on="1"/>
        <pt x="425" y="401" on="1"/>
        <pt x="383" y="385" on="0"/>
        <pt x="296" y="349" on="0"/>
        <pt x="227" y="301" on="0"/>
        <pt x="183" y="237" on="0"/>
        <pt x="183" y="194" on="1"/>
        <pt x="183" y="166" on="0"/>
        <pt x="202" y="118" on="0"/>
        <pt x="234" y="81" on="0"/>
        <pt x="278" y="60" on="0"/>
        <pt x="303" y="59" on="1"/>
        <pt x="318" y="59" on="0"/>
        <pt x="347" y="65" on="0"/>
        <pt x="383" y="83" on="0"/>
        <pt x="430" y="115" on="0"/>
      </contour>
    </TTGlyph>
    <TTGlyph name="agrave" xMin="55" yMin="-14" xMax="684" yMax="1051">
      <component glyphName="a" x="0" y="0" flags="0x204"/>
      <component glyphName="grave" x="42" y="0" flags="0x4"/>
    </TTGlyph>
    <TTGlyph name="ampersand" xMin="57" yMin="-25" xMax="1153" yMax="1044">
      <contour>
        <pt x="1153" y="184" on="1"/>
        <pt x="1144" y="140" on="0"/>
        <pt x="1104" y="63" on="0"/>
        <pt x="1046" y="7" on="0"/>
        <pt x="969" y="-25" on="0"/>
        <pt x="922" y="-25" on="1"/>
        <pt x="882" y="-25" on="0"/>
        <pt x="808" y="0" on="0"/>
        <pt x="741" y="42" on="0"/>
        <pt x="681" y="95" on="0"/>
        <pt x="655" y="123" on="1"/>
        <pt x="618" y="91" on="0"/>
        <pt x="545" y="36" on="0"/>
        <pt x="467" y="-3" on="0"/>
        <pt x="379" y="-25" on="0"/>
        <pt x="328" y="-25" on="1"/>
        <pt x="277" y="-25" on="0"/>
        <pt x="180" y="4" on="0"/>
        <pt x="104" y="61" on="0"/>
        <pt x="57" y="147" on="0"/>
        <pt x="57" y="203" on="1"/>
        <pt x="57" y="268" on="0"/>
        <pt x="116" y="379" on="0"/>
        <pt x="207" y="471" on="0"/>
        <pt x="319" y="544" on="0"/>
        <pt x="371" y="571" on="1"/>
        <pt x="346" y="622" on="0"/>
        <pt x="307" y="740" on="0"/>
        <pt x="307" y="797" on="1"/>
        <pt x="307" y="854" on="0"/>
        <pt x="347" y="946" on="0"/>
        <pt x="417" y="1010" on="0"/>
        <pt x="513" y="1044" on="0"/>
        <pt x="569" y="1044" on="1"/>
        <pt x="611" y="1044" on="0"/>
        <pt x="685" y="1020" on="0"/>
        <pt x="741" y="974" on="0"/>
        <pt x="774" y="906" on="0"/>
        <pt x="774" y="862" on="1"/>
        <pt x="774" y="809" on="0"/>
        <pt x="727" y="726" on="0"/>
        <pt x="654" y="661" on="0"/>
        <pt x="566" y="611" on="0"/>
        <pt x="526" y="590" on="1"/>
        <pt x="571" y="508" on="0"/>
        <pt x="670" y="353" on="0"/>
        <pt x="727" y="279" on="1"/>
        <pt x="748" y="305" on="0"/>
        <pt x="795" y="368" on="0"/>
        <pt x="833" y="437" on="0"/>
        <pt x="858" y="510" on="0"/>
        <pt x="858" y="545" on="1"/>
        <pt x="858" y="560" on="0"/>
        <pt x="849" y="590" on="0"/>
        <pt x="831" y="614" on="0"/>
        <pt x="804" y="629" on="0"/>
        <pt x="786" y="629" on="1"/>
        <pt x="786" y="657" on="1"/>
        <pt x="1104" y="657" on="1"/>
        <pt x="1104" y="629" on="1"/>
        <pt x="1095" y="629" on="0"/>
        <pt x="1071" y="625" on="0"/>
        <pt x="1045" y="619" on="0"/>
        <pt x="1020" y="608" on="0"/>
        <pt x="1010" y="600" on="1"/>
        <pt x="998" y="590" on="0"/>
        <pt x="970" y="554" on="0"/>
        <pt x="944" y="513" on="0"/>
        <pt x="921" y="473" on="0"/>
        <pt x="913" y="459" on="1"/>
        <pt x="879" y="399" on="0"/>
        <pt x="805" y="287" on="0"/>
        <pt x="762" y="233" on="1"/>
        <pt x="783" y="210" on="0"/>
        <pt x="833" y="160" on="0"/>
        <pt x="891" y="119" on="0"/>
        <pt x="954" y="92" on="0"/>
        <pt x="987" y="92" on="1"/>
        <pt x="1044" y="92" on="0"/>
        <pt x="1112" y="149" on="0"/>
        <pt x="1126" y="203" on="1"/>
      </contour>
      <contour>
        <pt x="686" y="864" on="1"/>
        <pt x="686" y="890" on="0"/>
        <pt x="670" y="936" on="0"/>
        <pt x="639" y="970" on="0"/>
        <pt x="596" y="991" on="0"/>
        <pt x="569" y="991" on="1"/>
        <pt x="541" y="991" on="0"/>
        <pt x="492" y="970" on="0"/>
        <pt x="456" y="934" on="0"/>
        <pt x="436" y="885" on="0"/>
        <pt x="436" y="856" on="1"/>
        <pt x="436" y="830" on="0"/>
        <pt x="448" y="773" on="0"/>
        <pt x="466" y="717" on="0"/>
        <pt x="489" y="663" on="0"/>
        <pt x="500" y="639" on="1"/>
        <pt x="535" y="655" on="0"/>
        <pt x="602" y="698" on="0"/>
        <pt x="654" y="753" on="0"/>
        <pt x="686" y="822" on="0"/>
      </contour>
      <contour>
        <pt x="616" y="166" on="1"/>
        <pt x="551" y="254" on="0"/>
        <pt x="444" y="424" on="0"/>
        <pt x="393" y="520" on="1"/>
        <pt x="357" y="500" on="0"/>
        <pt x="292" y="450" on="0"/>
        <pt x="242" y="388" on="0"/>
        <pt x="213" y="314" on="0"/>
        <pt x="213" y="270" on="1"/>
        <pt x="213" y="229" on="0"/>
        <pt x="240" y="155" on="0"/>
        <pt x="290" y="100" on="0"/>
        <pt x="360" y="68" on="0"/>
        <pt x="403" y="68" on="1"/>
        <pt x="433" y="68" on="0"/>
        <pt x="490" y="85" on="0"/>
        <pt x="544" y="113" on="0"/>
        <pt x="594" y="148" on="0"/>
      </contour>
    </TTGlyph>
    <TTGlyph name="aring" xMin="55" yMin="-14" xMax="684" yMax="1074">
      <component glyphName="a" x="0" y="0" flags="0x204"/>
      <component glyphName="ring" x="192" y="0" flags="0x4"/>
    </TTGlyph>
    <TTGlyph name="asciicircum" xMin="354" yMin="14" xMax="1130" yMax="905">
      <contour>
        <pt x="1038" y="14" on="1"/>
        <pt x="743" y="811" on="1"/>
        <pt x="446" y="14" on="1"/>
        <pt x="354" y="14" on="1"/>
        <pt x="696" y="905" on="1"/>
        <pt x="788" y="905" on="1"/>
        <pt x="1130" y="14" on="1"/>
      </contour>
    </TTGlyph>
    <TTGlyph name="asciitilde" xMin="31" yMin="279" xMax="811" yMax="532">
      <contour>
        <pt x="811" y="475" on="1"/>
        <pt x="795" y="444" on="0"/>
        <pt x="753" y="385" on="0"/>
        <pt x="700" y="339" on="0"/>
        <pt x="636" y="311" on="0"/>
        <pt x="598" y="311" on="1"/>
        <pt x="551" y="311" on="0"/>
        <pt x="461" y="346" on="0"/>
        <pt x="371" y="387" on="0"/>
        <pt x="282" y="422" on="0"/>
        <pt x="236" y="422" on="1"/>
        <pt x="205" y="422" on="0"/>
        <pt x="157" y="395" on="0"/>
        <pt x="118" y="353" on="0"/>
        <pt x="86" y="303" on="0"/>
        <pt x="72" y="279" on="1"/>
        <pt x="31" y="334" on="1"/>
        <pt x="48" y="366" on="0"/>
        <pt x="87" y="430" on="0"/>
        <pt x="138" y="481" on="0"/>
        <pt x="202" y="512" on="0"/>
        <pt x="244" y="512" on="1"/>
        <pt x="287" y="512" on="0"/>
        <pt x="383" y="476" on="0"/>
        <pt x="479" y="433" on="0"/>
        <pt x="569" y="397" on="0"/>
        <pt x="606" y="397" on="1"/>
        <pt x="635" y="397" on="0"/>
        <pt x="684" y="421" on="0"/>
        <pt x="724" y="459" on="0"/>
        <pt x="756" y="508" on="0"/>
        <pt x="768" y="532" on="1"/>
      </contour>
    </TTGlyph>
    <TTGlyph name="asterisk" xMin="110" yMin="447" xMax="664" yMax="1073">
      <contour>
        <pt x="664" y="886" on="1"/>
        <pt x="664" y="853" on="0"/>
        <pt x="606" y="813" on="0"/>
        <pt x="526" y="786" on="0"/>
        <pt x="444" y="768" on="0"/>
        <pt x="421" y="759" on="1"/>
        <pt x="446" y="749" on="0"/>
        <pt x="527" y="730" on="0"/>
        <pt x="605" y="703" on="0"/>
        <pt x="662" y="664" on="0"/>
        <pt x="662" y="633" on="1"/>
        <pt x="662" y="608" on="0"/>
        <pt x="630" y="578" on="0"/>
        <pt x="606" y="578" on="1"/>
        <pt x="581" y="578" on="0"/>
        <pt x="527" y="615" on="0"/>
        <pt x="473" y="665" on="0"/>
        <pt x="423" y="718" on="0"/>
        <pt x="403" y="733" on="1"/>
        <pt x="403" y="705" on="0"/>
        <pt x="417" y="653" on="0"/>
        <pt x="434" y="603" on="0"/>
        <pt x="448" y="553" on="0"/>
        <pt x="448" y="527" on="1"/>
        <pt x="448" y="497" on="0"/>
        <pt x="417" y="447" on="0"/>
        <pt x="383" y="447" on="1"/>
        <pt x="369" y="447" on="0"/>
        <pt x="347" y="462" on="0"/>
        <pt x="333" y="484" on="0"/>
        <pt x="326" y="511" on="0"/>
        <pt x="326" y="524" on="1"/>
        <pt x="326" y="549" on="0"/>
        <pt x="337" y="602" on="0"/>
        <pt x="352" y="656" on="0"/>
        <pt x="369" y="710" on="0"/>
        <pt x="374" y="734" on="1"/>
        <pt x="353" y="719" on="0"/>
        <pt x="301" y="666" on="0"/>
        <pt x="246" y="615" on="0"/>
        <pt x="193" y="577" on="0"/>
        <pt x="171" y="577" on="1"/>
        <pt x="148" y="577" on="0"/>
        <pt x="110" y="606" on="0"/>
        <pt x="110" y="630" on="1"/>
        <pt x="110" y="661" on="0"/>
        <pt x="169" y="703" on="0"/>
        <pt x="249" y="732" on="0"/>
        <pt x="333" y="751" on="0"/>
        <pt x="357" y="759" on="1"/>
        <pt x="342" y="768" on="0"/>
        <pt x="293" y="781" on="0"/>
        <pt x="238" y="794" on="0"/>
        <pt x="183" y="810" on="0"/>
        <pt x="138" y="832" on="0"/>
        <pt x="110" y="864" on="0"/>
        <pt x="110" y="887" on="1"/>
        <pt x="110" y="912" on="0"/>
        <pt x="141" y="942" on="0"/>
        <pt x="166" y="942" on="1"/>
        <pt x="190" y="942" on="0"/>
        <pt x="247" y="905" on="0"/>
        <pt x="302" y="854" on="0"/>
        <pt x="354" y="802" on="0"/>
        <pt x="373" y="786" on="1"/>
        <pt x="370" y="809" on="0"/>
        <pt x="355" y="867" on="0"/>
        <pt x="339" y="924" on="0"/>
        <pt x="326" y="975" on="0"/>
        <pt x="326" y="992" on="1"/>
        <pt x="326" y="1022" on="0"/>
        <pt x="357" y="1073" on="0"/>
        <pt x="391" y="1073" on="1"/>
        <pt x="405" y="1073" on="0"/>
        <pt x="427" y="1058" on="0"/>
        <pt x="441" y="1035" on="0"/>
        <pt x="448" y="1008" on="0"/>
        <pt x="448" y="995" on="1"/>
        <pt x="448" y="971" on="0"/>
        <pt x="437" y="918" on="0"/>
        <pt x="422" y="864" on="0"/>
        <pt x="407" y="811" on="0"/>
        <pt x="403" y="786" on="1"/>
        <pt x="426" y="802" on="0"/>
        <pt x="477" y="854" on="0"/>
        <pt x="530" y="904" on="0"/>
        <pt x="582" y="940" on="0"/>
        <pt x="605" y="940" on="1"/>
        <pt x="627" y="940" on="0"/>
        <pt x="664" y="909" on="0"/>
      </contour>
    </TTGlyph>
    <TTGlyph name="asterisk.arab" xMin="24" yMin="-190" xMax="812" yMax="705">
      <contour>
        <pt x="406" y="705" on="1"/>
        <pt x="449" y="703" on="0"/>
        <pt x="479" y="648" on="0"/>
        <pt x="479" y="606" on="1"/>
        <pt x="479" y="582" on="0"/>
        <pt x="472" y="528" on="0"/>
        <pt x="463" y="475" on="0"/>
        <pt x="456" y="428" on="0"/>
        <pt x="456" y="410" on="1"/>
        <pt x="456" y="393" on="0"/>
        <pt x="465" y="372" on="0"/>
        <pt x="477" y="372" on="1"/>
        <pt x="488" y="372" on="0"/>
        <pt x="521" y="395" on="0"/>
        <pt x="561" y="430" on="0"/>
        <pt x="607" y="471" on="0"/>
        <pt x="654" y="506" on="0"/>
        <pt x="703" y="529" on="0"/>
        <pt x="726" y="529" on="1"/>
        <pt x="741" y="529" on="0"/>
        <pt x="771" y="514" on="0"/>
        <pt x="796" y="490" on="0"/>
        <pt x="812" y="459" on="0"/>
        <pt x="812" y="443" on="1"/>
        <pt x="812" y="417" on="0"/>
        <pt x="771" y="374" on="0"/>
        <pt x="709" y="339" on="0"/>
        <pt x="638" y="311" on="0"/>
        <pt x="576" y="286" on="0"/>
        <pt x="535" y="266" on="0"/>
        <pt x="535" y="256" on="1"/>
        <pt x="535" y="246" on="0"/>
        <pt x="574" y="229" on="0"/>
        <pt x="633" y="209" on="0"/>
        <pt x="702" y="186" on="0"/>
        <pt x="761" y="154" on="0"/>
        <pt x="800" y="111" on="0"/>
        <pt x="800" y="81" on="1"/>
        <pt x="800" y="57" on="0"/>
        <pt x="785" y="24" on="0"/>
        <pt x="763" y="2" on="0"/>
        <pt x="738" y="-8" on="0"/>
        <pt x="728" y="-8" on="1"/>
        <pt x="696" y="-8" on="0"/>
        <pt x="620" y="40" on="0"/>
        <pt x="549" y="97" on="0"/>
        <pt x="491" y="145" on="0"/>
        <pt x="477" y="145" on="1"/>
        <pt x="467" y="145" on="0"/>
        <pt x="467" y="127" on="1"/>
        <pt x="467" y="113" on="0"/>
        <pt x="475" y="68" on="0"/>
        <pt x="484" y="14" on="0"/>
        <pt x="492" y="-46" on="0"/>
        <pt x="492" y="-74" on="1"/>
        <pt x="492" y="-97" on="0"/>
        <pt x="484" y="-139" on="0"/>
        <pt x="466" y="-171" on="0"/>
        <pt x="434" y="-190" on="0"/>
        <pt x="410" y="-190" on="1"/>
        <pt x="385" y="-190" on="0"/>
        <pt x="351" y="-173" on="0"/>
        <pt x="332" y="-143" on="0"/>
        <pt x="324" y="-101" on="0"/>
        <pt x="324" y="-76" on="1"/>
        <pt x="324" y="-49" on="0"/>
        <pt x="331" y="8" on="0"/>
        <pt x="340" y="62" on="0"/>
        <pt x="347" y="109" on="0"/>
        <pt x="347" y="125" on="1"/>
        <pt x="347" y="152" on="0"/>
        <pt x="334" y="152" on="1"/>
        <pt x="325" y="152" on="0"/>
        <pt x="297" y="128" on="0"/>
        <pt x="262" y="93" on="0"/>
        <pt x="221" y="52" on="0"/>
        <pt x="176" y="17" on="0"/>
        <pt x="129" y="-7" on="0"/>
        <pt x="105" y="-7" on="1"/>
        <pt x="93" y="-7" on="0"/>
        <pt x="65" y="3" on="0"/>
        <pt x="41" y="21" on="0"/>
        <pt x="24" y="45" on="0"/>
        <pt x="24" y="59" on="1"/>
        <pt x="24" y="81" on="0"/>
        <pt x="62" y="123" on="0"/>
        <pt x="119" y="163" on="0"/>
        <pt x="186" y="199" on="0"/>
        <pt x="243" y="230" on="0"/>
        <pt x="281" y="256" on="0"/>
        <pt x="281" y="265" on="1"/>
        <pt x="281" y="281" on="0"/>
        <pt x="243" y="303" on="0"/>
        <pt x="187" y="321" on="0"/>
        <pt x="121" y="341" on="0"/>
        <pt x="65" y="369" on="0"/>
        <pt x="27" y="410" on="0"/>
        <pt x="27" y="440" on="1"/>
        <pt x="27" y="458" on="0"/>
        <pt x="38" y="492" on="0"/>
        <pt x="56" y="517" on="0"/>
        <pt x="80" y="533" on="0"/>
        <pt x="93" y="533" on="1"/>
        <pt x="114" y="533" on="0"/>
        <pt x="162" y="509" on="0"/>
        <pt x="212" y="473" on="0"/>
        <pt x="261" y="431" on="0"/>
        <pt x="304" y="395" on="0"/>
        <pt x="338" y="371" on="0"/>
        <pt x="348" y="371" on="1"/>
        <pt x="360" y="371" on="0"/>
        <pt x="360" y="392" on="1"/>
        <pt x="360" y="408" on="0"/>
        <pt x="349" y="459" on="0"/>
        <pt x="336" y="518" on="0"/>
        <pt x="325" y="582" on="0"/>
        <pt x="325" y="610" on="1"/>
        <pt x="325" y="651" on="0"/>
        <pt x="359" y="705" on="0"/>
      </contour>
      <contour>
        <pt x="334" y="264" on="1"/>
        <pt x="334" y="248" on="0"/>
        <pt x="347" y="219" on="0"/>
        <pt x="369" y="196" on="0"/>
        <pt x="397" y="182" on="0"/>
        <pt x="413" y="182" on="1"/>
        <pt x="428" y="182" on="0"/>
        <pt x="456" y="195" on="0"/>
        <pt x="477" y="216" on="0"/>
        <pt x="489" y="243" on="0"/>
        <pt x="489" y="258" on="1"/>
        <pt x="489" y="274" on="0"/>
        <pt x="476" y="304" on="0"/>
        <pt x="455" y="328" on="0"/>
        <pt x="426" y="342" on="0"/>
        <pt x="410" y="342" on="1"/>
        <pt x="395" y="342" on="0"/>
        <pt x="368" y="329" on="0"/>
        <pt x="347" y="307" on="0"/>
        <pt x="334" y="279" on="0"/>
      </contour>
    </TTGlyph>
    <TTGlyph name="at" xMin="74" yMin="-334" xMax="1384" yMax="1071">
      <contour>
        <pt x="1384" y="129" on="1"/>
        <pt x="1355" y="22" on="0"/>
        <pt x="1223" y="-149" on="0"/>
        <pt x="1046" y="-269" on="0"/>
        <pt x="837" y="-334" on="0"/>
        <pt x="731" y="-334" on="1"/>
        <pt x="587" y="-334" on="0"/>
        <pt x="346" y="-231" on="0"/>
        <pt x="172" y="-51" on="0"/>
        <pt x="74" y="194" on="0"/>
        <pt x="74" y="336" on="1"/>
        <pt x="74" y="489" on="0"/>
        <pt x="180" y="756" on="0"/>
        <pt x="369" y="956" on="0"/>
        <pt x="630" y="1071" on="0"/>
        <pt x="786" y="1071" on="1"/>
        <pt x="904" y="1071" on="0"/>
        <pt x="1102" y="1000" on="0"/>
        <pt x="1245" y="867" on="0"/>
        <pt x="1325" y="676" on="0"/>
        <pt x="1325" y="555" on="1"/>
        <pt x="1325" y="495" on="0"/>
        <pt x="1302" y="369" on="0"/>
        <pt x="1256" y="251" on="0"/>
        <pt x="1186" y="147" on="0"/>
        <pt x="1094" y="70" on="0"/>
        <pt x="978" y="25" on="0"/>
        <pt x="909" y="25" on="1"/>
        <pt x="854" y="25" on="0"/>
        <pt x="795" y="77" on="0"/>
        <pt x="795" y="133" on="1"/>
        <pt x="795" y="159" on="0"/>
        <pt x="802" y="212" on="0"/>
        <pt x="807" y="238" on="1"/>
        <pt x="783" y="210" on="0"/>
        <pt x="715" y="136" on="0"/>
        <pt x="635" y="70" on="0"/>
        <pt x="551" y="25" on="0"/>
        <pt x="510" y="25" on="1"/>
        <pt x="475" y="25" on="0"/>
        <pt x="424" y="56" on="0"/>
        <pt x="391" y="106" on="0"/>
        <pt x="375" y="167" on="0"/>
        <pt x="375" y="197" on="1"/>
        <pt x="375" y="246" on="0"/>
        <pt x="406" y="363" on="0"/>
        <pt x="462" y="480" on="0"/>
        <pt x="539" y="591" on="0"/>
        <pt x="630" y="676" on="0"/>
        <pt x="734" y="727" on="0"/>
        <pt x="788" y="727" on="1"/>
        <pt x="897" y="727" on="0"/>
        <pt x="920" y="623" on="1"/>
        <pt x="942" y="705" on="1"/>
        <pt x="1061" y="723" on="1"/>
        <pt x="1057" y="711" on="0"/>
        <pt x="1031" y="624" on="0"/>
        <pt x="996" y="505" on="0"/>
        <pt x="957" y="369" on="0"/>
        <pt x="924" y="246" on="0"/>
        <pt x="903" y="151" on="0"/>
        <pt x="903" y="133" on="1"/>
        <pt x="903" y="110" on="0"/>
        <pt x="938" y="78" on="0"/>
        <pt x="961" y="78" on="1"/>
        <pt x="993" y="78" on="0"/>
        <pt x="1051" y="100" on="0"/>
        <pt x="1102" y="137" on="0"/>
        <pt x="1146" y="184" on="0"/>
        <pt x="1165" y="208" on="1"/>
        <pt x="1225" y="286" on="0"/>
        <pt x="1278" y="472" on="0"/>
        <pt x="1278" y="569" on="1"/>
        <pt x="1278" y="676" on="0"/>
        <pt x="1203" y="848" on="0"/>
        <pt x="1072" y="969" on="0"/>
        <pt x="894" y="1034" on="0"/>
        <pt x="791" y="1034" on="1"/>
        <pt x="692" y="1034" on="0"/>
        <pt x="518" y="979" on="0"/>
        <pt x="374" y="882" on="0"/>
        <pt x="261" y="747" on="0"/>
        <pt x="184" y="587" on="0"/>
        <pt x="143" y="408" on="0"/>
        <pt x="143" y="315" on="1"/>
        <pt x="143" y="182" on="0"/>
        <pt x="228" y="-39" on="0"/>
        <pt x="383" y="-198" on="0"/>
        <pt x="602" y="-287" on="0"/>
        <pt x="735" y="-287" on="1"/>
        <pt x="841" y="-287" on="0"/>
        <pt x="1026" y="-228" on="0"/>
        <pt x="1179" y="-120" on="0"/>
        <pt x="1299" y="34" on="0"/>
        <pt x="1341" y="129" on="1"/>
      </contour>
      <contour>
        <pt x="891" y="569" on="1"/>
        <pt x="891" y="593" on="0"/>
        <pt x="883" y="637" on="0"/>
        <pt x="862" y="672" on="0"/>
        <pt x="825" y="692" on="0"/>
        <pt x="797" y="692" on="1"/>
        <pt x="760" y="692" on="0"/>
        <pt x="685" y="641" on="0"/>
        <pt x="618" y="558" on="0"/>
        <pt x="560" y="455" on="0"/>
        <pt x="518" y="350" on="0"/>
        <pt x="494" y="254" on="0"/>
        <pt x="494" y="221" on="1"/>
        <pt x="494" y="203" on="0"/>
        <pt x="505" y="165" on="0"/>
        <pt x="527" y="134" on="0"/>
        <pt x="559" y="115" on="0"/>
        <pt x="580" y="115" on="1"/>
        <pt x="622" y="115" on="0"/>
        <pt x="701" y="162" on="0"/>
        <pt x="770" y="239" on="0"/>
        <pt x="827" y="337" on="0"/>
        <pt x="868" y="438" on="0"/>
        <pt x="891" y="533" on="0"/>
      </contour>
    </TTGlyph>
    <TTGlyph name="atilde" xMin="55" yMin="-14" xMax="684" yMax="1013">
      <component glyphName="a" x="0" y="0" flags="0x204"/>
      <component glyphName="tilde" x="79" y="0" flags="0x4"/>
    </TTGlyph>
    <TTGlyph name="b" xMin="-6" yMin="-23" xMax="719" yMax="1071">
      <contour>
        <pt x="719" y="373" on="1"/>
        <pt x="719" y="297" on="0"/>
        <pt x="668" y="154" on="0"/>
        <pt x="575" y="44" on="0"/>
        <pt x="443" y="-23" on="0"/>
        <pt x="362" y="-23" on="1"/>
        <pt x="293" y="-23" on="0"/>
        <pt x="166" y="29" on="0"/>
        <pt x="111" y="68" on="1"/>
        <pt x="111" y="780" on="1"/>
        <pt x="111" y="798" on="0"/>
        <pt x="114" y="862" on="0"/>
        <pt x="108" y="926" on="0"/>
        <pt x="84" y="973" on="0"/>
        <pt x="57" y="973" on="1"/>
        <pt x="43" y="973" on="0"/>
        <pt x="18" y="966" on="0"/>
        <pt x="4" y="963" on="1"/>
        <pt x="-6" y="989" on="1"/>
        <pt x="203" y="1071" on="1"/>
        <pt x="238" y="1071" on="1"/>
        <pt x="238" y="571" on="1"/>
        <pt x="257" y="598" on="0"/>
        <pt x="304" y="649" on="0"/>
        <pt x="358" y="688" on="0"/>
        <pt x="420" y="711" on="0"/>
        <pt x="455" y="711" on="1"/>
        <pt x="523" y="711" on="0"/>
        <pt x="623" y="650" on="0"/>
        <pt x="688" y="553" on="0"/>
        <pt x="719" y="433" on="0"/>
      </contour>
      <contour>
        <pt x="588" y="330" on="1"/>
        <pt x="588" y="374" on="0"/>
        <pt x="568" y="470" on="0"/>
        <pt x="521" y="551" on="0"/>
        <pt x="447" y="604" on="0"/>
        <pt x="393" y="604" on="1"/>
        <pt x="371" y="604" on="0"/>
        <pt x="328" y="590" on="0"/>
        <pt x="289" y="567" on="0"/>
        <pt x="253" y="539" on="0"/>
        <pt x="238" y="524" on="1"/>
        <pt x="238" y="111" on="1"/>
        <pt x="270" y="77" on="0"/>
        <pt x="353" y="35" on="0"/>
        <pt x="401" y="35" on="1"/>
        <pt x="454" y="35" on="0"/>
        <pt x="526" y="95" on="0"/>
        <pt x="570" y="185" on="0"/>
        <pt x="588" y="288" on="0"/>
      </contour>
    </TTGlyph>
    <TTGlyph name="backslash" xMin="2" yMin="-23" xMax="434" yMax="1071">
      <contour>
        <pt x="373" y="-23" on="1"/>
        <pt x="2" y="1071" on="1"/>
        <pt x="68" y="1071" on="1"/>
        <pt x="434" y="-23" on="1"/>
      </contour>
    </TTGlyph>
    <TTGlyph name="bar" xMin="121" yMin="-334" xMax="186" yMax="1071">
      <contour>
        <pt x="121" y="-334" on="1"/>
        <pt x="121" y="1071" on="1"/>
        <pt x="186" y="1071" on="1"/>
        <pt x="186" y="-334" on="1"/>
      </contour>
    </TTGlyph>
    <TTGlyph name="braceleft" xMin="70" yMin="-481" xMax="418" yMax="1104">
      <contour>
        <pt x="414" y="1034" on="1"/>
        <pt x="354" y="1034" on="0"/>
        <pt x="285" y="1014" on="0"/>
        <pt x="249" y="970" on="0"/>
        <pt x="240" y="903" on="0"/>
        <pt x="240" y="856" on="1"/>
        <pt x="240" y="487" on="1"/>
        <pt x="240" y="447" on="0"/>
        <pt x="213" y="381" on="0"/>
        <pt x="180" y="335" on="0"/>
        <pt x="152" y="309" on="0"/>
        <pt x="152" y="307" on="1"/>
        <pt x="177" y="283" on="0"/>
        <pt x="196" y="254" on="1"/>
        <pt x="213" y="229" on="0"/>
        <pt x="240" y="163" on="0"/>
        <pt x="240" y="125" on="1"/>
        <pt x="240" y="-250" on="1"/>
        <pt x="240" y="-298" on="0"/>
        <pt x="253" y="-362" on="0"/>
        <pt x="292" y="-402" on="0"/>
        <pt x="362" y="-419" on="0"/>
        <pt x="418" y="-420" on="1"/>
        <pt x="418" y="-481" on="1"/>
        <pt x="330" y="-481" on="0"/>
        <pt x="229" y="-443" on="0"/>
        <pt x="179" y="-379" on="0"/>
        <pt x="166" y="-296" on="0"/>
        <pt x="166" y="-250" on="1"/>
        <pt x="166" y="125" on="1"/>
        <pt x="166" y="163" on="0"/>
        <pt x="136" y="227" on="0"/>
        <pt x="100" y="275" on="0"/>
        <pt x="70" y="304" on="0"/>
        <pt x="70" y="307" on="1"/>
        <pt x="70" y="308" on="0"/>
        <pt x="100" y="332" on="0"/>
        <pt x="136" y="377" on="0"/>
        <pt x="166" y="444" on="0"/>
        <pt x="166" y="487" on="1"/>
        <pt x="166" y="856" on="1"/>
        <pt x="166" y="898" on="0"/>
        <pt x="179" y="986" on="0"/>
        <pt x="229" y="1058" on="0"/>
        <pt x="327" y="1104" on="0"/>
        <pt x="412" y="1104" on="1"/>
      </contour>
    </TTGlyph>
    <TTGlyph name="braceright" xMin="123" yMin="-481" xMax="469" yMax="1104">
      <contour>
        <pt x="373" y="487" on="1"/>
        <pt x="373" y="444" on="0"/>
        <pt x="403" y="377" on="0"/>
        <pt x="439" y="332" on="0"/>
        <pt x="469" y="308" on="0"/>
        <pt x="469" y="307" on="1"/>
        <pt x="469" y="304" on="0"/>
        <pt x="439" y="275" on="0"/>
        <pt x="403" y="227" on="0"/>
        <pt x="373" y="163" on="0"/>
        <pt x="373" y="125" on="1"/>
        <pt x="373" y="-250" on="1"/>
        <pt x="373" y="-297" on="0"/>
        <pt x="361" y="-381" on="0"/>
        <pt x="311" y="-444" on="0"/>
        <pt x="211" y="-481" on="0"/>
        <pt x="123" y="-481" on="1"/>
        <pt x="123" y="-420" on="1"/>
        <pt x="178" y="-419" on="0"/>
        <pt x="247" y="-402" on="0"/>
        <pt x="285" y="-362" on="0"/>
        <pt x="299" y="-298" on="0"/>
        <pt x="299" y="-250" on="1"/>
        <pt x="299" y="125" on="1"/>
        <pt x="299" y="163" on="0"/>
        <pt x="327" y="229" on="0"/>
        <pt x="344" y="254" on="1"/>
        <pt x="364" y="283" on="0"/>
        <pt x="389" y="307" on="1"/>
        <pt x="389" y="309" on="0"/>
        <pt x="361" y="335" on="0"/>
        <pt x="327" y="381" on="0"/>
        <pt x="299" y="447" on="0"/>
        <pt x="299" y="487" on="1"/>
        <pt x="299" y="856" on="1"/>
        <pt x="299" y="903" on="0"/>
        <pt x="290" y="970" on="0"/>
        <pt x="255" y="1014" on="0"/>
        <pt x="186" y="1034" on="0"/>
        <pt x="125" y="1034" on="1"/>
        <pt x="129" y="1104" on="1"/>
        <pt x="213" y="1104" on="0"/>
        <pt x="310" y="1058" on="0"/>
        <pt x="359" y="986" on="0"/>
        <pt x="373" y="898" on="0"/>
        <pt x="373" y="856" on="1"/>
      </contour>
    </TTGlyph>
    <TTGlyph name="bracketleft" xMin="193" yMin="-242" xMax="483" yMax="1087">
      <contour>
        <pt x="469" y="-242" on="1"/>
        <pt x="193" y="-201" on="1"/>
        <pt x="193" y="1047" on="1"/>
        <pt x="469" y="1087" on="1"/>
        <pt x="483" y="1008" on="1"/>
        <pt x="295" y="979" on="1"/>
        <pt x="295" y="-131" on="1"/>
        <pt x="483" y="-162" on="1"/>
      </contour>
    </TTGlyph>
    <TTGlyph name="bracketright" xMin="188" yMin="-246" xMax="483" yMax="1085">
      <contour>
        <pt x="207" y="-246" on="1"/>
        <pt x="188" y="-168" on="1"/>
        <pt x="381" y="-137" on="1"/>
        <pt x="381" y="975" on="1"/>
        <pt x="188" y="1006" on="1"/>
        <pt x="207" y="1085" on="1"/>
        <pt x="483" y="1044" on="1"/>
        <pt x="483" y="-205" on="1"/>
      </contour>
    </TTGlyph>
    <TTGlyph name="brokenbar" xMin="197" yMin="-295" xMax="272" yMax="1094">
      <contour>
        <pt x="197" y="500" on="1"/>
        <pt x="197" y="1094" on="1"/>
        <pt x="272" y="1094" on="1"/>
        <pt x="272" y="500" on="1"/>
      </contour>
      <contour>
        <pt x="197" y="-295" on="1"/>
        <pt x="197" y="299" on="1"/>
        <pt x="272" y="299" on="1"/>
        <pt x="272" y="-295" on="1"/>
      </contour>
    </TTGlyph>
    <TTGlyph name="bullet" xMin="186" yMin="55" xMax="868" yMax="737">
      <contour>
        <pt x="528" y="55" on="1"/>
        <pt x="457" y="55" on="0"/>
        <pt x="332" y="109" on="0"/>
        <pt x="239" y="202" on="0"/>
        <pt x="186" y="327" on="0"/>
        <pt x="186" y="399" on="1"/>
        <pt x="186" y="471" on="0"/>
        <pt x="239" y="594" on="0"/>
        <pt x="332" y="685" on="0"/>
        <pt x="457" y="737" on="0"/>
        <pt x="528" y="737" on="1"/>
        <pt x="599" y="737" on="0"/>
        <pt x="723" y="685" on="0"/>
        <pt x="815" y="593" on="0"/>
        <pt x="868" y="470" on="0"/>
        <pt x="868" y="399" on="1"/>
        <pt x="868" y="328" on="0"/>
        <pt x="815" y="202" on="0"/>
        <pt x="724" y="109" on="0"/>
        <pt x="600" y="55" on="0"/>
      </contour>
    </TTGlyph>
    <TTGlyph name="c" xMin="51" yMin="-23" xMax="635" yMax="711">
      <contour>
        <pt x="635" y="262" on="1"/>
        <pt x="626" y="208" on="0"/>
        <pt x="578" y="106" on="0"/>
        <pt x="503" y="26" on="0"/>
        <pt x="405" y="-23" on="0"/>
        <pt x="346" y="-23" on="1"/>
        <pt x="271" y="-23" on="0"/>
        <pt x="160" y="42" on="0"/>
        <pt x="87" y="147" on="0"/>
        <pt x="51" y="278" on="0"/>
        <pt x="51" y="344" on="1"/>
        <pt x="51" y="416" on="0"/>
        <pt x="97" y="549" on="0"/>
        <pt x="183" y="651" on="0"/>
        <pt x="305" y="711" on="0"/>
        <pt x="381" y="711" on="1"/>
        <pt x="416" y="711" on="0"/>
        <pt x="498" y="690" on="0"/>
        <pt x="568" y="648" on="0"/>
        <pt x="616" y="586" on="0"/>
        <pt x="616" y="545" on="1"/>
        <pt x="616" y="511" on="0"/>
        <pt x="577" y="481" on="0"/>
        <pt x="545" y="481" on="1"/>
        <pt x="511" y="481" on="0"/>
        <pt x="479" y="508" on="0"/>
        <pt x="465" y="548" on="0"/>
        <pt x="459" y="595" on="0"/>
        <pt x="440" y="635" on="0"/>
        <pt x="398" y="662" on="0"/>
        <pt x="356" y="662" on="1"/>
        <pt x="306" y="662" on="0"/>
        <pt x="237" y="615" on="0"/>
        <pt x="195" y="541" on="0"/>
        <pt x="176" y="452" on="0"/>
        <pt x="176" y="410" on="1"/>
        <pt x="176" y="359" on="0"/>
        <pt x="200" y="249" on="0"/>
        <pt x="254" y="157" on="0"/>
        <pt x="339" y="98" on="0"/>
        <pt x="399" y="98" on="1"/>
        <pt x="441" y="98" on="0"/>
        <pt x="507" y="127" on="0"/>
        <pt x="558" y="175" on="0"/>
        <pt x="597" y="238" on="0"/>
        <pt x="612" y="272" on="1"/>
      </contour>
    </TTGlyph>
    <TTGlyph name="caron" xMin="0" yMin="786" xMax="485" yMax="1045">
      <contour>
        <pt x="291" y="786" on="1"/>
        <pt x="194" y="786" on="1"/>
        <pt x="0" y="1045" on="1"/>
        <pt x="54" y="1045" on="1"/>
        <pt x="242" y="886" on="1"/>
        <pt x="431" y="1045" on="1"/>
        <pt x="485" y="1045" on="1"/>
      </contour>
    </TTGlyph>
    <TTGlyph name="ccedilla" xMin="51" yMin="-346" xMax="635" yMax="711">
      <component glyphName="c" x="0" y="0" flags="0x204"/>
      <component glyphName="cedilla" x="197" y="-14" flags="0x4"/>
    </TTGlyph>
    <TTGlyph name="cedilla" xMin="18" yMin="-332" xMax="342" yMax="0">
      <contour>
        <pt x="342" y="-203" on="1"/>
        <pt x="342" y="-239" on="0"/>
        <pt x="302" y="-288" on="0"/>
        <pt x="242" y="-319" on="0"/>
        <pt x="172" y="-332" on="0"/>
        <pt x="143" y="-332" on="1"/>
        <pt x="81" y="-332" on="0"/>
        <pt x="18" y="-309" on="1"/>
        <pt x="41" y="-260" on="1"/>
        <pt x="90" y="-279" on="0"/>
        <pt x="137" y="-279" on="1"/>
        <pt x="154" y="-279" on="0"/>
        <pt x="186" y="-273" on="0"/>
        <pt x="212" y="-258" on="0"/>
        <pt x="227" y="-233" on="0"/>
        <pt x="227" y="-213" on="1"/>
        <pt x="227" y="-179" on="0"/>
        <pt x="187" y="-154" on="0"/>
        <pt x="156" y="-154" on="1"/>
        <pt x="142" y="-154" on="0"/>
        <pt x="114" y="-157" on="0"/>
        <pt x="100" y="-162" on="1"/>
        <pt x="90" y="-154" on="1"/>
        <pt x="154" y="0" on="1"/>
        <pt x="209" y="0" on="1"/>
        <pt x="170" y="-100" on="1"/>
        <pt x="181" y="-98" on="0"/>
        <pt x="202" y="-96" on="0"/>
        <pt x="213" y="-96" on="1"/>
        <pt x="239" y="-96" on="0"/>
        <pt x="285" y="-109" on="0"/>
        <pt x="321" y="-135" on="0"/>
        <pt x="342" y="-175" on="0"/>
      </contour>
    </TTGlyph>
    <TTGlyph name="cent" xMin="94" yMin="-285" xMax="678" yMax="999">
      <contour>
        <pt x="678" y="262" on="1"/>
        <pt x="669" y="208" on="0"/>
        <pt x="621" y="106" on="0"/>
        <pt x="546" y="26" on="0"/>
        <pt x="448" y="-23" on="0"/>
        <pt x="389" y="-23" on="1"/>
        <pt x="361" y="-23" on="0"/>
        <pt x="309" y="-11" on="0"/>
        <pt x="283" y="0" on="1"/>
        <pt x="180" y="-285" on="1"/>
        <pt x="127" y="-285" on="1"/>
        <pt x="240" y="25" on="1"/>
        <pt x="200" y="52" on="0"/>
        <pt x="144" y="123" on="0"/>
        <pt x="110" y="205" on="0"/>
        <pt x="94" y="296" on="0"/>
        <pt x="94" y="344" on="1"/>
        <pt x="94" y="416" on="0"/>
        <pt x="140" y="549" on="0"/>
        <pt x="226" y="651" on="0"/>
        <pt x="348" y="711" on="0"/>
        <pt x="424" y="711" on="1"/>
        <pt x="457" y="711" on="0"/>
        <pt x="487" y="705" on="1"/>
        <pt x="594" y="999" on="1"/>
        <pt x="647" y="999" on="1"/>
        <pt x="537" y="690" on="1"/>
        <pt x="557" y="682" on="0"/>
        <pt x="600" y="652" on="0"/>
        <pt x="636" y="614" on="0"/>
        <pt x="659" y="569" on="0"/>
        <pt x="659" y="545" on="1"/>
        <pt x="659" y="511" on="0"/>
        <pt x="620" y="481" on="0"/>
        <pt x="588" y="481" on="1"/>
        <pt x="557" y="481" on="0"/>
        <pt x="526" y="501" on="0"/>
        <pt x="512" y="533" on="0"/>
        <pt x="507" y="573" on="0"/>
        <pt x="500" y="594" on="1"/>
        <pt x="332" y="133" on="1"/>
        <pt x="357" y="116" on="0"/>
        <pt x="413" y="98" on="0"/>
        <pt x="442" y="98" on="1"/>
        <pt x="484" y="98" on="0"/>
        <pt x="550" y="127" on="0"/>
        <pt x="601" y="175" on="0"/>
        <pt x="640" y="238" on="0"/>
        <pt x="655" y="272" on="1"/>
      </contour>
      <contour>
        <pt x="465" y="645" on="1"/>
        <pt x="435" y="662" on="0"/>
        <pt x="399" y="662" on="1"/>
        <pt x="349" y="662" on="0"/>
        <pt x="280" y="615" on="0"/>
        <pt x="238" y="541" on="0"/>
        <pt x="219" y="452" on="0"/>
        <pt x="219" y="410" on="1"/>
        <pt x="219" y="347" on="0"/>
        <pt x="250" y="221" on="0"/>
        <pt x="293" y="170" on="1"/>
      </contour>
    </TTGlyph>
    <TTGlyph name="circumflex" xMin="0" yMin="786" xMax="483" yMax="1044">
      <contour>
        <pt x="430" y="786" on="1"/>
        <pt x="242" y="946" on="1"/>
        <pt x="53" y="786" on="1"/>
        <pt x="0" y="786" on="1"/>
        <pt x="195" y="1044" on="1"/>
        <pt x="291" y="1044" on="1"/>
        <pt x="483" y="786" on="1"/>
      </contour>
    </TTGlyph>
    <TTGlyph name="colon" xMin="131" yMin="-22" xMax="300" yMax="712">
      <contour>
        <pt x="300" y="628" on="1"/>
        <pt x="300" y="609" on="0"/>
        <pt x="285" y="579" on="0"/>
        <pt x="262" y="558" on="0"/>
        <pt x="232" y="546" on="0"/>
        <pt x="217" y="546" on="1"/>
        <pt x="182" y="546" on="0"/>
        <pt x="132" y="593" on="0"/>
        <pt x="132" y="628" on="1"/>
        <pt x="132" y="664" on="0"/>
        <pt x="182" y="712" on="0"/>
        <pt x="217" y="712" on="1"/>
        <pt x="250" y="712" on="0"/>
        <pt x="300" y="664" on="0"/>
      </contour>
      <contour>
        <pt x="300" y="64" on="1"/>
        <pt x="300" y="45" on="0"/>
        <pt x="285" y="13" on="0"/>
        <pt x="261" y="-10" on="0"/>
        <pt x="231" y="-22" on="0"/>
        <pt x="215" y="-22" on="1"/>
        <pt x="199" y="-22" on="0"/>
        <pt x="169" y="-9" on="0"/>
        <pt x="145" y="13" on="0"/>
        <pt x="131" y="45" on="0"/>
        <pt x="131" y="64" on="1"/>
        <pt x="131" y="85" on="0"/>
        <pt x="147" y="116" on="0"/>
        <pt x="171" y="137" on="0"/>
        <pt x="201" y="147" on="0"/>
        <pt x="215" y="147" on="1"/>
        <pt x="229" y="147" on="0"/>
        <pt x="259" y="136" on="0"/>
        <pt x="284" y="114" on="0"/>
        <pt x="300" y="84" on="0"/>
      </contour>
    </TTGlyph>
    <TTGlyph name="colon.arab" xMin="205" yMin="-2" xMax="393" yMax="580">
      <contour>
        <pt x="299" y="186" on="1"/>
        <pt x="314" y="186" on="0"/>
        <pt x="347" y="168" on="0"/>
        <pt x="375" y="140" on="0"/>
        <pt x="393" y="107" on="0"/>
        <pt x="393" y="92" on="1"/>
        <pt x="393" y="77" on="0"/>
        <pt x="375" y="44" on="0"/>
        <pt x="347" y="16" on="0"/>
        <pt x="314" y="-2" on="0"/>
        <pt x="299" y="-2" on="1"/>
        <pt x="284" y="-2" on="0"/>
        <pt x="251" y="16" on="0"/>
        <pt x="223" y="44" on="0"/>
        <pt x="205" y="77" on="0"/>
        <pt x="205" y="92" on="1"/>
        <pt x="205" y="107" on="0"/>
        <pt x="223" y="140" on="0"/>
        <pt x="251" y="168" on="0"/>
        <pt x="284" y="186" on="0"/>
      </contour>
      <contour>
        <pt x="299" y="580" on="1"/>
        <pt x="314" y="580" on="0"/>
        <pt x="347" y="561" on="0"/>
        <pt x="375" y="532" on="0"/>
        <pt x="393" y="499" on="0"/>
        <pt x="393" y="485" on="1"/>
        <pt x="393" y="470" on="0"/>
        <pt x="375" y="437" on="0"/>
        <pt x="347" y="409" on="0"/>
        <pt x="314" y="391" on="0"/>
        <pt x="299" y="391" on="1"/>
        <pt x="284" y="391" on="0"/>
        <pt x="251" y="409" on="0"/>
        <pt x="223" y="437" on="0"/>
        <pt x="205" y="470" on="0"/>
        <pt x="205" y="485" on="1"/>
        <pt x="205" y="499" on="0"/>
        <pt x="223" y="532" on="0"/>
        <pt x="251" y="561" on="0"/>
        <pt x="284" y="580" on="0"/>
      </contour>
    </TTGlyph>
    <TTGlyph name="comma" xMin="84" yMin="-258" xMax="307" yMax="150">
      <contour>
        <pt x="307" y="-8" on="1"/>
        <pt x="307" y="-182" on="0"/>
        <pt x="84" y="-258" on="1"/>
        <pt x="84" y="-223" on="1"/>
        <pt x="146" y="-205" on="0"/>
        <pt x="193" y="-156" on="1"/>
        <pt x="219" y="-128" on="0"/>
        <pt x="246" y="-65" on="0"/>
        <pt x="246" y="-31" on="1"/>
        <pt x="246" y="0" on="0"/>
        <pt x="229" y="0" on="1"/>
        <pt x="217" y="0" on="0"/>
        <pt x="197" y="-10" on="1"/>
        <pt x="186" y="-16" on="0"/>
        <pt x="170" y="-23" on="0"/>
        <pt x="164" y="-23" on="1"/>
        <pt x="84" y="-23" on="0"/>
        <pt x="84" y="61" on="1"/>
        <pt x="84" y="81" on="0"/>
        <pt x="97" y="113" on="0"/>
        <pt x="113" y="125" on="1"/>
        <pt x="141" y="150" on="0"/>
        <pt x="180" y="150" on="1"/>
        <pt x="230" y="150" on="0"/>
        <pt x="266" y="111" on="1"/>
        <pt x="307" y="64" on="0"/>
      </contour>
    </TTGlyph>
    <TTGlyph name="copyright" xMin="51" yMin="-25" xMax="1122" yMax="1044">
      <contour>
        <pt x="1122" y="510" on="1"/>
        <pt x="1122" y="398" on="0"/>
        <pt x="1039" y="203" on="0"/>
        <pt x="895" y="58" on="0"/>
        <pt x="699" y="-25" on="0"/>
        <pt x="586" y="-25" on="1"/>
        <pt x="473" y="-25" on="0"/>
        <pt x="278" y="58" on="0"/>
        <pt x="134" y="202" on="0"/>
        <pt x="51" y="397" on="0"/>
        <pt x="51" y="510" on="1"/>
        <pt x="51" y="624" on="0"/>
        <pt x="134" y="819" on="0"/>
        <pt x="278" y="962" on="0"/>
        <pt x="473" y="1044" on="0"/>
        <pt x="586" y="1044" on="1"/>
        <pt x="700" y="1044" on="0"/>
        <pt x="896" y="962" on="0"/>
        <pt x="1040" y="819" on="0"/>
        <pt x="1122" y="624" on="0"/>
      </contour>
      <contour>
        <pt x="1075" y="510" on="1"/>
        <pt x="1075" y="613" on="0"/>
        <pt x="999" y="791" on="0"/>
        <pt x="867" y="923" on="0"/>
        <pt x="689" y="999" on="0"/>
        <pt x="586" y="999" on="1"/>
        <pt x="484" y="999" on="0"/>
        <pt x="306" y="923" on="0"/>
        <pt x="175" y="790" on="0"/>
        <pt x="100" y="612" on="0"/>
        <pt x="100" y="510" on="1"/>
        <pt x="100" y="408" on="0"/>
        <pt x="175" y="231" on="0"/>
        <pt x="306" y="100" on="0"/>
        <pt x="484" y="25" on="0"/>
        <pt x="586" y="25" on="1"/>
        <pt x="689" y="25" on="0"/>
        <pt x="867" y="100" on="0"/>
        <pt x="999" y="231" on="0"/>
        <pt x="1075" y="408" on="0"/>
      </contour>
      <contour>
        <pt x="879" y="324" on="1"/>
        <pt x="826" y="248" on="0"/>
        <pt x="681" y="170" on="0"/>
        <pt x="590" y="170" on="1"/>
        <pt x="518" y="170" on="0"/>
        <pt x="390" y="220" on="0"/>
        <pt x="295" y="309" on="0"/>
        <pt x="240" y="432" on="0"/>
        <pt x="240" y="506" on="1"/>
        <pt x="240" y="587" on="0"/>
        <pt x="300" y="717" on="0"/>
        <pt x="402" y="808" on="0"/>
        <pt x="539" y="856" on="0"/>
        <pt x="616" y="856" on="1"/>
        <pt x="640" y="856" on="0"/>
        <pt x="690" y="845" on="0"/>
        <pt x="735" y="832" on="0"/>
        <pt x="772" y="821" on="0"/>
        <pt x="784" y="821" on="1"/>
        <pt x="798" y="821" on="0"/>
        <pt x="816" y="844" on="0"/>
        <pt x="821" y="856" on="1"/>
        <pt x="850" y="856" on="1"/>
        <pt x="866" y="645" on="1"/>
        <pt x="838" y="645" on="1"/>
        <pt x="810" y="727" on="0"/>
        <pt x="699" y="821" on="0"/>
        <pt x="608" y="821" on="1"/>
        <pt x="544" y="821" on="0"/>
        <pt x="451" y="773" on="0"/>
        <pt x="393" y="692" on="0"/>
        <pt x="365" y="586" on="0"/>
        <pt x="365" y="528" on="1"/>
        <pt x="365" y="468" on="0"/>
        <pt x="392" y="356" on="0"/>
        <pt x="451" y="270" on="0"/>
        <pt x="547" y="219" on="0"/>
        <pt x="616" y="219" on="1"/>
        <pt x="767" y="219" on="0"/>
        <pt x="850" y="340" on="1"/>
      </contour>
    </TTGlyph>
    <TTGlyph name="currency" xMin="45" yMin="238" xMax="846" yMax="1040">
      <contour>
        <pt x="793" y="238" on="1"/>
        <pt x="639" y="391" on="1"/>
        <pt x="599" y="356" on="0"/>
        <pt x="503" y="322" on="0"/>
        <pt x="449" y="322" on="1"/>
        <pt x="393" y="322" on="0"/>
        <pt x="294" y="354" on="0"/>
        <pt x="252" y="391" on="1"/>
        <pt x="98" y="238" on="1"/>
        <pt x="45" y="291" on="1"/>
        <pt x="197" y="444" on="1"/>
        <pt x="165" y="485" on="0"/>
        <pt x="133" y="582" on="0"/>
        <pt x="133" y="635" on="1"/>
        <pt x="133" y="688" on="0"/>
        <pt x="164" y="789" on="0"/>
        <pt x="201" y="829" on="1"/>
        <pt x="45" y="985" on="1"/>
        <pt x="98" y="1040" on="1"/>
        <pt x="254" y="883" on="1"/>
        <pt x="296" y="917" on="0"/>
        <pt x="396" y="948" on="0"/>
        <pt x="449" y="948" on="1"/>
        <pt x="501" y="948" on="0"/>
        <pt x="595" y="917" on="0"/>
        <pt x="635" y="883" on="1"/>
        <pt x="793" y="1040" on="1"/>
        <pt x="846" y="985" on="1"/>
        <pt x="692" y="831" on="1"/>
        <pt x="726" y="789" on="0"/>
        <pt x="758" y="689" on="0"/>
        <pt x="758" y="635" on="1"/>
        <pt x="758" y="582" on="0"/>
        <pt x="726" y="485" on="0"/>
        <pt x="694" y="444" on="1"/>
        <pt x="846" y="291" on="1"/>
      </contour>
      <contour>
        <pt x="674" y="635" on="1"/>
        <pt x="674" y="682" on="0"/>
        <pt x="639" y="765" on="0"/>
        <pt x="577" y="828" on="0"/>
        <pt x="496" y="864" on="0"/>
        <pt x="449" y="864" on="1"/>
        <pt x="400" y="864" on="0"/>
        <pt x="316" y="829" on="0"/>
        <pt x="253" y="767" on="0"/>
        <pt x="217" y="683" on="0"/>
        <pt x="217" y="635" on="1"/>
        <pt x="217" y="587" on="0"/>
        <pt x="253" y="503" on="0"/>
        <pt x="316" y="441" on="0"/>
        <pt x="400" y="406" on="0"/>
        <pt x="449" y="406" on="1"/>
        <pt x="496" y="406" on="0"/>
        <pt x="578" y="442" on="0"/>
        <pt x="639" y="505" on="0"/>
        <pt x="674" y="588" on="0"/>
      </contour>
    </TTGlyph>
    <TTGlyph name="d" xMin="51" yMin="-23" xMax="778" yMax="1071">
      <contour>
        <pt x="569" y="-23" on="1"/>
        <pt x="537" y="-23" on="1"/>
        <pt x="537" y="78" on="1"/>
        <pt x="495" y="34" on="0"/>
        <pt x="394" y="-23" on="0"/>
        <pt x="334" y="-23" on="1"/>
        <pt x="267" y="-23" on="0"/>
        <pt x="161" y="37" on="0"/>
        <pt x="89" y="134" on="0"/>
        <pt x="51" y="255" on="0"/>
        <pt x="51" y="315" on="1"/>
        <pt x="51" y="387" on="0"/>
        <pt x="97" y="528" on="0"/>
        <pt x="184" y="641" on="0"/>
        <pt x="309" y="711" on="0"/>
        <pt x="387" y="711" on="1"/>
        <pt x="429" y="711" on="0"/>
        <pt x="506" y="684" on="0"/>
        <pt x="537" y="653" on="1"/>
        <pt x="537" y="797" on="1"/>
        <pt x="537" y="813" on="0"/>
        <pt x="539" y="872" on="0"/>
        <pt x="532" y="930" on="0"/>
        <pt x="509" y="973" on="0"/>
        <pt x="483" y="973" on="1"/>
        <pt x="469" y="973" on="0"/>
        <pt x="444" y="968" on="0"/>
        <pt x="430" y="963" on="1"/>
        <pt x="420" y="989" on="1"/>
        <pt x="629" y="1071" on="1"/>
        <pt x="662" y="1071" on="1"/>
        <pt x="662" y="272" on="1"/>
        <pt x="662" y="261" on="0"/>
        <pt x="660" y="223" on="0"/>
        <pt x="660" y="180" on="0"/>
        <pt x="664" y="136" on="0"/>
        <pt x="676" y="100" on="0"/>
        <pt x="699" y="78" on="0"/>
        <pt x="717" y="78" on="1"/>
        <pt x="729" y="78" on="0"/>
        <pt x="756" y="85" on="0"/>
        <pt x="770" y="90" on="1"/>
        <pt x="778" y="63" on="1"/>
      </contour>
      <contour>
        <pt x="537" y="487" on="1"/>
        <pt x="537" y="519" on="0"/>
        <pt x="513" y="583" on="0"/>
        <pt x="470" y="634" on="0"/>
        <pt x="412" y="666" on="0"/>
        <pt x="377" y="666" on="1"/>
        <pt x="323" y="666" on="0"/>
        <pt x="251" y="608" on="0"/>
        <pt x="208" y="521" on="0"/>
        <pt x="190" y="420" on="0"/>
        <pt x="190" y="377" on="1"/>
        <pt x="190" y="329" on="0"/>
        <pt x="212" y="219" on="0"/>
        <pt x="261" y="124" on="0"/>
        <pt x="342" y="61" on="0"/>
        <pt x="401" y="61" on="1"/>
        <pt x="442" y="61" on="0"/>
        <pt x="511" y="102" on="0"/>
        <pt x="537" y="131" on="1"/>
      </contour>
    </TTGlyph>
    <TTGlyph name="dagger" xMin="76" yMin="-315" xMax="696" yMax="1057">
      <contour>
        <pt x="696" y="688" on="1"/>
        <pt x="696" y="653" on="0"/>
        <pt x="651" y="616" on="0"/>
        <pt x="618" y="616" on="1"/>
        <pt x="589" y="616" on="0"/>
        <pt x="536" y="632" on="0"/>
        <pt x="482" y="653" on="0"/>
        <pt x="427" y="672" on="0"/>
        <pt x="395" y="674" on="1"/>
        <pt x="397" y="623" on="0"/>
        <pt x="431" y="530" on="0"/>
        <pt x="471" y="498" on="1"/>
        <pt x="446" y="398" on="0"/>
        <pt x="418" y="195" on="0"/>
        <pt x="403" y="-9" on="0"/>
        <pt x="398" y="-213" on="0"/>
        <pt x="395" y="-315" on="1"/>
        <pt x="369" y="-315" on="1"/>
        <pt x="368" y="-214" on="0"/>
        <pt x="362" y="-9" on="0"/>
        <pt x="347" y="196" on="0"/>
        <pt x="317" y="399" on="0"/>
        <pt x="291" y="498" on="1"/>
        <pt x="314" y="517" on="0"/>
        <pt x="341" y="556" on="0"/>
        <pt x="358" y="598" on="0"/>
        <pt x="366" y="646" on="0"/>
        <pt x="369" y="674" on="1"/>
        <pt x="340" y="673" on="0"/>
        <pt x="286" y="655" on="0"/>
        <pt x="233" y="634" on="0"/>
        <pt x="181" y="616" on="0"/>
        <pt x="154" y="616" on="1"/>
        <pt x="116" y="616" on="0"/>
        <pt x="76" y="650" on="0"/>
        <pt x="76" y="688" on="1"/>
        <pt x="76" y="704" on="0"/>
        <pt x="89" y="732" on="0"/>
        <pt x="110" y="752" on="0"/>
        <pt x="139" y="764" on="0"/>
        <pt x="154" y="764" on="1"/>
        <pt x="177" y="764" on="0"/>
        <pt x="227" y="745" on="0"/>
        <pt x="281" y="723" on="0"/>
        <pt x="338" y="703" on="0"/>
        <pt x="369" y="702" on="1"/>
        <pt x="369" y="737" on="0"/>
        <pt x="347" y="800" on="0"/>
        <pt x="321" y="862" on="0"/>
        <pt x="299" y="925" on="0"/>
        <pt x="299" y="961" on="1"/>
        <pt x="299" y="999" on="0"/>
        <pt x="342" y="1057" on="0"/>
        <pt x="383" y="1057" on="1"/>
        <pt x="402" y="1057" on="0"/>
        <pt x="433" y="1040" on="0"/>
        <pt x="454" y="1013" on="0"/>
        <pt x="465" y="979" on="0"/>
        <pt x="465" y="961" on="1"/>
        <pt x="465" y="928" on="0"/>
        <pt x="444" y="864" on="0"/>
        <pt x="418" y="801" on="0"/>
        <pt x="396" y="736" on="0"/>
        <pt x="395" y="702" on="1"/>
        <pt x="424" y="703" on="0"/>
        <pt x="481" y="722" on="0"/>
        <pt x="536" y="744" on="0"/>
        <pt x="589" y="762" on="0"/>
        <pt x="616" y="762" on="1"/>
        <pt x="648" y="762" on="0"/>
        <pt x="696" y="720" on="0"/>
      </contour>
    </TTGlyph>
    <TTGlyph name="daggerdbl" xMin="104" yMin="-334" xMax="668" yMax="1071">
      <contour>
        <pt x="668" y="-10" on="1"/>
        <pt x="668" y="-80" on="0"/>
        <pt x="596" y="-80" on="1"/>
        <pt x="572" y="-80" on="0"/>
        <pt x="525" y="-65" on="0"/>
        <pt x="476" y="-46" on="0"/>
        <pt x="426" y="-30" on="0"/>
        <pt x="399" y="-29" on="1"/>
        <pt x="399" y="-59" on="0"/>
        <pt x="419" y="-115" on="0"/>
        <pt x="443" y="-170" on="0"/>
        <pt x="463" y="-225" on="0"/>
        <pt x="463" y="-254" on="1"/>
        <pt x="463" y="-288" on="0"/>
        <pt x="421" y="-334" on="0"/>
        <pt x="387" y="-334" on="1"/>
        <pt x="371" y="-334" on="0"/>
        <pt x="343" y="-320" on="0"/>
        <pt x="323" y="-297" on="0"/>
        <pt x="311" y="-267" on="0"/>
        <pt x="311" y="-252" on="1"/>
        <pt x="311" y="-228" on="0"/>
        <pt x="327" y="-173" on="0"/>
        <pt x="347" y="-115" on="0"/>
        <pt x="367" y="-56" on="0"/>
        <pt x="371" y="-29" on="1"/>
        <pt x="342" y="-29" on="0"/>
        <pt x="290" y="-45" on="0"/>
        <pt x="242" y="-64" on="0"/>
        <pt x="197" y="-80" on="0"/>
        <pt x="176" y="-80" on="1"/>
        <pt x="106" y="-80" on="0"/>
        <pt x="106" y="-14" on="1"/>
        <pt x="106" y="23" on="0"/>
        <pt x="145" y="55" on="0"/>
        <pt x="180" y="55" on="1"/>
        <pt x="204" y="55" on="0"/>
        <pt x="250" y="40" on="0"/>
        <pt x="297" y="21" on="0"/>
        <pt x="345" y="6" on="0"/>
        <pt x="371" y="6" on="1"/>
        <pt x="365" y="30" on="0"/>
        <pt x="356" y="63" on="0"/>
        <pt x="341" y="89" on="0"/>
        <pt x="317" y="112" on="0"/>
        <pt x="297" y="127" on="1"/>
        <pt x="335" y="181" on="0"/>
        <pt x="371" y="309" on="0"/>
        <pt x="371" y="375" on="1"/>
        <pt x="371" y="437" on="0"/>
        <pt x="340" y="560" on="0"/>
        <pt x="297" y="608" on="1"/>
        <pt x="317" y="622" on="0"/>
        <pt x="341" y="649" on="0"/>
        <pt x="356" y="679" on="0"/>
        <pt x="365" y="714" on="0"/>
        <pt x="371" y="737" on="1"/>
        <pt x="344" y="735" on="0"/>
        <pt x="295" y="718" on="0"/>
        <pt x="246" y="700" on="0"/>
        <pt x="197" y="686" on="0"/>
        <pt x="170" y="686" on="1"/>
        <pt x="104" y="686" on="0"/>
        <pt x="104" y="752" on="1"/>
        <pt x="104" y="817" on="0"/>
        <pt x="170" y="817" on="1"/>
        <pt x="195" y="817" on="0"/>
        <pt x="244" y="802" on="0"/>
        <pt x="294" y="783" on="0"/>
        <pt x="345" y="766" on="0"/>
        <pt x="371" y="764" on="1"/>
        <pt x="370" y="794" on="0"/>
        <pt x="351" y="851" on="0"/>
        <pt x="328" y="907" on="0"/>
        <pt x="309" y="961" on="0"/>
        <pt x="309" y="989" on="1"/>
        <pt x="309" y="1023" on="0"/>
        <pt x="352" y="1071" on="0"/>
        <pt x="387" y="1071" on="1"/>
        <pt x="427" y="1071" on="0"/>
        <pt x="459" y="1023" on="0"/>
        <pt x="459" y="985" on="1"/>
        <pt x="459" y="963" on="0"/>
        <pt x="442" y="911" on="0"/>
        <pt x="421" y="854" on="0"/>
        <pt x="402" y="794" on="0"/>
        <pt x="399" y="764" on="1"/>
        <pt x="426" y="766" on="0"/>
        <pt x="476" y="783" on="0"/>
        <pt x="525" y="802" on="0"/>
        <pt x="574" y="817" on="0"/>
        <pt x="600" y="817" on="1"/>
        <pt x="632" y="817" on="0"/>
        <pt x="668" y="784" on="0"/>
        <pt x="668" y="750" on="1"/>
        <pt x="668" y="716" on="0"/>
        <pt x="628" y="684" on="0"/>
        <pt x="596" y="684" on="1"/>
        <pt x="571" y="684" on="0"/>
        <pt x="522" y="698" on="0"/>
        <pt x="473" y="716" on="0"/>
        <pt x="425" y="733" on="0"/>
        <pt x="399" y="737" on="1"/>
        <pt x="402" y="714" on="0"/>
        <pt x="411" y="679" on="0"/>
        <pt x="428" y="649" on="0"/>
        <pt x="453" y="622" on="0"/>
        <pt x="471" y="608" on="1"/>
        <pt x="434" y="554" on="0"/>
        <pt x="399" y="430" on="0"/>
        <pt x="399" y="365" on="1"/>
        <pt x="399" y="302" on="0"/>
        <pt x="433" y="180" on="0"/>
        <pt x="471" y="127" on="1"/>
        <pt x="437" y="101" on="0"/>
        <pt x="406" y="47" on="0"/>
        <pt x="399" y="4" on="1"/>
        <pt x="425" y="5" on="0"/>
        <pt x="474" y="21" on="0"/>
        <pt x="522" y="40" on="0"/>
        <pt x="571" y="55" on="0"/>
        <pt x="596" y="55" on="1"/>
        <pt x="625" y="55" on="0"/>
        <pt x="668" y="19" on="0"/>
      </contour>
    </TTGlyph>
</ttFont>
